<?xml version="1.0" encoding="utf-8"?>
<!-- Generator: Adobe Illustrator 27.0.0, SVG Export Plug-In . SVG Version: 6.00 Build 0)  -->
<svg version="1.1" xmlns="http://www.w3.org/2000/svg" xmlns:xlink="http://www.w3.org/1999/xlink" x="0px" y="0px"
	 viewBox="0 0 136.7 133.07" style="enable-background:new 0 0 136.7 133.07;" xml:space="preserve">
<style type="text/css">
	.st0{display:none;}
	.st1{display:inline;fill:#C4C3C3;}
	.st2{display:inline;fill:#ED1F24;}
	.st3{fill:#FFFFFF;}
	.st4{fill:#EEC919;}
	.st5{fill:#797979;}
	.st6{fill:#F15A29;}
	.st7{fill:#4853A4;}
	.st8{fill:none;stroke:#1D76BB;stroke-width:0.1928;stroke-linecap:round;stroke-linejoin:round;stroke-miterlimit:10;}
	.st9{fill:#28A8E0;}
	.st10{fill:#1D76BB;}
	.st11{fill-rule:evenodd;clip-rule:evenodd;fill:#1668B1;}
	.st12{fill:#00A651;}
	.st13{fill:#0B0C0E;}
	.st14{fill:#010101;}
	.st15{fill:#050505;}
	.st16{fill:#020202;}
	.st17{fill:#080A0C;}
	.st18{fill:#0A0B0D;}
	.st19{fill:#080808;}
	.st20{fill:#0F1112;}
	.st21{fill:#101212;}
	.st22{fill:#0E1011;}
	.st23{fill:#A3795F;}
	.st24{fill:#D2AA91;}
	.st25{fill:#060506;}
	.st26{fill:#D1A990;}
	.st27{fill:#060606;}
	.st28{fill:#0B0B0B;}
	.st29{fill:#110F0E;}
	.st30{fill:#D0A891;}
	.st31{fill:#181412;}
	.st32{fill:#BA967F;}
	.st33{fill:#101010;}
	.st34{fill:#1C1715;}
	.st35{fill:#8D7262;}
	.st36{fill:#303230;}
	.st37{fill:#474E47;}
	.st38{fill:#3A453A;}
	.st39{fill:#B7947D;}
	.st40{fill:#5E6C42;}
	.st41{fill:#BC9882;}
	.st42{fill:#BA9680;}
	.st43{fill:#AD8B77;}
	.st44{fill:#A28B70;}
	.st45{fill:#917564;}
	.st46{fill:#7B6555;}
	.st47{fill:#534339;}
	.st48{fill:#56453B;}
	.st49{fill:#D5AB92;}
	.st50{fill:#A3775E;}
	.st51{fill:#A2785E;}
	.st52{fill:#050706;}
	.st53{fill:#0A0808;}
	.st54{fill:#CCA48C;}
	.st55{fill:#090909;}
	.st56{fill:#171412;}
	.st57{fill:#13110F;}
	.st58{fill:#CAA28A;}
	.st59{fill:#C49E87;}
	.st60{fill:#413026;}
	.st61{fill:#1A1614;}
	.st62{fill:#9B7D6B;}
	.st63{fill:#0D0B0B;}
	.st64{fill:#9A6D57;}
	.st65{fill:#EDEBE8;}
	.st66{fill:#8D6751;}
	.st67{fill:#2A2320;}
	.st68{fill:#34261E;}
	.st69{fill:#1B1512;}
	.st70{fill:#362920;}
	.st71{fill:#181A12;}
	.st72{fill:#382920;}
	.st73{fill:#37291F;}
	.st74{fill:#342923;}
	.st75{fill:#575453;}
	.st76{fill:#A2948B;}
	.st77{fill:#1D1715;}
	.st78{fill:#211C18;}
	.st79{fill:#443F3D;}
	.st80{fill:#403F3F;}
	.st81{fill:#5F5E5E;}
	.st82{fill:#1E1E1E;}
	.st83{fill:#553F31;}
	.st84{fill:#B3B3B3;}
	.st85{fill:#46352B;}
	.st86{fill:#83604C;}
	.st87{fill:#0E0F12;}
	.st88{fill:#ECEDED;}
	.st89{fill:#17181A;}
	.st90{fill:#222226;}
	.st91{fill:#BCBCBC;}
	.st92{fill:#DCDCDC;}
	.st93{fill:#262525;}
	.st94{fill:#C29C82;}
	.st95{fill:#09090B;}
	.st96{fill:#030303;}
	.st97{fill:#D2A891;}
	.st98{fill:#040404;}
	.st99{fill:#090A0C;}
	.st100{fill:#070606;}
	.st101{fill:#0B0A0A;}
	.st102{fill:#9E6F58;}
	.st103{fill:#D1A991;}
	.st104{fill:#D1A790;}
	.st105{fill:#080707;}
	.st106{fill:#100E0D;}
	.st107{fill:#D0A68D;}
	.st108{fill:#1B1612;}
	.st109{fill:#CCA38C;}
	.st110{fill:#CAA18A;}
	.st111{fill:#28201B;}
	.st112{fill:#241D18;}
	.st113{fill:#E7E6E5;}
	.st114{fill:#454544;}
	.st115{fill:#1A1817;}
	.st116{fill:#1F1813;}
	.st117{fill:#33251D;}
	.st118{fill:#C29C84;}
	.st119{fill:#C89F87;}
	.st120{fill:#E9E8E8;}
	.st121{fill:#2E211A;}
	.st122{fill:#362E2A;}
	.st123{fill:#292624;}
	.st124{fill:#211913;}
	.st125{fill:#3D3732;}
	.st126{fill:#464646;}
	.st127{fill:#463A31;}
	.st128{fill:#946E56;}
	.st129{fill:#191411;}
	.st130{fill:#E4E4E4;}
	.st131{fill:#2F2823;}
	.st132{fill:#3B2B22;}
	.st133{fill:#252424;}
	.st134{fill:#262320;}
	.st135{fill:#745948;}
	.st136{fill:#333231;}
	.st137{fill:#1E1917;}
	.st138{fill:#46362B;}
	.st139{fill:#1D1613;}
	.st140{fill:#3C2C22;}
	.st141{fill:#3E3834;}
	.st142{fill:#4F4D4D;}
	.st143{fill:#F4F4F4;}
	.st144{fill:#E3E2E0;}
	.st145{fill:#37281F;}
	.st146{fill:#DDDAD9;}
	.st147{fill:#211915;}
	.st148{fill:#3A2D26;}
	.st149{fill:#3E2E23;}
	.st150{fill:#2A1E18;}
	.st151{fill:#E4E2E2;}
	.st152{fill:#D6D3D0;}
	.st153{fill:#4A362B;}
	.st154{fill:#33251E;}
	.st155{fill:#31241D;}
	.st156{fill:#3C2D23;}
	.st157{fill:#3F2E24;}
	.st158{fill:#3D3D3D;}
	.st159{fill:#7D5F4D;}
	.st160{fill:#34251E;}
	.st161{fill:#201F1F;}
	.st162{fill:#CDC5C0;}
	.st163{fill:#161211;}
	.st164{fill:#453932;}
	.st165{fill:#636363;}
	.st166{fill:#B58A71;}
	.st167{fill:#DED7D3;}
	.st168{fill:#656260;}
	.st169{fill:#C8BFBA;}
	.st170{fill:#CCCAC8;}
	.st171{fill:#513B2E;}
	.st172{fill:#D8CBC4;}
	.st173{fill:#382A23;}
	.st174{fill:#E7DFDA;}
	.st175{fill:#30271F;}
	.st176{fill:#A19D9C;}
	.st177{fill:#402F25;}
	.st178{fill:#0D0E10;}
	.st179{fill:#0D0E11;}
	.st180{fill:#0B0B0E;}
	.st181{fill:#0E0F11;}
	.st182{fill:#121316;}
	.st183{fill:#D3D3D3;}
	.st184{fill:#17181C;}
	.st185{fill:#2B2D2F;}
	.st186{fill:#DBDADA;}
	.st187{fill:#2B2B2F;}
	.st188{fill:#252629;}
	.st189{fill:#4C4E50;}
	.st190{fill:#636466;}
	.st191{fill:#2B2C2E;}
	.st192{fill:#1C1D21;}
	.st193{fill:#7B7B7D;}
	.st194{fill:#BABABA;}
	.st195{fill:#505153;}
	.st196{fill:#929394;}
	.st197{fill:#5C5E60;}
	.st198{fill:#393B3D;}
	.st199{fill:#100F0E;}
	.st200{fill:#191514;}
	.st201{fill:#1C1A19;}
	.st202{fill:#2B2725;}
	.st203{fill:#D5E9D6;}
	.st204{fill:#151312;}
	.st205{fill:#161311;}
	.st206{fill:#252624;}
	.st207{fill:#282828;}
	.st208{fill:#1B1B1B;}
	.st209{fill:#434140;}
	.st210{fill:#272626;}
	.st211{fill:#424242;}
	.st212{fill:#303030;}
	.st213{fill:#4D4D4D;}
	.st214{fill:#4B4B4B;}
	.st215{fill:#656565;}
	.st216{fill:#0F0F0E;}
	.st217{fill:#0C0B0B;}
	.st218{fill:#111111;}
	.st219{fill:#D3AA92;}
	.st220{fill:#F5F6F6;}
	.st221{fill:#343434;}
	.st222{fill:#565656;}
	.st223{fill:#3E3E3E;}
	.st224{fill:#CDC0B7;}
	.st225{fill:#272727;}
	.st226{fill:#0A0909;}
	.st227{fill:#141211;}
	.st228{fill:#3D322A;}
	.st229{fill:#D0A78E;}
	.st230{fill:#211E1C;}
	.st231{fill:#D0A68E;}
	.st232{fill:#221B18;}
	.st233{fill:#CAA188;}
	.st234{fill:#31231B;}
	.st235{fill:#271D17;}
	.st236{fill:#282320;}
	.st237{fill:#E9E7E6;}
	.st238{fill:#3A2B21;}
	.st239{fill:#3B3734;}
	.st240{fill:#31241C;}
	.st241{fill:#966F57;}
	.st242{fill:#443227;}
	.st243{fill:#4F3A2E;}
	.st244{fill:#2F2925;}
	.st245{fill:#2C211C;}
	.st246{fill:#1F1712;}
	.st247{fill:#48362A;}
	.st248{fill:#241D19;}
	.st249{fill:#312C29;}
	.st250{fill:#735442;}
	.st251{fill:#4D392D;}
	.st252{fill:#26211E;}
	.st253{fill:#523E32;}
	.st254{fill:#583E31;}
	.st255{fill:#D3CECB;}
	.st256{fill:#946A53;}
	.st257{fill:#3D2E26;}
	.st258{fill:#433227;}
	.st259{fill:#4A372B;}
	.st260{fill:#8B6751;}
	.st261{fill:#090808;}
	.st262{fill:#594234;}
	.st263{fill:#3C2F28;}
	.st264{fill:#8D6852;}
	.st265{fill:#4C382C;}
	.st266{fill:#563E31;}
	.st267{fill:#563F32;}
	.st268{fill:#533D30;}
	.st269{fill:#5D4536;}
	.st270{fill:#483529;}
	.st271{fill:#423126;}
	.st272{fill:#564032;}
	.st273{fill:#614738;}
	.st274{fill:#4A4949;}
	.st275{fill:#424241;}
	.st276{fill:#616262;}
	.st277{fill:#6A6A6A;}
	.st278{fill:#505050;}
	.st279{fill:#575757;}
	.st280{fill:#5D5D5D;}
	.st281{fill:#606060;}
	.st282{fill:#484645;}
	.st283{fill:#595959;}
	.st284{fill:#727171;}
	.st285{fill:#E2E2E2;}
	.st286{fill:#525252;}
	.st287{fill:#5E5E5E;}
	.st288{fill:#C0BFBF;}
	.st289{fill:#5E5F5F;}
	.st290{fill:#423733;}
	.st291{fill:#464645;}
	.st292{fill:#444444;}
	.st293{fill:#D9D9DA;}
	.st294{fill:#6D6E6E;}
	.st295{fill:#333333;}
	.st296{fill:#373737;}
	.st297{fill:#666666;}
	.st298{fill:#434343;}
	.st299{fill:#787878;}
	.st300{fill:#313132;}
	.st301{fill:#3F3F3F;}
	.st302{fill:#2B2B2C;}
	.st303{fill:#939393;}
	.st304{fill:#322822;}
	.st305{fill:#231D18;}
	.st306{fill:#483A31;}
	.st307{fill:#302821;}
	.st308{fill:#936E57;}
	.st309{fill:#EEEDEE;}
	.st310{fill:#B9B9B9;}
	.st311{fill:#2B2C2B;}
	.st312{fill:#574033;}
	.st313{fill:#D2CFCE;}
	.st314{fill:#92796B;}
	.st315{fill:#49362B;}
	.st316{fill:#896755;}
	.st317{fill:#D0D1D1;}
	.st318{fill:#494949;}
	.st319{fill:#D8D9D8;}
	.st320{fill:#555554;}
	.st321{fill:#CFCBCA;}
	.st322{fill:#414140;}
	.st323{fill:#C9C9C9;}
	.st324{fill:#B5B5B5;}
	.st325{fill:#F6F6F6;}
	.st326{fill:#FBFCFC;}
	.st327{fill:#B3B3B5;}
	.st328{fill:#F9F9FA;}
	.st329{fill:#0C0A0A;}
	.st330{fill:#2B231E;}
	.st331{fill:url(#SVGID_1_);}
	.st332{fill:#67318E;}
	.st333{fill:#CEEBF3;}
	.st334{fill:none;stroke:#000000;stroke-miterlimit:10;}
	.st335{fill:#663795;}
	.st336{fill:#010101;fill-opacity:0;stroke:#010101;stroke-opacity:0;}
</style>
<g id="Layer_2" class="st0">
</g>
<g id="Layer_1">
	<g>
		<path id="c" class="st3" d="M102.98,29.86c-0.38,0.38-0.77,0.93-0.77,1.44c0,0.93,1.09,2.2,3.1,4.25
			c8.4,8.08,12.61,17.95,12.58,29.86c-0.03,13.19-4.47,23.79-13.09,31.96c-1.82,1.63-2.55,2.91-2.55,3.99
			c0,0.54,0.38,1.09,0.73,1.63c0.35,0.38,1.09,0.73,1.63,0.73c1.98,0,4.79-2.33,8.43-6.93c7.09-8.69,10.28-18.3,10.47-31.36
			c0.16-13.09-3.93-21.97-11.97-31.13c-2.87-3.29-5.3-4.98-6.93-4.98C104.07,29.32,103.49,29.51,102.98,29.86L102.98,29.86z"/>
	</g>
	<g>
		<path id="c_00000118399243953823619010000010312664558509320597_" class="st336" d="M102.98,29.86c-0.38,0.38-0.77,0.93-0.77,1.44
			c0,0.93,1.09,2.2,3.1,4.25c8.4,8.08,12.61,17.95,12.58,29.86c-0.03,13.19-4.47,23.79-13.09,31.96c-1.82,1.63-2.55,2.91-2.55,3.99
			c0,0.54,0.38,1.09,0.73,1.63c0.35,0.38,1.09,0.73,1.63,0.73c1.98,0,4.79-2.33,8.43-6.93c7.09-8.69,10.28-18.3,10.47-31.36
			c0.16-13.09-3.93-21.97-11.97-31.13c-2.87-3.29-5.3-4.98-6.93-4.98C104.07,29.32,103.49,29.51,102.98,29.86L102.98,29.86z"/>
	</g>
	<g>
		<path id="g" class="st3" d="M77.72,67.76c-3.16-0.8,9.77-16.06-13.19-34.33c0,0,3,9.58-12.17,30.94
			c-15.2,21.33,6.74,34.04,6.74,34.04s-10.28-5.49,1.69-25.03c2.14-3.54,4.95-6.74,8.43-13.99c0,0,3.07,4.37,1.47,13.79
			C68.3,87.47,81.14,83.38,81.33,83.57c4.5,5.27-3.7,14.56-4.22,14.85c-0.51,0.29,23.44-14.37,6.42-36.47
			C82.38,63.1,80.88,68.59,77.72,67.76L77.72,67.76z"/>
	</g>
	<g>
		<path id="g_00000077323296681756615690000007723855156097041044_" class="st336" d="M77.72,67.76
			c-3.16-0.8,9.77-16.06-13.19-34.33c0,0,3,9.58-12.17,30.94c-15.2,21.33,6.74,34.04,6.74,34.04s-10.28-5.49,1.69-25.03
			c2.14-3.54,4.95-6.74,8.43-13.99c0,0,3.07,4.37,1.47,13.79C68.3,87.47,81.14,83.38,81.33,83.57c4.5,5.27-3.7,14.56-4.22,14.85
			c-0.51,0.29,23.44-14.37,6.42-36.47C82.38,63.1,80.88,68.59,77.72,67.76L77.72,67.76z"/>
	</g>
	<g>
		<path id="k" class="st3" d="M33.72,29.89c0.38,0.35,0.73,0.89,0.73,1.44c0,0.93-1.09,2.17-3.1,4.22
			c-8.37,8.08-12.58,17.95-12.55,29.89c0.03,13.16,4.47,23.76,13.09,31.96c1.79,1.6,2.55,2.87,2.55,3.96c0,0.54-0.38,1.12-0.73,1.63
			c-0.35,0.38-1.09,0.77-1.63,0.77c-2.01,0-4.79-2.36-8.43-6.96c-7.09-8.69-10.28-18.27-10.47-31.36
			c-0.16-13.09,3.93-21.97,11.97-31.13c2.87-3.26,5.3-4.98,6.93-4.98C32.63,29.32,33.18,29.51,33.72,29.89L33.72,29.89z"/>
	</g>
	<g>
		<path id="k_00000145049427732885969230000006980576579152208318_" class="st336" d="M33.72,29.89c0.38,0.35,0.73,0.89,0.73,1.44
			c0,0.93-1.09,2.17-3.1,4.22c-8.37,8.08-12.58,17.95-12.55,29.89c0.03,13.16,4.47,23.76,13.09,31.96c1.79,1.6,2.55,2.87,2.55,3.96
			c0,0.54-0.38,1.12-0.73,1.63c-0.35,0.38-1.09,0.77-1.63,0.77c-2.01,0-4.79-2.36-8.43-6.96c-7.09-8.69-10.28-18.27-10.47-31.36
			c-0.16-13.09,3.93-21.97,11.97-31.13c2.87-3.26,5.3-4.98,6.93-4.98C32.63,29.32,33.18,29.51,33.72,29.89L33.72,29.89z"/>
	</g>
</g>
</svg>
