<?xml version="1.0" encoding="utf-8"?>
<!-- Generator: Adobe Illustrator 27.0.0, SVG Export Plug-In . SVG Version: 6.00 Build 0)  -->
<svg version="1.1" xmlns="http://www.w3.org/2000/svg" xmlns:xlink="http://www.w3.org/1999/xlink" x="0px" y="0px"
	 viewBox="0 0 408.59 133.07" style="enable-background:new 0 0 408.59 133.07;" xml:space="preserve">
<style type="text/css">
	.st0{fill:#FFFFFF;}
	.st1{fill:#EEC919;}
	.st2{fill:none;stroke:#1D76BB;stroke-width:0.1928;stroke-linecap:round;stroke-linejoin:round;stroke-miterlimit:10;}
	.st3{fill:#28A8E0;}
	.st4{fill:#1D76BB;}
	.st5{fill-rule:evenodd;clip-rule:evenodd;fill:#1668B1;}
	.st6{fill:#797979;}
	.st7{fill:#00A651;}
	.st8{fill:#0B0C0E;}
	.st9{fill:#010101;}
	.st10{fill:#050505;}
	.st11{fill:#020202;}
	.st12{fill:#080A0C;}
	.st13{fill:#0A0B0D;}
	.st14{fill:#080808;}
	.st15{fill:#0F1112;}
	.st16{fill:#101212;}
	.st17{fill:#0E1011;}
	.st18{fill:#A3795F;}
	.st19{fill:#D2AA91;}
	.st20{fill:#060506;}
	.st21{fill:#D1A990;}
	.st22{fill:#060606;}
	.st23{fill:#0B0B0B;}
	.st24{fill:#110F0E;}
	.st25{fill:#D0A891;}
	.st26{fill:#181412;}
	.st27{fill:#BA967F;}
	.st28{fill:#101010;}
	.st29{fill:#1C1715;}
	.st30{fill:#8D7262;}
	.st31{fill:#303230;}
	.st32{fill:#474E47;}
	.st33{fill:#3A453A;}
	.st34{fill:#B7947D;}
	.st35{fill:#5E6C42;}
	.st36{fill:#BC9882;}
	.st37{fill:#BA9680;}
	.st38{fill:#AD8B77;}
	.st39{fill:#A28B70;}
	.st40{fill:#917564;}
	.st41{fill:#7B6555;}
	.st42{fill:#534339;}
	.st43{fill:#56453B;}
	.st44{fill:#D5AB92;}
	.st45{fill:#A3775E;}
	.st46{fill:#A2785E;}
	.st47{fill:#050706;}
	.st48{fill:#0A0808;}
	.st49{fill:#CCA48C;}
	.st50{fill:#090909;}
	.st51{fill:#171412;}
	.st52{fill:#13110F;}
	.st53{fill:#CAA28A;}
	.st54{fill:#C49E87;}
	.st55{fill:#413026;}
	.st56{fill:#1A1614;}
	.st57{fill:#9B7D6B;}
	.st58{fill:#0D0B0B;}
	.st59{fill:#9A6D57;}
	.st60{fill:#EDEBE8;}
	.st61{fill:#8D6751;}
	.st62{fill:#2A2320;}
	.st63{fill:#34261E;}
	.st64{fill:#1B1512;}
	.st65{fill:#362920;}
	.st66{fill:#181A12;}
	.st67{fill:#382920;}
	.st68{fill:#37291F;}
	.st69{fill:#342923;}
	.st70{fill:#575453;}
	.st71{fill:#A2948B;}
	.st72{fill:#1D1715;}
	.st73{fill:#211C18;}
	.st74{fill:#443F3D;}
	.st75{fill:#403F3F;}
	.st76{fill:#5F5E5E;}
	.st77{fill:#1E1E1E;}
	.st78{fill:#553F31;}
	.st79{fill:#B3B3B3;}
	.st80{fill:#46352B;}
	.st81{fill:#83604C;}
	.st82{fill:#0E0F12;}
	.st83{fill:#ECEDED;}
	.st84{fill:#17181A;}
	.st85{fill:#222226;}
	.st86{fill:#BCBCBC;}
	.st87{fill:#DCDCDC;}
	.st88{fill:#262525;}
	.st89{fill:#C29C82;}
	.st90{fill:#09090B;}
	.st91{fill:#030303;}
	.st92{fill:#D2A891;}
	.st93{fill:#040404;}
	.st94{fill:#090A0C;}
	.st95{fill:#070606;}
	.st96{fill:#0B0A0A;}
	.st97{fill:#9E6F58;}
	.st98{fill:#D1A991;}
	.st99{fill:#D1A790;}
	.st100{fill:#080707;}
	.st101{fill:#100E0D;}
	.st102{fill:#D0A68D;}
	.st103{fill:#1B1612;}
	.st104{fill:#CCA38C;}
	.st105{fill:#CAA18A;}
	.st106{fill:#28201B;}
	.st107{fill:#241D18;}
	.st108{fill:#E7E6E5;}
	.st109{fill:#454544;}
	.st110{fill:#1A1817;}
	.st111{fill:#1F1813;}
	.st112{fill:#33251D;}
	.st113{fill:#C29C84;}
	.st114{fill:#C89F87;}
	.st115{fill:#E9E8E8;}
	.st116{fill:#2E211A;}
	.st117{fill:#362E2A;}
	.st118{fill:#292624;}
	.st119{fill:#211913;}
	.st120{fill:#3D3732;}
	.st121{fill:#464646;}
	.st122{fill:#463A31;}
	.st123{fill:#946E56;}
	.st124{fill:#191411;}
	.st125{fill:#E4E4E4;}
	.st126{fill:#2F2823;}
	.st127{fill:#3B2B22;}
	.st128{fill:#252424;}
	.st129{fill:#262320;}
	.st130{fill:#745948;}
	.st131{fill:#333231;}
	.st132{fill:#1E1917;}
	.st133{fill:#46362B;}
	.st134{fill:#1D1613;}
	.st135{fill:#3C2C22;}
	.st136{fill:#3E3834;}
	.st137{fill:#4F4D4D;}
	.st138{fill:#F4F4F4;}
	.st139{fill:#E3E2E0;}
	.st140{fill:#37281F;}
	.st141{fill:#DDDAD9;}
	.st142{fill:#211915;}
	.st143{fill:#3A2D26;}
	.st144{fill:#3E2E23;}
	.st145{fill:#2A1E18;}
	.st146{fill:#E4E2E2;}
	.st147{fill:#D6D3D0;}
	.st148{fill:#4A362B;}
	.st149{fill:#33251E;}
	.st150{fill:#31241D;}
	.st151{fill:#3C2D23;}
	.st152{fill:#3F2E24;}
	.st153{fill:#3D3D3D;}
	.st154{fill:#7D5F4D;}
	.st155{fill:#34251E;}
	.st156{fill:#201F1F;}
	.st157{fill:#CDC5C0;}
	.st158{fill:#161211;}
	.st159{fill:#453932;}
	.st160{fill:#636363;}
	.st161{fill:#B58A71;}
	.st162{fill:#DED7D3;}
	.st163{fill:#656260;}
	.st164{fill:#C8BFBA;}
	.st165{fill:#CCCAC8;}
	.st166{fill:#513B2E;}
	.st167{fill:#D8CBC4;}
	.st168{fill:#382A23;}
	.st169{fill:#E7DFDA;}
	.st170{fill:#30271F;}
	.st171{fill:#A19D9C;}
	.st172{fill:#402F25;}
	.st173{fill:#0D0E10;}
	.st174{fill:#0D0E11;}
	.st175{fill:#0B0B0E;}
	.st176{fill:#0E0F11;}
	.st177{fill:#121316;}
	.st178{fill:#D3D3D3;}
	.st179{fill:#17181C;}
	.st180{fill:#2B2D2F;}
	.st181{fill:#DBDADA;}
	.st182{fill:#2B2B2F;}
	.st183{fill:#252629;}
	.st184{fill:#4C4E50;}
	.st185{fill:#636466;}
	.st186{fill:#2B2C2E;}
	.st187{fill:#1C1D21;}
	.st188{fill:#7B7B7D;}
	.st189{fill:#BABABA;}
	.st190{fill:#505153;}
	.st191{fill:#929394;}
	.st192{fill:#5C5E60;}
	.st193{fill:#393B3D;}
	.st194{fill:#100F0E;}
	.st195{fill:#191514;}
	.st196{fill:#1C1A19;}
	.st197{fill:#2B2725;}
	.st198{fill:#D5E9D6;}
	.st199{fill:#151312;}
	.st200{fill:#161311;}
	.st201{fill:#252624;}
	.st202{fill:#282828;}
	.st203{fill:#1B1B1B;}
	.st204{fill:#434140;}
	.st205{fill:#272626;}
	.st206{fill:#424242;}
	.st207{fill:#303030;}
	.st208{fill:#4D4D4D;}
	.st209{fill:#4B4B4B;}
	.st210{fill:#656565;}
	.st211{fill:#0F0F0E;}
	.st212{fill:#0C0B0B;}
	.st213{fill:#111111;}
	.st214{fill:#D3AA92;}
	.st215{fill:#F5F6F6;}
	.st216{fill:#343434;}
	.st217{fill:#565656;}
	.st218{fill:#3E3E3E;}
	.st219{fill:#CDC0B7;}
	.st220{fill:#272727;}
	.st221{fill:#0A0909;}
	.st222{fill:#141211;}
	.st223{fill:#3D322A;}
	.st224{fill:#D0A78E;}
	.st225{fill:#211E1C;}
	.st226{fill:#D0A68E;}
	.st227{fill:#221B18;}
	.st228{fill:#CAA188;}
	.st229{fill:#31231B;}
	.st230{fill:#271D17;}
	.st231{fill:#282320;}
	.st232{fill:#E9E7E6;}
	.st233{fill:#3A2B21;}
	.st234{fill:#3B3734;}
	.st235{fill:#31241C;}
	.st236{fill:#966F57;}
	.st237{fill:#443227;}
	.st238{fill:#4F3A2E;}
	.st239{fill:#2F2925;}
	.st240{fill:#2C211C;}
	.st241{fill:#1F1712;}
	.st242{fill:#48362A;}
	.st243{fill:#241D19;}
	.st244{fill:#312C29;}
	.st245{fill:#735442;}
	.st246{fill:#4D392D;}
	.st247{fill:#26211E;}
	.st248{fill:#523E32;}
	.st249{fill:#583E31;}
	.st250{fill:#D3CECB;}
	.st251{fill:#946A53;}
	.st252{fill:#3D2E26;}
	.st253{fill:#433227;}
	.st254{fill:#4A372B;}
	.st255{fill:#8B6751;}
	.st256{fill:#090808;}
	.st257{fill:#594234;}
	.st258{fill:#3C2F28;}
	.st259{fill:#8D6852;}
	.st260{fill:#4C382C;}
	.st261{fill:#563E31;}
	.st262{fill:#563F32;}
	.st263{fill:#533D30;}
	.st264{fill:#5D4536;}
	.st265{fill:#483529;}
	.st266{fill:#423126;}
	.st267{fill:#564032;}
	.st268{fill:#614738;}
	.st269{fill:#4A4949;}
	.st270{fill:#424241;}
	.st271{fill:#616262;}
	.st272{fill:#6A6A6A;}
	.st273{fill:#505050;}
	.st274{fill:#575757;}
	.st275{fill:#5D5D5D;}
	.st276{fill:#606060;}
	.st277{fill:#484645;}
	.st278{fill:#595959;}
	.st279{fill:#727171;}
	.st280{fill:#E2E2E2;}
	.st281{fill:#525252;}
	.st282{fill:#5E5E5E;}
	.st283{fill:#C0BFBF;}
	.st284{fill:#5E5F5F;}
	.st285{fill:#423733;}
	.st286{fill:#464645;}
	.st287{fill:#444444;}
	.st288{fill:#D9D9DA;}
	.st289{fill:#6D6E6E;}
	.st290{fill:#333333;}
	.st291{fill:#373737;}
	.st292{fill:#666666;}
	.st293{fill:#434343;}
	.st294{fill:#787878;}
	.st295{fill:#313132;}
	.st296{fill:#3F3F3F;}
	.st297{fill:#2B2B2C;}
	.st298{fill:#939393;}
	.st299{fill:#322822;}
	.st300{fill:#231D18;}
	.st301{fill:#483A31;}
	.st302{fill:#302821;}
	.st303{fill:#936E57;}
	.st304{fill:#EEEDEE;}
	.st305{fill:#B9B9B9;}
	.st306{fill:#2B2C2B;}
	.st307{fill:#574033;}
	.st308{fill:#D2CFCE;}
	.st309{fill:#92796B;}
	.st310{fill:#49362B;}
	.st311{fill:#896755;}
	.st312{fill:#D0D1D1;}
	.st313{fill:#494949;}
	.st314{fill:#D8D9D8;}
	.st315{fill:#555554;}
	.st316{fill:#CFCBCA;}
	.st317{fill:#414140;}
	.st318{fill:#C9C9C9;}
	.st319{fill:#B5B5B5;}
	.st320{fill:#F6F6F6;}
	.st321{fill:#FBFCFC;}
	.st322{fill:#B3B3B5;}
	.st323{fill:#F9F9FA;}
	.st324{fill:#0C0A0A;}
	.st325{fill:#2B231E;}
	.st326{fill:url(#SVGID_1_);}
	.st327{fill:#67318E;}
	.st328{fill:#F15A29;}
	.st329{fill:#4853A4;}
	.st330{fill:none;stroke:#000000;stroke-miterlimit:10;}
	.st331{fill:none;}
	.st332{fill:#663795;}
</style>
<g id="Layer_2">
</g>
<g id="Layer_1">
	<g>
		<path class="st0" d="M13.04,127.89c-4.1-3.45-6.14-7.99-6.14-13.6c0-3.5,0.83-6.72,2.48-9.66s3.91-5.27,6.76-6.97
			c2.85-1.7,5.98-2.55,9.39-2.55c3.5,0,6.33,0.88,8.49,2.62c2.16,1.75,3.24,4.05,3.24,6.9c0,2.21-0.51,3.96-1.52,5.25
			c-0.83-1.1-1.96-1.98-3.38-2.62c-1.43-0.65-2.92-0.97-4.49-0.97c-2.76,0-5.02,0.92-6.76,2.76c-1.75,1.84-2.62,4.23-2.62,7.18
			c0,2.94,0.85,5.34,2.55,7.18c1.7,1.84,3.84,2.76,6.42,2.76c3.22,0,5.98-1.43,8.28-4.28c2.3-2.85,4.05-7.09,5.25-12.7l6.9-30.51
			h-0.55c-2.48,3.5-5.5,6.17-9.04,8.01c-3.54,1.84-7.43,2.76-11.66,2.76c-5.34,0-10.03-1.43-14.08-4.28
			c-4.05-2.85-7.16-6.92-9.32-12.22C1.08,67.66,0,61.52,0,54.52C0,44.4,2.21,35.18,6.63,26.85c4.42-8.33,10.49-14.88,18.22-19.67
			C32.58,2.39,41.09,0,50.38,0c7.82,0,14.01,1.7,18.57,5.11c4.56,3.41,6.83,8.05,6.83,13.94c0,3.96-0.97,7.13-2.9,9.52
			c-1.93,2.39-4.46,3.59-7.59,3.59c-1.75,0-3.38-0.37-4.9-1.1c-1.52-0.74-2.78-1.79-3.8-3.17c1.66-1.1,3.06-2.88,4.21-5.31
			c1.15-2.44,1.73-4.9,1.73-7.38c0-2.76-0.81-4.9-2.42-6.42c-1.61-1.52-3.89-2.28-6.83-2.28c-5.34,0-10.49,2.37-15.46,7.11
			c-4.97,4.74-8.97,10.93-12.01,18.57c-3.04,7.64-4.56,15.65-4.56,24.02c0,6.9,1.1,12.17,3.31,15.81c2.21,3.64,5.38,5.45,9.52,5.45
			c4.97,0,9.36-2.62,13.18-7.87c3.82-5.25,6.88-12.88,9.18-22.91l16.29,0.14L62.67,93.18c-2.95,13.71-7.11,23.79-12.49,30.23
			c-5.38,6.44-12.35,9.66-20.91,9.66C22.55,133.07,17.14,131.34,13.04,127.89z"/>
		<path class="st0" d="M80.13,101.18c-2.72-2.76-4.07-6.9-4.07-12.42c0-2.3,0.37-5.29,1.1-8.97l9.39-44.31h19.88l-9.94,46.93
			c-0.37,1.38-0.55,2.85-0.55,4.42c0,1.84,0.44,3.15,1.31,3.93c0.87,0.78,2.32,1.17,4.35,1.17c2.67,0,5.15-1.13,7.45-3.38
			c2.3-2.25,3.96-5.18,4.97-8.77h5.8c-3.41,9.94-7.78,16.68-13.11,20.22c-5.34,3.54-10.63,5.31-15.87,5.31
			C86.41,105.32,82.84,103.94,80.13,101.18z"/>
		<path class="st0" d="M116.98,101.18c-2.72-2.76-4.07-6.9-4.07-12.42c0-2.3,0.37-5.29,1.1-8.97l14.77-69.16l20.43-2.76
			l-15.87,74.54c-0.37,1.38-0.55,2.85-0.55,4.42c0,1.84,0.44,3.15,1.31,3.93c0.87,0.78,2.32,1.17,4.35,1.17
			c2.67,0,5.15-1.13,7.45-3.38c2.3-2.25,3.96-5.18,4.97-8.77h5.8c-3.41,9.94-7.78,16.68-13.11,20.22
			c-5.34,3.54-10.63,5.31-15.87,5.31C123.27,105.32,119.7,103.94,116.98,101.18z"/>
		<path class="st0" d="M154.88,100.7c-3.31-3.08-4.97-7.43-4.97-13.05c0-2.76,0.32-5.38,0.97-7.87l14.77-69.16l20.43-2.76
			l-6.62,31.06c2.58-1.56,4.69-2.6,6.35-3.11c1.66-0.5,3.31-0.76,4.97-0.76c10.86,0,16.29,7.87,16.29,23.6
			c0,6.35-1.22,13.14-3.66,20.36c-2.44,7.23-6.49,13.41-12.15,18.57c-5.66,5.16-13,7.73-22.02,7.73
			C162.97,105.32,158.19,103.78,154.88,100.7z M184.97,86.62c2.48-3.54,4.46-7.96,5.94-13.25c1.47-5.29,2.21-10.37,2.21-15.25
			c0-3.68-0.64-6.81-1.93-9.39c-1.29-2.58-3.08-3.87-5.38-3.87c-1.38,0-2.92,0.21-4.62,0.62s-2.88,1.04-3.52,1.86l-7.59,35.06
			c-0.28,1.1-0.41,2.16-0.41,3.17c0,4.23,2.44,6.35,7.32,6.35C179.81,91.93,182.48,90.16,184.97,86.62z"/>
		<path class="st0" d="M216.02,100.01c-3.77-3.54-5.66-9.09-5.66-16.63c0-6.35,1.24-13.34,3.73-20.98
			c2.48-7.64,6.53-14.24,12.15-19.81c5.61-5.57,12.74-8.35,21.4-8.35c10.12,0,15.18,4.42,15.18,13.25c0,5.15-1.47,9.89-4.42,14.22
			c-2.95,4.33-6.86,7.8-11.73,10.42c-4.88,2.62-10.08,4.12-15.6,4.49c-0.19,2.76-0.28,4.6-0.28,5.52c0,4.51,0.78,7.57,2.35,9.18
			c1.56,1.61,4.09,2.42,7.59,2.42c4.97,0,9.22-1.15,12.77-3.45c3.54-2.3,7.43-5.8,11.67-10.49h4.69
			c-10.21,17.03-22.87,25.54-37.96,25.54C225.09,105.32,219.8,103.55,216.02,100.01z M241.91,66.4c3.08-2.21,5.57-5.01,7.45-8.42
			c1.88-3.4,2.83-6.99,2.83-10.77c0-3.77-1.15-5.66-3.45-5.66c-3.31,0-6.56,2.9-9.73,8.7c-3.17,5.8-5.45,12.38-6.83,19.74
			C235.58,69.8,238.82,68.6,241.91,66.4z"/>
		<path class="st0" d="M274.55,35.48h19.88l-1.79,8.56c3.13-2.76,5.96-4.88,8.49-6.35c2.53-1.47,5.27-2.21,8.21-2.21
			c2.94,0,5.27,1.01,6.97,3.04c1.7,2.03,2.55,4.46,2.55,7.32c0,2.67-0.88,5.02-2.62,7.04c-1.75,2.03-4.19,3.04-7.32,3.04
			c-2.03,0-3.38-0.48-4.07-1.45c-0.69-0.97-1.22-2.37-1.59-4.21c-0.28-1.2-0.55-2.07-0.83-2.62c-0.28-0.55-0.78-0.83-1.52-0.83
			c-1.93,0-3.57,0.39-4.9,1.17c-1.33,0.78-3.06,2.14-5.18,4.07L279.8,104.5h-19.88L274.55,35.48z"/>
		<path class="st0" d="M319.62,101.04c-2.26-2.85-3.38-6.63-3.38-11.32c0-2.39,0.28-4.83,0.83-7.32L325.9,41h-4.55l1.1-5.52H327
			l4.14-19.05l20.43-2.76c-0.83,3.5-1.29,5.57-1.38,6.21c-0.64,2.58-1.75,7.78-3.31,15.6h8.28l-1.1,5.52h-8.28l-8.83,41.41
			c-0.46,2.03-0.69,3.64-0.69,4.83c0,3.31,1.61,4.97,4.83,4.97c1.66,0,2.85-0.14,3.59-0.41c-1.84,5.34-4,8.93-6.49,10.77
			c-2.49,1.84-5.2,2.76-8.14,2.76C325.35,105.32,321.87,103.9,319.62,101.04z"/>
		<path class="st1" d="M371.48,103.65c-4.19-4.18-6.28-9.28-6.28-15.28c0-6,2.09-11.14,6.28-15.42c4.18-4.27,9.28-6.41,15.28-6.41
			s11.14,2.14,15.42,6.41c4.27,4.28,6.41,9.42,6.41,15.42c0,6-2.14,11.1-6.41,15.28c-4.28,4.19-9.42,6.28-15.42,6.28
			S375.66,107.84,371.48,103.65z"/>
	</g>
</g>
</svg>
