<?xml version="1.0" encoding="utf-8"?>
<!-- Generator: Adobe Illustrator 27.0.0, SVG Export Plug-In . SVG Version: 6.00 Build 0)  -->
<svg version="1.1" id="Layer_1" xmlns="http://www.w3.org/2000/svg" xmlns:xlink="http://www.w3.org/1999/xlink" x="0px" y="0px"
	 viewBox="0 0 136.7 133.1" style="enable-background:new 0 0 136.7 133.1;" xml:space="preserve">
<style type="text/css">
	.st0{display:none;}
	.st1{display:inline;fill:#BCBCBC;}
	.st2{display:inline;fill:#E91A25;}
	.st3{fill:#FFFFFF;}
	.st4{fill:#ECBF32;}
	.st5{fill:#6E6E6E;}
	.st6{fill:#ED4E2B;}
	.st7{fill:#3F4C97;}
	.st8{fill:#EFC900;}
	.st9{fill-rule:evenodd;clip-rule:evenodd;fill:#EFC900;}
	.st10{fill:#040404;fill-opacity:0;stroke:#040404;stroke-opacity:0;}
</style>
<g id="Layer_2_00000129908810263707168760000016690468477625576619_" class="st0">
	<rect x="0.8" y="13.4" class="st1" width="136.7" height="133.1"/>
</g>
<g>
	<path class="st8" d="M88.4,46.6c-1.2-7.8-10.3-5.5-15.1-4.5c-1.1,0.2-2.3,0.6-3.8,1c-0.5-0.7-1.4-1.7-3-1.9l0.6-4
		c0.5,0,0.9-0.5,0.8-1c0-0.5-0.5-0.9-1-0.8c-0.5,0-0.9,0.5-0.8,1c0,0.3,0.2,0.6,0.4,0.7L66,41.2c-0.4,0-0.8,0.1-1.3,0.2
		c-0.8,0.3-1.5,0.6-2,0.9l-1.5-1.6c0.1-0.2,0.1-0.3,0.1-0.6c0-0.5-0.5-0.9-1-0.8c-0.5,0-0.9,0.5-0.8,1c0,0.5,0.5,0.9,1,0.8
		c0.1,0,0.2,0,0.3-0.1l1.4,1.6c-1.4,1.1-1.5,2.6-1.5,3.3c-3.2,1.2-6.2,2.5-8.4,3.8c-4.2,2.4-4.9,4.4-4.4,6.2
		c0.4,1.3,2.8,12.1,4.5,14.7c1.7,2.6,2.7,2.9,5.9,2.9h1.6c4.4-0.1,13.8-0.6,17.3-1.7c1-0.3,1.9-0.5,2.6-0.7l1.5-0.5
		c1.4-0.6,2.5-1.3,3.5-2.6C86.7,65.7,89.6,54.3,88.4,46.6z M87.4,52.2c0,0.1-0.1,0.2-0.2,0.2L82,53c-0.1,0-0.2-0.1-0.2-0.2
		c0-0.1,0.1-0.2,0.2-0.2l5.2-0.6C87.3,52,87.4,52.1,87.4,52.2z M87.2,51.7l-5.2,0.6c-0.1,0-0.2-0.1-0.2-0.2c0-0.1,0.1-0.2,0.2-0.2
		l5.2-0.6c0.1,0,0.2,0.1,0.2,0.2C87.3,51.7,87.3,51.7,87.2,51.7z M87.1,51l-5.2,0.6c-0.1,0-0.2-0.1-0.2-0.2c0-0.1,0.1-0.2,0.2-0.2
		l5.2-0.6c0.1,0,0.2,0.1,0.2,0.2C87.3,51,87.2,51,87.1,51z M87,50.3L81.8,51c-0.1,0-0.2-0.1-0.2-0.2c0-0.1,0.1-0.2,0.2-0.2l5.2-0.6
		c0.1,0,0.2,0.1,0.2,0.2C87.2,50.3,87.1,50.3,87,50.3z M86.9,49.7l-5.2,0.6c-0.1,0-0.2-0.1-0.2-0.2c0-0.1,0.1-0.2,0.2-0.2l5.2-0.6
		c0.1,0,0.2,0.1,0.2,0.2C87.1,49.6,87,49.7,86.9,49.7z M81.6,49.1l5.2-0.6c0.1,0,0.2,0.1,0.2,0.2c0,0.1-0.1,0.2-0.2,0.2l-5.2,0.6
		c-0.1,0-0.2-0.1-0.2-0.2C81.4,49.3,81.5,49.2,81.6,49.1z M76.6,69.7c-2.8,1.9-14.7,2.5-16.4,2.5c-1.7,0-3.5,0.3-5.5-2
		c-2-2.3-3.9-10.8-4.6-13.9c-0.7-3.1,2.9-5.1,6-6.5c0,0,6.8-2.9,15.4-4.4c3.2-0.5,8.6-0.8,9.3,5C81.5,56.3,79.3,67.7,76.6,69.7z
		 M82.7,65.9c-0.7,0.1-1.4-0.4-1.5-1.2c-0.1-0.7,0.4-1.4,1.2-1.5c0.7-0.1,1.4,0.4,1.5,1.2C84,65.2,83.4,65.9,82.7,65.9z M83.8,62.1
		c-0.7,0.1-1.4-0.4-1.5-1.2s0.4-1.4,1.2-1.5c0.7-0.1,1.4,0.4,1.5,1.2C85.1,61.4,84.6,62,83.8,62.1z M87.3,53.1l-5.2,0.6
		c-0.1,0-0.2-0.1-0.2-0.2c0-0.1,0.1-0.2,0.2-0.2l5.2-0.6c0.1,0,0.2,0.1,0.2,0.2C87.5,53,87.4,53.1,87.3,53.1z"/>
	<path class="st8" d="M58.8,76.7v38.4H48.1V99h-3.2v16.1H34.2V76.7h10.7v13.7h3.2V76.7H58.8z"/>
	<path class="st8" d="M103,76.4v38.4h-9.4l-5.6-17.5v17.5h-8.9V76.4h8.9l6,17.3V76.4H103z"/>
	<polygon class="st8" points="74.9,115 64,115 64,73 74.9,71.4 	"/>
</g>
</svg>
