<?xml version="1.0" encoding="utf-8"?>
<!-- Generator: Adobe Illustrator 27.0.0, SVG Export Plug-In . SVG Version: 6.00 Build 0)  -->
<svg version="1.1" xmlns="http://www.w3.org/2000/svg" xmlns:xlink="http://www.w3.org/1999/xlink" x="0px" y="0px"
	 viewBox="0 0 136.7 133.07" style="enable-background:new 0 0 136.7 133.07;" xml:space="preserve">
<style type="text/css">
	.st0{fill:#FFFFFF;}
	.st1{fill:#EEC919;}
	.st2{fill:none;stroke:#1D76BB;stroke-width:0.1928;stroke-linecap:round;stroke-linejoin:round;stroke-miterlimit:10;}
	.st3{fill:#28A8E0;}
	.st4{fill:#1D76BB;}
	.st5{fill-rule:evenodd;clip-rule:evenodd;fill:#1668B1;}
	.st6{fill:#797979;}
	.st7{fill:#00A651;}
	.st8{fill:#0B0C0E;}
	.st9{fill:#010101;}
	.st10{fill:#050505;}
	.st11{fill:#020202;}
	.st12{fill:#080A0C;}
	.st13{fill:#0A0B0D;}
	.st14{fill:#080808;}
	.st15{fill:#0F1112;}
	.st16{fill:#101212;}
	.st17{fill:#0E1011;}
	.st18{fill:#A3795F;}
	.st19{fill:#D2AA91;}
	.st20{fill:#060506;}
	.st21{fill:#D1A990;}
	.st22{fill:#060606;}
	.st23{fill:#0B0B0B;}
	.st24{fill:#110F0E;}
	.st25{fill:#D0A891;}
	.st26{fill:#181412;}
	.st27{fill:#BA967F;}
	.st28{fill:#101010;}
	.st29{fill:#1C1715;}
	.st30{fill:#8D7262;}
	.st31{fill:#303230;}
	.st32{fill:#474E47;}
	.st33{fill:#3A453A;}
	.st34{fill:#B7947D;}
	.st35{fill:#5E6C42;}
	.st36{fill:#BC9882;}
	.st37{fill:#BA9680;}
	.st38{fill:#AD8B77;}
	.st39{fill:#A28B70;}
	.st40{fill:#917564;}
	.st41{fill:#7B6555;}
	.st42{fill:#534339;}
	.st43{fill:#56453B;}
	.st44{fill:#D5AB92;}
	.st45{fill:#A3775E;}
	.st46{fill:#A2785E;}
	.st47{fill:#050706;}
	.st48{fill:#0A0808;}
	.st49{fill:#CCA48C;}
	.st50{fill:#090909;}
	.st51{fill:#171412;}
	.st52{fill:#13110F;}
	.st53{fill:#CAA28A;}
	.st54{fill:#C49E87;}
	.st55{fill:#413026;}
	.st56{fill:#1A1614;}
	.st57{fill:#9B7D6B;}
	.st58{fill:#0D0B0B;}
	.st59{fill:#9A6D57;}
	.st60{fill:#EDEBE8;}
	.st61{fill:#8D6751;}
	.st62{fill:#2A2320;}
	.st63{fill:#34261E;}
	.st64{fill:#1B1512;}
	.st65{fill:#362920;}
	.st66{fill:#181A12;}
	.st67{fill:#382920;}
	.st68{fill:#37291F;}
	.st69{fill:#342923;}
	.st70{fill:#575453;}
	.st71{fill:#A2948B;}
	.st72{fill:#1D1715;}
	.st73{fill:#211C18;}
	.st74{fill:#443F3D;}
	.st75{fill:#403F3F;}
	.st76{fill:#5F5E5E;}
	.st77{fill:#1E1E1E;}
	.st78{fill:#553F31;}
	.st79{fill:#B3B3B3;}
	.st80{fill:#46352B;}
	.st81{fill:#83604C;}
	.st82{fill:#0E0F12;}
	.st83{fill:#ECEDED;}
	.st84{fill:#17181A;}
	.st85{fill:#222226;}
	.st86{fill:#BCBCBC;}
	.st87{fill:#DCDCDC;}
	.st88{fill:#262525;}
	.st89{fill:#C29C82;}
	.st90{fill:#09090B;}
	.st91{fill:#030303;}
	.st92{fill:#D2A891;}
	.st93{fill:#040404;}
	.st94{fill:#090A0C;}
	.st95{fill:#070606;}
	.st96{fill:#0B0A0A;}
	.st97{fill:#9E6F58;}
	.st98{fill:#D1A991;}
	.st99{fill:#D1A790;}
	.st100{fill:#080707;}
	.st101{fill:#100E0D;}
	.st102{fill:#D0A68D;}
	.st103{fill:#1B1612;}
	.st104{fill:#CCA38C;}
	.st105{fill:#CAA18A;}
	.st106{fill:#28201B;}
	.st107{fill:#241D18;}
	.st108{fill:#E7E6E5;}
	.st109{fill:#454544;}
	.st110{fill:#1A1817;}
	.st111{fill:#1F1813;}
	.st112{fill:#33251D;}
	.st113{fill:#C29C84;}
	.st114{fill:#C89F87;}
	.st115{fill:#E9E8E8;}
	.st116{fill:#2E211A;}
	.st117{fill:#362E2A;}
	.st118{fill:#292624;}
	.st119{fill:#211913;}
	.st120{fill:#3D3732;}
	.st121{fill:#464646;}
	.st122{fill:#463A31;}
	.st123{fill:#946E56;}
	.st124{fill:#191411;}
	.st125{fill:#E4E4E4;}
	.st126{fill:#2F2823;}
	.st127{fill:#3B2B22;}
	.st128{fill:#252424;}
	.st129{fill:#262320;}
	.st130{fill:#745948;}
	.st131{fill:#333231;}
	.st132{fill:#1E1917;}
	.st133{fill:#46362B;}
	.st134{fill:#1D1613;}
	.st135{fill:#3C2C22;}
	.st136{fill:#3E3834;}
	.st137{fill:#4F4D4D;}
	.st138{fill:#F4F4F4;}
	.st139{fill:#E3E2E0;}
	.st140{fill:#37281F;}
	.st141{fill:#DDDAD9;}
	.st142{fill:#211915;}
	.st143{fill:#3A2D26;}
	.st144{fill:#3E2E23;}
	.st145{fill:#2A1E18;}
	.st146{fill:#E4E2E2;}
	.st147{fill:#D6D3D0;}
	.st148{fill:#4A362B;}
	.st149{fill:#33251E;}
	.st150{fill:#31241D;}
	.st151{fill:#3C2D23;}
	.st152{fill:#3F2E24;}
	.st153{fill:#3D3D3D;}
	.st154{fill:#7D5F4D;}
	.st155{fill:#34251E;}
	.st156{fill:#201F1F;}
	.st157{fill:#CDC5C0;}
	.st158{fill:#161211;}
	.st159{fill:#453932;}
	.st160{fill:#636363;}
	.st161{fill:#B58A71;}
	.st162{fill:#DED7D3;}
	.st163{fill:#656260;}
	.st164{fill:#C8BFBA;}
	.st165{fill:#CCCAC8;}
	.st166{fill:#513B2E;}
	.st167{fill:#D8CBC4;}
	.st168{fill:#382A23;}
	.st169{fill:#E7DFDA;}
	.st170{fill:#30271F;}
	.st171{fill:#A19D9C;}
	.st172{fill:#402F25;}
	.st173{fill:#0D0E10;}
	.st174{fill:#0D0E11;}
	.st175{fill:#0B0B0E;}
	.st176{fill:#0E0F11;}
	.st177{fill:#121316;}
	.st178{fill:#D3D3D3;}
	.st179{fill:#17181C;}
	.st180{fill:#2B2D2F;}
	.st181{fill:#DBDADA;}
	.st182{fill:#2B2B2F;}
	.st183{fill:#252629;}
	.st184{fill:#4C4E50;}
	.st185{fill:#636466;}
	.st186{fill:#2B2C2E;}
	.st187{fill:#1C1D21;}
	.st188{fill:#7B7B7D;}
	.st189{fill:#BABABA;}
	.st190{fill:#505153;}
	.st191{fill:#929394;}
	.st192{fill:#5C5E60;}
	.st193{fill:#393B3D;}
	.st194{fill:#100F0E;}
	.st195{fill:#191514;}
	.st196{fill:#1C1A19;}
	.st197{fill:#2B2725;}
	.st198{fill:#D5E9D6;}
	.st199{fill:#151312;}
	.st200{fill:#161311;}
	.st201{fill:#252624;}
	.st202{fill:#282828;}
	.st203{fill:#1B1B1B;}
	.st204{fill:#434140;}
	.st205{fill:#272626;}
	.st206{fill:#424242;}
	.st207{fill:#303030;}
	.st208{fill:#4D4D4D;}
	.st209{fill:#4B4B4B;}
	.st210{fill:#656565;}
	.st211{fill:#0F0F0E;}
	.st212{fill:#0C0B0B;}
	.st213{fill:#111111;}
	.st214{fill:#D3AA92;}
	.st215{fill:#F5F6F6;}
	.st216{fill:#343434;}
	.st217{fill:#565656;}
	.st218{fill:#3E3E3E;}
	.st219{fill:#CDC0B7;}
	.st220{fill:#272727;}
	.st221{fill:#0A0909;}
	.st222{fill:#141211;}
	.st223{fill:#3D322A;}
	.st224{fill:#D0A78E;}
	.st225{fill:#211E1C;}
	.st226{fill:#D0A68E;}
	.st227{fill:#221B18;}
	.st228{fill:#CAA188;}
	.st229{fill:#31231B;}
	.st230{fill:#271D17;}
	.st231{fill:#282320;}
	.st232{fill:#E9E7E6;}
	.st233{fill:#3A2B21;}
	.st234{fill:#3B3734;}
	.st235{fill:#31241C;}
	.st236{fill:#966F57;}
	.st237{fill:#443227;}
	.st238{fill:#4F3A2E;}
	.st239{fill:#2F2925;}
	.st240{fill:#2C211C;}
	.st241{fill:#1F1712;}
	.st242{fill:#48362A;}
	.st243{fill:#241D19;}
	.st244{fill:#312C29;}
	.st245{fill:#735442;}
	.st246{fill:#4D392D;}
	.st247{fill:#26211E;}
	.st248{fill:#523E32;}
	.st249{fill:#583E31;}
	.st250{fill:#D3CECB;}
	.st251{fill:#946A53;}
	.st252{fill:#3D2E26;}
	.st253{fill:#433227;}
	.st254{fill:#4A372B;}
	.st255{fill:#8B6751;}
	.st256{fill:#090808;}
	.st257{fill:#594234;}
	.st258{fill:#3C2F28;}
	.st259{fill:#8D6852;}
	.st260{fill:#4C382C;}
	.st261{fill:#563E31;}
	.st262{fill:#563F32;}
	.st263{fill:#533D30;}
	.st264{fill:#5D4536;}
	.st265{fill:#483529;}
	.st266{fill:#423126;}
	.st267{fill:#564032;}
	.st268{fill:#614738;}
	.st269{fill:#4A4949;}
	.st270{fill:#424241;}
	.st271{fill:#616262;}
	.st272{fill:#6A6A6A;}
	.st273{fill:#505050;}
	.st274{fill:#575757;}
	.st275{fill:#5D5D5D;}
	.st276{fill:#606060;}
	.st277{fill:#484645;}
	.st278{fill:#595959;}
	.st279{fill:#727171;}
	.st280{fill:#E2E2E2;}
	.st281{fill:#525252;}
	.st282{fill:#5E5E5E;}
	.st283{fill:#C0BFBF;}
	.st284{fill:#5E5F5F;}
	.st285{fill:#423733;}
	.st286{fill:#464645;}
	.st287{fill:#444444;}
	.st288{fill:#D9D9DA;}
	.st289{fill:#6D6E6E;}
	.st290{fill:#333333;}
	.st291{fill:#373737;}
	.st292{fill:#666666;}
	.st293{fill:#434343;}
	.st294{fill:#787878;}
	.st295{fill:#313132;}
	.st296{fill:#3F3F3F;}
	.st297{fill:#2B2B2C;}
	.st298{fill:#939393;}
	.st299{fill:#322822;}
	.st300{fill:#231D18;}
	.st301{fill:#483A31;}
	.st302{fill:#302821;}
	.st303{fill:#936E57;}
	.st304{fill:#EEEDEE;}
	.st305{fill:#B9B9B9;}
	.st306{fill:#2B2C2B;}
	.st307{fill:#574033;}
	.st308{fill:#D2CFCE;}
	.st309{fill:#92796B;}
	.st310{fill:#49362B;}
	.st311{fill:#896755;}
	.st312{fill:#D0D1D1;}
	.st313{fill:#494949;}
	.st314{fill:#D8D9D8;}
	.st315{fill:#555554;}
	.st316{fill:#CFCBCA;}
	.st317{fill:#414140;}
	.st318{fill:#C9C9C9;}
	.st319{fill:#B5B5B5;}
	.st320{fill:#F6F6F6;}
	.st321{fill:#FBFCFC;}
	.st322{fill:#B3B3B5;}
	.st323{fill:#F9F9FA;}
	.st324{fill:#0C0A0A;}
	.st325{fill:#2B231E;}
	.st326{fill:url(#SVGID_1_);}
	.st327{fill:#67318E;}
	.st328{fill:#F15A29;}
	.st329{fill:#4853A4;}
	.st330{fill:none;stroke:#000000;stroke-miterlimit:10;}
	.st331{fill:none;}
	.st332{fill:#663795;}
</style>
<g id="Layer_2">
</g>
<g id="Layer_1">
	<g>
		<path class="st332" d="M84.96,30.69c-1.22-7.79-10.31-5.53-15.15-4.48c-1.05,0.22-2.31,0.57-3.76,0.96
			c-0.48-0.74-1.44-1.74-2.97-1.91l0.61-4c0.48-0.04,0.87-0.52,0.79-1c-0.04-0.48-0.52-0.87-1-0.78c-0.48,0.04-0.87,0.52-0.79,1
			c0.04,0.3,0.22,0.57,0.44,0.7l-0.61,4.13c-0.39,0-0.83,0.09-1.31,0.22c-0.83,0.26-1.48,0.57-2.01,0.91l-1.48-1.65
			c0.09-0.17,0.13-0.35,0.13-0.57c-0.04-0.48-0.52-0.87-1-0.78c-0.48,0.04-0.87,0.52-0.79,1c0.04,0.48,0.52,0.87,1,0.78
			c0.09,0,0.17-0.04,0.26-0.09l1.44,1.61c-1.35,1.13-1.53,2.57-1.53,3.35c-3.19,1.18-6.24,2.52-8.43,3.83
			c-4.24,2.39-4.85,4.44-4.37,6.27c0.35,1.35,2.79,12.19,4.5,14.8c1.66,2.57,2.66,2.92,5.85,2.96h1.62
			c4.37-0.09,13.76-0.65,17.34-1.7c1-0.3,1.88-0.52,2.62-0.74l1.53-0.52c1.44-0.57,2.49-1.26,3.49-2.65
			C83.22,49.93,86.19,38.48,84.96,30.69z M84,36.35c0,0.13-0.09,0.22-0.17,0.22l-5.24,0.61c-0.13,0-0.22-0.09-0.22-0.17
			c0-0.13,0.09-0.22,0.17-0.22l5.24-0.61C83.87,36.13,83.96,36.22,84,36.35z M83.74,35.87l-5.24,0.61c-0.13,0-0.22-0.09-0.22-0.17
			c0-0.13,0.09-0.22,0.17-0.22l5.24-0.61c0.13,0,0.22,0.09,0.22,0.17C83.91,35.79,83.83,35.87,83.74,35.87z M83.65,35.18l-5.24,0.61
			c-0.13,0-0.22-0.09-0.22-0.17c0-0.13,0.09-0.22,0.17-0.22l5.24-0.61c0.13,0,0.22,0.09,0.22,0.17
			C83.83,35.09,83.74,35.18,83.65,35.18z M83.57,34.48l-5.24,0.61c-0.13,0-0.22-0.09-0.22-0.17c0-0.13,0.09-0.22,0.17-0.22
			l5.24-0.61c0.13,0,0.22,0.09,0.22,0.17C83.78,34.39,83.7,34.48,83.57,34.48z M83.48,33.78l-5.24,0.61c-0.13,0-0.22-0.09-0.22-0.17
			c0-0.13,0.09-0.22,0.17-0.22l5.24-0.61c0.13,0,0.22,0.09,0.22,0.17C83.7,33.7,83.61,33.78,83.48,33.78z M78.15,33.26l5.24-0.61
			c0.13,0,0.22,0.09,0.22,0.17c0,0.13-0.09,0.22-0.17,0.22l-5.24,0.61c-0.13,0-0.22-0.09-0.22-0.17
			C77.93,33.39,78.02,33.31,78.15,33.26z M73.17,53.89c-2.75,1.91-14.72,2.52-16.42,2.48c-1.7,0-3.54,0.35-5.5-1.96
			c-1.97-2.31-3.93-10.84-4.59-13.93c-0.66-3.09,2.88-5.09,6.03-6.57c0,0,6.77-2.96,15.37-4.4c3.19-0.52,8.56-0.83,9.3,5.05
			C78.11,40.44,75.88,51.93,73.17,53.89z M79.24,50.15c-0.74,0.09-1.44-0.44-1.53-1.22c-0.09-0.74,0.44-1.44,1.22-1.52
			c0.74-0.09,1.44,0.44,1.53,1.22S79.98,50.06,79.24,50.15z M80.38,46.32c-0.74,0.09-1.44-0.44-1.53-1.22
			c-0.09-0.78,0.44-1.44,1.22-1.52c0.74-0.09,1.44,0.44,1.53,1.22C81.64,45.53,81.12,46.23,80.38,46.32z M83.87,37.27l-5.24,0.61
			c-0.13,0-0.22-0.09-0.22-0.17c0-0.13,0.09-0.22,0.17-0.22l5.24-0.61c0.13,0,0.22,0.09,0.22,0.17C84.09,37.14,84,37.27,83.87,37.27
			z"/>
		<path class="st332" d="M55.32,60.95v38.56H44.64v-16.2h-3.2v16.2H30.76V60.95h10.68v13.79h3.2V60.95H55.32z"/>
		<path class="st332" d="M99.61,60.6v38.56h-9.36l-5.56-17.53v17.53h-8.93V60.6h8.93l5.99,17.36V60.6H99.61z"/>
		<polygon class="st332" points="71.51,99.46 60.54,99.46 60.54,57.21 71.51,55.64 		"/>
	</g>
</g>
</svg>
