<?xml version="1.0" encoding="utf-8"?>
<!-- Generator: Adobe Illustrator 27.0.0, SVG Export Plug-In . SVG Version: 6.00 Build 0)  -->
<svg version="1.1" id="Layer_1" xmlns="http://www.w3.org/2000/svg" xmlns:xlink="http://www.w3.org/1999/xlink" x="0px" y="0px"
	 viewBox="0 0 136.7 133.1" style="enable-background:new 0 0 136.7 133.1;" xml:space="preserve">
<style type="text/css">
	.st0{display:none;}
	.st1{display:inline;fill:#BCBCBC;}
	.st2{display:inline;fill:#E91A25;}
	.st3{fill:#FFFFFF;}
	.st4{fill:#ECBF32;}
	.st5{fill:#6E6E6E;}
	.st6{fill:#ED4E2B;}
	.st7{fill:#3F4C97;}
	.st8{fill:#EFC900;}
	.st9{fill-rule:evenodd;clip-rule:evenodd;fill:#EFC900;}
	.st10{fill:#040404;fill-opacity:0;stroke:#040404;stroke-opacity:0;}
</style>
<g id="Layer_2_00000129908810263707168760000016690468477625576619_" class="st0">
	<rect x="11" y="13.4" class="st1" width="136.7" height="133.1"/>
</g>
<g>
	<g>
		<path class="st8" d="M107.7,62.2L89.1,48.8l-18-13c-1.7-1.2-3.9-1.2-5.6,0l-18,13L29,62.2c-0.7,0.5-0.3,1.6,0.6,1.6H43
			c0.5,0,0.9,0.4,0.9,0.9v32.6c0,0.5,0.4,0.9,0.9,0.9h47c0.5,0,0.9-0.4,0.9-0.9V64.7c0-0.5,0.4-0.9,0.9-0.9h13.4
			C108,63.8,108.4,62.7,107.7,62.2z M73.5,73.5c-3.7,4.1-8.6,9.5-11.7,12.8c-0.8,0.9-2.3,0.1-1.9-1c0,0,0,0,0,0
			c0.4-1,3.5-8.2,4.7-11c0.3-0.6-0.1-1.3-0.8-1.4L60.4,72c-0.8-0.2-1.1-1.1-0.6-1.7c1.6-2,4.7-5.8,6-7.6c1.1-1.5,4.9-5.4,7.8-8.2
			c0.8-0.8,2.2,0,1.9,1.1l-3.5,9.7c-0.2,0.6,0.2,1.3,0.9,1.4l4.5,0.8C77.3,67.4,79.3,67,73.5,73.5z"/>
	</g>
</g>
</svg>
