<?xml version="1.0" encoding="utf-8"?>
<!-- Generator: Adobe Illustrator 27.0.0, SVG Export Plug-In . SVG Version: 6.00 Build 0)  -->
<svg version="1.1" id="Layer_1" xmlns="http://www.w3.org/2000/svg" xmlns:xlink="http://www.w3.org/1999/xlink" x="0px" y="0px"
	 viewBox="0 0 136.7 133.1" style="enable-background:new 0 0 136.7 133.1;" xml:space="preserve">
<style type="text/css">
	.st0{display:none;}
	.st1{display:inline;fill:#BCBCBC;}
	.st2{display:inline;fill:#E91A25;}
	.st3{fill:#FFFFFF;}
	.st4{fill:#ECBF32;}
	.st5{fill:#6E6E6E;}
	.st6{fill:#ED4E2B;}
	.st7{fill:#3F4C97;}
	.st8{fill:#EFC900;}
	.st9{fill-rule:evenodd;clip-rule:evenodd;fill:#EFC900;}
	.st10{fill:#040404;fill-opacity:0;stroke:#040404;stroke-opacity:0;}
</style>
<g id="Layer_2_00000129908810263707168760000016690468477625576619_" class="st0">
	<rect x="-0.1" y="2.8" class="st1" width="136.7" height="133.1"/>
</g>
<g>
	<path class="st8" d="M69.5,94.6c0,0.1-0.1,0.2-0.2,0.2c-0.1,0-0.1-0.1-0.1-0.2c0-0.1,0.1-0.2,0.2-0.2
		C69.5,94.5,69.5,94.6,69.5,94.6z"/>
	<path class="st8" d="M103.1,87.8c-0.9-0.1-1.6-0.7-2.4-1.1c-0.8-0.4-1.5-0.8-2.4-1.1c-0.3-0.1-0.5-0.1-0.7,0.2
		c-0.2,0.3-0.4,0.5-0.6,0.7c-0.4,0.4-0.5,0.8-0.2,1.5c0.5,1.1,0.7,2.4,1,3.6c0.1,0.3-0.1,0.5-0.5,0.4c-0.8-0.1-1.3-0.7-1.9-1.1
		c-0.5-0.3-1-0.6-1.7-0.6c-0.2,0-0.4,0.1-0.6,0.2c-1.5,0.6-3,1.2-4.6,0.8c-0.5-0.1-1.1-0.1-1.7-0.2c-0.5-0.1-0.8,0.2-1,0.7
		c-0.5,1.1-1.1,2.2-2.1,3c-0.1,0.1-0.1,0.2-0.2,0.2c-1.2,0.5-0.8,1.5-0.8,2.3c0.1,1.1,0,2.2,0.1,3.4c-1.3-1.1-2.5-1.9-3.6-2.9
		c-0.1-0.2-0.4-0.4-0.4-0.8c0-0.2,0-0.4,0.2-0.5c0.2-0.1,0.4,0,0.6,0.1c0.9,0.5,1.5,1.3,2.1,2.1c0.1,0.1,0.2,0.3,0.2,0
		c0-0.7,0-1.4-0.2-2c-0.4-1.3-0.1-2.2,1-2.9c0,0,0.1-0.1,0.1-0.1c0.6-0.6,1-1.3,1.5-2c0.3-0.4,0.4-0.9,0.4-1.4c0-0.4,0-0.8,0.2-1.1
		c0.2-0.4,0.4-0.5,0.8-0.3c0.1,0,0.1,0.1,0.2,0.1c2.1,1.5,4.2,1.2,6.3,0.1c0.7-0.4,1.3-0.4,1.9,0c0.6,0.4,1.3,0.8,2.1,1.2
		c0-0.7-0.2-1.2-0.5-1.8c-0.2-0.6-0.6-1.1-0.9-1.8c0-0.4,0.5-0.6,0.6-0.9c0.1-0.1,0.1-0.3,0.2-0.4c0-0.1,0.1-0.1,0.1-0.1
		c0.4-0.4,0.8-0.8,1.2-1.2c0.7-0.6,1.2-0.6,1.9,0.1c0.3,0.3,0.6,0.4,0.9,0.5c0.7,0.2,1.3,0.6,1.8,1.2c0.2,0.3,0.4,0.4,0.7,0.1
		c0.1-0.2,0.3-0.1,0.5-0.1c0.3,0.2,0.6,0.3,1,0.5l0,0c0.3,0.2,0.5,0.4,0.8,0.5c0.2,0.1,0.4,0.2,0.3,0.5c-0.1,0.2-0.3,0.4-0.6,0.3
		C104,87.9,103.5,87.9,103.1,87.8z"/>
	<path class="st8" d="M68.9,101.5c-0.5,0.1-0.6,0.4-0.6,0.8c-0.1,1.6-0.5,3.2-0.5,4.9c0,0.2,0,0.5-0.3,0.6c-0.4,0.1-0.2-0.3-0.3-0.4
		c-0.4-1-1.1-1.8-1.8-2.6c-0.4-0.5-0.8-1-1.1-1.6c-0.1-0.2-0.2-0.4-0.4-0.3c-1.2,0.4-2.4,0-3.6-0.2c-0.3,0-0.3,0-0.5,0.3
		c-1,1.9-2.4,3.4-4.8,3.4c-0.2,0-0.4,0-0.5,0.3c-0.2,0.4-0.5,0.7-0.9,1c-1,0.9-1.9,1.9-2.7,3c-0.1,0.2-0.3,0.3-0.6,0.4
		c-0.1-1.3-0.1-2.5,0-3.7c0.1-1,0.2-2,0.2-3c0-0.3-0.2-0.6-0.4-0.9c-0.8-1.4-1.2-2.9-0.9-4.6c0-0.2,0.1-0.5-0.1-0.8
		c0-0.1,0-0.2,0.1-0.2c0.7,0,1,0.2,1.2,0.8c0,0.5-0.4,0.9-0.5,1.4c-0.1,1.2,0.3,2.2,1.1,3.1c0.5,0.5,0.6,1,0.5,1.6
		c-0.2,1.1-0.1,2.2-0.4,3.3c0.8-0.9,1.4-1.8,1.9-2.6c0.3-0.5,0.7-0.6,1.2-0.5c1.4,0.2,2.6-0.4,3.3-1.6c0.4-0.7,0.7-1.5,1-2.2
		c0.2-0.5,0.4-0.5,0.8-0.2c1.1,0.8,2.2,0.9,3.5,0.6c0.2-0.1,0.5-0.2,0.7-0.3c0.7-0.2,1-0.1,1.3,0.6c0.2,1.1,0.2,1.1,1,2.1
		c0.3,0.4,0.5,0.9,1,1.4c0.3-1.2,0.2-2.2,0.1-3.3c0-0.3-0.1-0.6,0-0.9c0-0.1,0-0.1,0.1-0.2c0.1-0.1,0.1-0.1,0.2-0.1
		c1,0.1,1.6-0.8,2.3-1.3c0.2-0.1,0.3-0.3,0.6-0.2c0.1,0.3-0.2,0.4-0.3,0.6c-0.4,0.4-0.8,0.7-1.2,1C68.5,101.2,68.7,101.3,68.9,101.5
		z"/>
	<path class="st8" d="M43.7,96.5c1-1,1.8-2.1,3-2.8c0.4-0.2,0.5-0.8,0.5-1.2c0.1-0.7,0.5-1.3,1-1.8c0.2-0.2,0.4-0.5,0.6-0.7
		c0.6-0.5,0.1-0.6-0.2-0.7c-0.8-0.2-1.3-0.7-1.6-1.5c-0.2-0.6-0.6-0.8-1.2-0.8c-0.9,0-1.7-0.3-2.6-0.5c0.2-0.5,0.6-0.4,0.9-0.4
		c0.5,0.1,1,0.2,1.6,0.2c0.2,0,0.3,0,0.5,0c0.7-0.2,0.7-0.2,1.1,0.4c0.1,0.3,0.3,0.5,0.5,0.7c0.6,0.6,1.3,1.1,2.1,1.4
		c0.1,0.1,0.2,0.1,0.3,0.2c0.2,0.1,0.4,0.3,0.3,0.5c0,0.2-0.2,0.3-0.4,0.4c-0.5,0.1-0.4,0.6-0.8,0.8c-0.8,0.8-1.2,1.7-1.1,2.8
		c-0.1,0.3-0.3,0.4-0.5,0.6c-0.8,0.5-1.5,0.9-2.2,1.5c-0.1,0.1-0.4,0.1-0.3,0.4c0.1,0.1,0.3,0.1,0.4,0.3c-0.6,0.1-1.2,0.2-1.8,0.2
		C43.7,96.7,43.7,96.6,43.7,96.5z"/>
	<path class="st8" d="M68.9,101.5c-0.2,0-0.5,0.1-0.5-0.1c-0.1-0.2,0.2-0.4,0.4-0.5c0.6-0.5,1.2-0.9,1.6-1.5
		c-0.1-0.1-0.1-0.2-0.1-0.2c0.5-0.8,0.7-1.8,1.5-2.4c0.1-0.1,0.3-0.2,0.3-0.4c0.1-0.4,0.3-0.4,0.6-0.3c1.1,0.6,2.4,0.6,3.6,0.5
		c0.3,0,0.5-0.1,0.8-0.1c0.4,0,0.9-0.1,1.3-0.2c0.4,0,0.7,0.1,0.7,0.6C78.9,97,79,97.2,79,97.4c0,0.1-0.2-0.1-0.1,0.1
		c0,0.2-0.1,0.2-0.2,0.1c-0.8,0.1-1.5,0.2-2.3,0.2c-1.2,0-2.4,0.2-3.5-0.6c-0.4-0.3-0.8,0-1,0.6c-0.5,1.5-1.5,2.5-2.6,3.6
		C69.2,101.4,69,101.4,68.9,101.5z"/>
	<path class="st8" d="M103.9,86.8c-0.2,0-0.4-0.1-0.6-0.2c-0.4-0.2-0.7-0.5-1,0.1c-0.2,0.3-0.5,0-0.6-0.2c-0.5-0.8-1.2-1.2-2.1-1.4
		c-0.3-0.1-0.5-0.3-0.7-0.5c-0.6-0.6-1.1-0.6-1.8,0c-0.4,0.4-0.8,0.8-1.2,1.1c-0.1-0.3,0.1-0.6,0.2-0.8c0.2-0.4,0.1-0.7-0.3-1
		c-1.2-0.7-2.4-1.7-3.7-2.2c-0.1,0-0.1-0.1-0.1-0.2c0.2,0,0.4,0,0.5-0.1c0.2-0.2,0.4,0,0.6,0.1c0.2,0.2,0.2,0.6,0.5,0.5
		c0.2-0.1,0.3-0.4,0.5-0.6c0,0,0,0,0-0.1l0.1,0l0,0.1c1.6,1.1,3.4,1.9,5.1,2.8c0.8,0.4,1.6,0.7,2.3,1.2
		C102.4,86,103.2,86.4,103.9,86.8z"/>
	<path class="st8" d="M47.8,87.8c-0.4-0.2-0.6-0.6-0.8-1c-0.1-0.3-0.4-0.4-0.5-0.3c-0.8,0.5-1.5,0.1-2.3,0c-0.4,0-0.7,0-1,0.2
		c-0.4-0.1-1,0-1.2-0.4c-0.1-0.3,0.5-0.4,0.8-0.6c0.9-0.6,1.9-1.1,2.8-1.6c0.2-0.1,0.4-0.3,0.4-0.5c0.2-0.7,0.6-1.3,1-1.9
		c-0.2,0-0.4,0-0.5,0c0.6-0.2,1.3-0.2,2-0.3c-0.1,0.4-0.5,0.6-0.8,0.8c-0.4,0.4-0.6,0.8-0.7,1.3c0,0.7-0.4,1.2-1,1.4
		c-0.6,0.2-1.2,0.6-1.9,1.1c0.8,0,1.4,0.2,2,0.1c0.5,0,0.9,0.1,1.1,0.7C47.5,87.2,47.9,87.4,47.8,87.8z"/>
	<path class="st8" d="M43.7,96.5c0.6,0.4,1.1-0.2,1.8,0.1c-0.3-0.3-0.6-0.1-0.7-0.3c0.1-0.1,0.3-0.1,0.5-0.2
		c0.7-0.2,1.4-0.4,2.2-0.5c0.6-0.1,1,0.2,1.3,0.8c0.4,0.7,1,1.1,1.7,1.5c0.3,0.2,0.5,0.3,0.3,0.7c-0.1,0.1-0.2,0.2-0.3,0.2
		c-0.2-0.6-0.6-0.8-1.1-0.8c-0.2-0.2-0.4-0.3-0.6-0.4c-0.5-0.8-1.2-1.1-2.2-1c-0.9,0.1-1.7,0.1-2.6,0.2c-0.2,0-0.3,0-0.4-0.1
		C43.4,96.6,43.6,96.6,43.7,96.5z"/>
	<path class="st8" d="M38.3,85.3c0.5,0.2,0.4,0.4,0.1,0.8c-0.5,0.4-0.9,0.8-1.3,1.3c-0.4,0.5-0.9,0.8-1.6,0.8
		C36.4,87.2,37.3,86.3,38.3,85.3C38.2,85.3,38.2,85.3,38.3,85.3z"/>
	<path class="st8" d="M103.1,87.8c0.4,0,0.9-0.1,1.3,0.2c0.3,0.1,0.5,0,0.6-0.2c0.1-0.2-0.2-0.3-0.3-0.4c-0.2-0.2-0.6-0.3-0.7-0.6
		c0.4,0.1,0.6,0.3,0.9,0.5c0.4,0.2,0.5,0.3,0.4,0.6c-0.3,0.3-0.6,0.4-1,0.2C103.9,87.9,103.5,88,103.1,87.8z"/>
	<path class="st8" d="M78.6,97.7c0.5-0.2-0.3-0.2,0-0.4c0.2-0.2,0.3,0.1,0.4,0.2c0.1,0.2,0.2,0.5,0.2,0.7C79,98,78.8,97.8,78.6,97.7
		z"/>
	<path class="st8" d="M48.7,97.7c0.3-0.1,0.6,0,0.6,0.4c0,0-0.1,0.1-0.1,0.1C49.1,97.9,48.9,97.8,48.7,97.7z"/>
	<path class="st8" d="M89.8,80.8c-0.4-0.1-0.7,0.1-0.9,0.4c-0.3,0.5-0.7,0.9-1.1,1.3c-0.7,0.3-0.9,1.1-1.4,1.7
		c-0.8,0.8-1.4,1.7-2.6,2.1c-0.3,0.1-0.6,0.4-0.9,0.6c-0.4,0.3-0.8,0.5-1.2,0.5c-0.4,0.1-0.7,0.2-1,0.4c-1.2,0.8-2.5,1.3-3.8,1.8
		c-0.6,0.1-1.2,0.4-1.8,0.1c-0.2-0.1-0.5,0.1-0.7,0.1c-0.3,0.1-0.6,0.3-0.8-0.2c1.1-0.5,2.2-0.7,3.4-1.1c0.2-0.1,0.5-0.2,0.7-0.2
		c2.2-0.8,4.2-1.9,6.1-3.2c0.9-0.6,1.7-1.4,2.4-2.1c0.8-0.7,1.3-1.6,2-2.3c0.2-0.2,0.1-0.3-0.1-0.4C88.8,80,89.3,80.5,89.8,80.8z"/>
	<path class="st8" d="M81.6,99c0.2,0.1,0.4,0.3,0.3-0.2c-0.1-0.8-0.2-1.7-0.4-2.5c-0.2-1.2-0.3-1.1,0.9-2c0.1-0.1,0.4-0.2,0.5-0.3
		c-0.1,0.3-0.4,0.4-0.6,0.5c-0.6,0.5-0.8,1-0.5,1.9c0.3,1,0.3,2,0.3,3C81.8,99.4,81.6,99.3,81.6,99z"/>
	<path class="st8" d="M77.1,96.6c0.2-0.1,0.5-0.2,0.8-0.2c0.5-0.1,1-0.5,1.4,0.3c0.1,0.2,0.4,0.1,0.4,0.3c-0.2,0-0.4-0.1-0.5-0.1
		c-0.3-0.8-0.9-0.3-1.4-0.3C77.6,96.6,77.3,96.7,77.1,96.6z"/>
	<path class="st8" d="M95,86.8c-0.1-0.1-0.3-0.3-0.1-0.5c0.1-0.2,0.2-0.4,0.5-0.2c0.2,0.1,0.3-0.2,0.5-0.2c0,0.1-0.1,0.2-0.1,0.3
		C95.5,86.5,95.4,86.8,95,86.8z"/>
	<path class="st8" d="M96,88.8c-0.5-0.5-0.8-1.1-1-1.7c0-0.1,0.1-0.1,0.1,0C95.4,87.7,95.8,88.2,96,88.8z"/>
	<path class="st8" d="M95.1,87.1L95.1,87.1l-0.1,0c-0.1-0.1-0.1-0.2,0-0.3c0.4-0.1,0.5-0.5,0.7-0.6C95.7,86.6,95.2,86.8,95.1,87.1z"
		/>
	<path class="st8" d="M67.3,100.9c0-0.1,0-0.2,0.1-0.2c1.1,0,1.9-0.7,2.5-1.5c0.7-0.8,1-1.7,1.1-2.7c0.1-0.3,0.1-0.6,0.2-0.8
		c0.1-0.2,0.2-0.4,0.5-0.4c0.3,0.2,0.7,0.4,0.9,0.8c-0.1,0-0.2,0-0.3,0c0,0.7-0.9,0.8-1.1,1.5c-0.1,0.7-0.7,1.1-0.9,1.7
		c-0.5,0.2-1,0.6-1.3,1C68.5,100.9,67.9,101,67.3,100.9z"/>
	<path class="st8" d="M65,101.9c0.5,0.8,1,1.7,1.5,2.5c0.2,0.3,0.3,0.6,0.7,0.9c0.1-1.3-0.1-2.5-0.1-3.8c0-0.2-0.1-0.5,0.2-0.6
		c0.1,1.4,0.3,2.8,0,4.1c0,0.2,0,0.4-0.2,0.5c-0.2,0.1-0.3-0.2-0.4-0.3c-0.4-0.8-1-1.6-1.7-2.2c-0.1-0.1-0.2-0.2-0.1-0.3
		C65.2,102.5,65,102.2,65,101.9z"/>
	<path class="st8" d="M49.9,89.2c0.3,0,0.7,0.1,0.8,0.5c0.1,0.4-0.3,0.4-0.5,0.6c-0.3,0.2-0.6,0.4-0.9,0.7c0.3-0.3,0.4-0.8,1-0.9
		c0.3-0.1,0.3-0.3,0.1-0.5C50.2,89.3,49.9,89.3,49.9,89.2z"/>
	<path class="st8" d="M45.4,95.8c0,0.1,0,0.3-0.1,0.4c-0.1,0.1-0.3,0.1-0.5,0.1C44.9,95.9,45.2,95.9,45.4,95.8z"/>
	<path class="st8" d="M48.1,93.8c0,0.3-0.2,0.5-0.5,0.5C47.8,94.1,47.9,94,48.1,93.8z"/>
	<path class="st8" d="M47.5,95.8c0.5-0.3,0.9-0.2,1.2,0.4c0.4,0.8,1.2,1.4,2,1.8c0.5,0.2,0.5,0.4,0,0.6c0-0.2,0.1-0.4-0.1-0.5
		c-1-0.5-1.8-1.2-2.3-2.2C48.1,95.6,47.7,95.9,47.5,95.8z"/>
	<path class="st8" d="M54,86.4c0,0,0,0.1,0,0.1c0,0.2-0.1,0.6,0.2,0.6c0.3,0,0.3-0.3,0.4-0.6c0.1-0.4,0.2-0.9,0.3-1.3
		c0.1-0.2,0.1-0.5,0.4-0.5c-0.8,2.3-0.5,4.5,1.2,6.3c0.2,0.2,0.2,0.3,0.1,0.5c-0.4,1.2-0.6,2.5-1.3,3.5c-0.4,0.7-0.4,1.5-0.7,2.3
		c-0.2,0.5,0.1,1,0,1.5c0,0.1,0,0.3-0.1,0.4c-0.1,0.2-0.2,0.4-0.5,0.3c-0.2,0-0.3-0.2-0.3-0.5c0-0.9,0.1-1.9,0.4-2.8
		c0.4-1.2,0.8-2.4,1.2-3.7c0.2-0.5,0-0.9-0.3-1.4C54,90,53.7,88.3,54,86.4z"/>
	<path class="st8" d="M59.2,94c1-0.8,2.1-1.6,3.2-2.3c0.5-0.3,1.2-0.2,1.8-0.4c1.7-0.2,3.4-0.3,5-0.8c1.1-0.3,2.3-0.4,3.4-0.7
		c0.2-0.1,0.4-0.1,0.2,0.2c-0.1,0.2-0.4,0.3-0.6,0.3c-0.6,0.1-1.2,0.4-1.8,0.4c-0.9,0-1.8,0.3-2.5,0.4c-0.2,0.1-0.1,0.2-0.1,0.1
		c0,0,0,0,0,0c0.2-0.1,0.5-0.1,0.8-0.2c0.2,0,0.4-0.1,0.4,0.2c-0.4,0.1-0.7,0.2-1.1,0.2c-1.1,0.3-2.3,0.3-3.4,0.5
		c-0.4,0.1-0.8,0.1-1.1,0.1c-0.2-0.4-0.4-0.2-0.6,0c-1.8,1.3-3.6,2.7-5.3,4.2c-0.1,0.1-0.3,0.2-0.4,0.3c-0.1,0.1-0.3,0.2-0.5,0.3
		s-0.4,0.1-0.4-0.2c0.3-0.3,0.6-0.7,1-1c0.4-0.2,0.7-0.6,1-0.9c0.1-0.1,0.1-0.1,0.2-0.2C58.7,94.6,58.9,94.3,59.2,94z"/>
	<path class="st8" d="M63.3,92.1c1.5-0.1,3-0.3,4.5-0.6c0.1,0,0.1,0.1,0,0.2c-1.4,0.3-2.9,0.5-4.4,0.7c-0.5,0-0.8,0.2-1.1,0.4
		c-2.4,1.8-4.8,3.7-6.9,5.9c-0.3,0.3-0.6,0.7-0.9,1c-0.3,0.4-0.6,0.3-0.8-0.2c-0.1-0.3-0.1-0.6-0.1-0.9c0.2-2.1,0.8-4,1.7-5.8
		c-0.1,1.3-0.6,2.5-1.1,3.7c-0.3,0.9-0.5,1.7-0.5,2.7c0,0.2,0,0.5,0.4,0.4c0.3,0,0.3-0.3,0.3-0.5c0-0.6,0-1.1,0.2-1.7
		c0.2,0.2-0.3,0.6,0.2,0.6c0.8-0.2,1.4-0.9,2-1.4c0.1-0.2,0.2-0.2,0.4-0.2c1.7-1.5,3.5-2.8,5.3-4.2C62.8,92.1,63,91.9,63.3,92.1z"/>
	<path class="st8" d="M68.9,91.4c-0.4-0.3-0.9,0.2-1.4-0.1c0.9-0.2,1.7-0.5,2.6-0.6c0.8,0,1.7-0.2,2.5-0.7c0.2-0.1,0-0.1-0.1-0.2
		c0.3-0.2,0.7-0.2,1-0.2c0.1,0.2,0.3,0.2,0.4,0.1c1-0.5,2,0.2,3-0.2c0,0.3-0.4,0.3-0.6,0.4c-2.1,0.7-4.3,1.1-6.5,1.4
		C69.5,91.3,69.2,91.6,68.9,91.4z"/>
	<path class="st8" d="M63.6,88.1c0,1.3-0.4,1.8-1.7,2.1c-0.2,0.1-0.2-0.1-0.3-0.2c0-0.1,0-0.2,0.1-0.3c0.9-0.9,1.2-2,0.8-3.3
		c0-0.1,0-0.2,0.1-0.3c0.1,0,0.2,0.1,0.3,0.2C63.4,86.8,63.7,87.4,63.6,88.1z"/>
	<path class="st8" d="M86.2,83c-0.8,1.1-2,1.9-3.1,2.7c-1.7,1.2-3.5,2.1-5.5,2.6c0.7-0.4,1.5-0.8,2.2-1.2c1-0.5,1.8-1.3,2.8-1.6
		C84.1,85,85,83.9,86.2,83z"/>
	<path class="st8" d="M57,96.7c-0.4,0.7-1.1,1.1-1.8,1.5C55.1,98.3,55,98.1,55,98c0.3-0.4,0.6-0.8,1.1-1.2
		C56.5,97.2,56.7,96.8,57,96.7z"/>
	<path class="st8" d="M64.1,91.4c-0.6,0.1-1.2,0.2-1.8,0.4C62.9,91.3,63.5,91.4,64.1,91.4z"/>
	<path class="st8" d="M58.1,95c-0.2,0.4-0.5,0.8-1,0.9C57.4,95.6,57.7,95.3,58.1,95z"/>
	<path class="st8" d="M59.2,94c-0.2,0.4-0.4,0.7-0.9,0.8C58.6,94.5,58.8,94.2,59.2,94z"/>
	<path class="st8" d="M63.4,94.8C63,95.9,62.9,97,63.3,98c0.4,1,1.6,1.2,2.4,0.5c0.6-0.6,0.9-1.3,0.8-2.1c-0.1-0.5-0.5-0.6-0.9-0.6
		c-0.6,0-0.9,0.3-1,0.9c-0.1,0.4,0,0.7,0.5,0.8c0.1,0,0.2,0.1,0.1,0.2c-0.8,0.3-1.3,0-1.2-0.9c0.1-0.9,0.8-1.6,1.8-1.5
		c1,0.1,1.5,0.6,1.5,1.6c0,0.9-0.4,1.7-1.1,2.3c-1.3,1.1-3.1,0.5-3.5-1.1c-0.3-1.4-0.1-2.7,0.8-3.8c0.1,0,0.2-0.2,0.3-0.1
		c0.1,0.1,0.1,0.2,0,0.3v0C63.5,94.4,63.5,94.7,63.4,94.8z"/>
	<path class="st8" d="M76.8,92.5c0.1,0.2,0.2,0.5,0.2,0.8c0.4,1.1,1,1.4,2,0.9c0.3-0.2,0.6-0.4,0.8-0.8c0.2-0.4,0.4-0.9,0-1.3
		c-0.3-0.3-0.8-0.3-1.2-0.1c-0.5,0.2-0.5,0.7-0.6,1.2c0,0.2,0.5,0.4,0,0.5c-0.4,0.1-0.6-0.2-0.7-0.5c-0.2-0.6,0.3-1.6,0.9-1.8
		c0.6-0.3,1.7-0.2,2,0.2c0.5,0.6,0.4,1.2,0.2,1.9c-0.4,1-1.5,1.7-2.6,1.5c-0.5-0.1-0.9-0.3-1.1-0.7c-0.5-1-0.9-2.1-0.1-3.2
		c0.1-0.1,0.2-0.3,0.4-0.2c0.1,0,0.1,0.1,0,0.2c-0.1,0.2-0.2,0.4-0.2,0.6C76.7,92,76.7,92.2,76.8,92.5z"/>
	<path class="st8" d="M51.7,93.1c1.1-0.1,2,1.3,1.7,2.3c-0.1,0.2-0.3,0.3-0.5,0.5c-0.8,0.4-1.6,0.1-2.2-0.7c-0.6-0.9-0.6-2.1,0-2.6
		c0.6-0.5,2-0.7,2.7-0.3c0.1,0.1,0.3,0.2,0.4,0.4c0.1,0.2,0.1,0.3,0,0.7c-0.7-0.9-1.5-0.6-2.3-0.3c0,0.1-0.1,0.1-0.1,0.2
		C51.5,93.1,51.6,93.2,51.7,93.1z"/>
	<path class="st8" d="M68.9,91.4c2.5-0.3,4.9-0.8,7.3-1.5c0.2-0.1,0.5-0.1,0.7-0.3c1.3-0.5,2.6-1.1,3.8-1.9c0.3-0.2,0.5-0.3,0.8-0.4
		c0.7-0.1,1.2-0.5,1.8-0.9c0.1-0.1,0.2-0.2,0.4-0.2c1.5-0.5,2.3-1.7,3.1-2.9c0.2-0.3,0.4-0.8,1-0.7c-1.2,1.8-2.6,3.2-4.3,4.5
		c-1.2,0.9-2.7,1.3-4.1,1.9c-3.6,1.5-7.3,2.2-11.2,2.7c-0.1,0-0.2,0-0.4,0c0-0.1,0-0.1,0-0.2C68.2,91.5,68.5,91.4,68.9,91.4z"/>
	<path class="st8" d="M92.8,87.4c-0.4,0.8-1,1.3-1.9,1.2c-0.9,0-1.7-0.6-2-1.4c-0.5-1.3-0.5-2.6,0.5-3.7c0.1-0.1,0.1-0.1,0.2,0
		c0.1,0.2,0,0.3-0.1,0.4c-0.6,1.4-0.4,2.8,0.6,3.6c0.2,0.1,0.4,0.1,0.6,0.2c0,0,0.1,0,0.1,0.1c0.2,0.1,0.4,0,0.5-0.1
		c1-0.5,1.2-1.1,0.9-1.9c-0.3-0.4-0.6-0.2-1-0.1c0,0-0.1,0.1-0.1,0.1c-0.2,0.1-0.3,0.3-0.4,0.5c0,0.1,0,0.1,0,0.2
		c-0.1,0.2,0,0.4,0,0.6c0,0.1,0,0.1,0,0.2c-0.2,0.3-0.3,0.1-0.4-0.1c-0.2-0.5,0-1,0.2-1.5c0,0,0.1-0.1,0.1-0.1
		c0.4-0.2,0.9-0.3,1.4-0.3c0.7,0,1,0.3,1.1,1C93,86.6,92.9,87,92.8,87.4z"/>
	<path class="st8" d="M53.8,100.5c-0.7,0.1-0.8,0.6-0.9,1.2c-0.1,0.5,0.3,1.3,0.7,1.4c0.6,0.2,1,0,1.5-0.4c0.1-0.1,0.2-0.2,0.1-0.4
		c-0.1-0.2-0.3-0.2-0.4-0.2c-0.2,0.1-0.4,0.2-0.6,0.3c-0.1,0.1-0.3,0.3-0.5,0.1s-0.2-0.4,0-0.6c0.3-0.4,0.7-0.6,1.2-0.6
		c0.4,0,0.9,0.2,1,0.7c0.1,0.5-0.1,0.8-0.5,1.1c-0.6,0.6-1.3,0.7-2.1,0.5c-0.8-0.3-1-1-1.1-1.7c-0.1-0.7,0.1-1.4,0.8-1.8
		c0.3-0.1,0.6-0.1,0.9,0C54,100.4,53.9,100.4,53.8,100.5z"/>
	<path class="st8" d="M52.8,84.8c-0.6-0.7-1.2-0.6-1.9-0.3c-0.1,0.1-0.2,0.2-0.3,0.3c-0.7,0.4-0.7,0.5-0.6,1.3
		c0.1,0.4,0.5,0.6,0.9,0.8c0.2,0.1,0.4,0.1,0.6,0c0.1-0.1,0.2-0.1,0.3-0.1c0.1,0.1,0.2,0.1,0.2,0.3c0,0.2-0.2,0.2-0.3,0.3h0
		c-0.3,0-0.6,0.2-0.9,0.1c-0.8-0.1-1.5-0.7-1.7-1.5c-0.2-0.8,0.1-1.5,0.9-1.9c0.7-0.4,1.5-0.5,2.3-0.3c0.1,0.1,0.3,0.1,0.5,0.3
		c0.1,0.1,0.2,0.2,0.3,0.4C53,84.6,53.1,84.8,52.8,84.8z"/>
	<path class="st8" d="M51.8,87.1l-0.1-0.3c0,0,0,0,0-0.1c0.1-0.1,0.2-0.2,0.2-0.4c-0.2-0.9-0.5-1-1.2-0.4c-0.3,0.3-0.5,0.3-0.8-0.2
		c0-0.7,0.3-1.1,1-1.1c0.2,0,0.5-0.1,0.7,0.1c0.5,0.2,0.6,0.7,0.8,1.1c0.2,0.3-0.1,0.6-0.1,0.9l0,0C52.2,86.8,52.1,87.1,51.8,87.1z"
		/>
	<path class="st8" d="M51.7,84.8c-0.3,0-0.6-0.1-0.9,0c-0.5,0.2-0.8,0.5-0.7,1.1c-0.3,0-0.1-0.2-0.2-0.4c-0.1,0.2,0.1,0.4-0.1,0.6
		c-0.4-0.6,0-1.4,1-1.6C51.1,84.8,51.5,84.4,51.7,84.8z"/>
	<path class="st8" d="M92.8,87.4c0-0.3,0.1-0.6,0.1-0.9c0-1-0.6-1.4-1.6-1.2c-0.2,0.1-0.5,0.1-0.8,0.2c0.6-0.5,1.2-0.5,1.9-0.3
		C93,85.4,93.2,86.5,92.8,87.4z"/>
	<path class="st8" d="M90.4,85.6c0,0.5-0.4,1-0.1,1.5c0,0.1,0.1,0.2,0.2,0.2c0.1,0,0.1-0.2,0.1-0.3c0.3,0.1,0.4,0.3,0.4,0.6
		c-0.1,0.2-0.2,0.2-0.4,0.2c-0.2-0.1-0.3-0.2-0.4-0.4C89.9,86.7,90,86.1,90.4,85.6z"/>
	<path class="st8" d="M63.6,94.3c0-0.2-0.2-0.2-0.3-0.2c0.2-0.4,0.6-0.6,1-0.7c0.1-0.1,0.2,0,0.1,0.1C64.2,93.8,63.9,94.1,63.6,94.3
		z"/>
	<path class="st8" d="M71.7,95.3c-0.5,0.2-0.4,0.9-0.7,1.2c0-0.5-0.1-1,0.5-1.3C71.6,95.2,71.7,95.2,71.7,95.3z"/>
	<path class="st8" d="M77,91.1c-0.1-0.4-0.3,0.1-0.4,0c0.3-0.4,0.4-0.9,1.1-0.8C77.3,90.4,77.4,90.9,77,91.1z"/>
	<path class="st8" d="M53.9,100.4c-0.3-0.2-0.6-0.1-0.9-0.1c0.6-0.3,1.2-0.2,1.9,0C54.6,100.6,54.2,100.4,53.9,100.4z"/>
	<path class="st8" d="M89.4,83.9c-0.1-0.1,0.2-0.3-0.1-0.4c0.2-0.2,0.5-0.4,0.8-0.4c0.1-0.1,0.3-0.1,0.3,0.1
		C90,83.3,89.7,83.6,89.4,83.9z"/>
	<path class="st8" d="M53.9,100.4c0.3,0,0.7,0,1-0.1c0.1,0,0.1,0,0.2,0c0.1,0.1,0,0.2-0.1,0.2c-0.4,0-0.8,0-1.1,0.1
		C53.8,100.4,53.9,100.4,53.9,100.4z"/>
	<path class="st8" d="M52.8,84.8c0.2-0.1,0.1-0.2,0.2-0.4c0.3,0.2,0.2,0.5,0.2,0.8C52.9,85.1,52.8,84.9,52.8,84.8z"/>
	<path class="st8" d="M51.8,87.1c0.2-0.1,0.4-0.2,0.5-0.3c-0.1,0.4-0.4,0.5-0.8,0.6C51.6,87.2,51.7,87.1,51.8,87.1z"/>
	<path class="st8" d="M51.7,93.1c-0.2,0.1-0.3,0.2-0.6,0.4c0-0.3,0.2-0.5,0.5-0.5C51.6,93,51.7,93.1,51.7,93.1z"/>
	<path class="st8" d="M90.2,87.3c0.1,0.1,0.2,0.2,0.4,0.3c0,0,0.1,0.1,0.2,0.1c0,0.1,0,0.1,0,0.1c-0.3,0-0.5-0.1-0.6-0.4
		C90.1,87.4,90.1,87.4,90.2,87.3z"/>
	<path class="st8" d="M52.3,86.7c0-0.3,0.1-0.6,0.1-0.9C52.7,86.2,52.5,86.5,52.3,86.7z"/>
	<path class="st8" d="M50.7,87.5c0.3,0,0.6-0.2,0.9-0.1C51.3,87.5,51,87.6,50.7,87.5z"/>
	<path class="st8" d="M64.5,93.6l-0.1-0.1c0.1-0.1,0.3-0.1,0.5-0.1C64.8,93.6,64.7,93.6,64.5,93.6z"/>
	<path class="st8" d="M65.1,97.6c0-0.1-0.1-0.1-0.1-0.2c0.1,0,0.3-0.1,0.4,0.1C65.4,97.6,65.2,97.7,65.1,97.6z"/>
	<path class="st8" d="M90.4,83.3l-0.3-0.1c0.2-0.1,0.3-0.2,0.5,0C90.7,83.2,90.5,83.3,90.4,83.3z"/>
	<path class="st8" d="M76.8,92.5c-0.2-0.2-0.2-0.5,0-0.7C76.8,92,76.8,92.2,76.8,92.5z"/>
	<path class="st8" d="M53.8,92.6c-0.2-0.1-0.3-0.2-0.4-0.4C53.6,92.3,53.8,92.4,53.8,92.6z"/>
	<path class="st8" d="M63.4,94.8c0-0.2,0-0.4,0.3-0.4C63.6,94.5,63.5,94.7,63.4,94.8z"/>
	<path class="st8" d="M52.7,84c-0.2,0-0.4-0.1-0.5-0.3C52.4,83.7,52.6,83.8,52.7,84z"/>
	<path class="st8" d="M63.3,92.1c-0.9,0.2-1.4,0.9-2.1,1.4c-1.3,0.9-2.5,2-3.8,2.9c0.5-0.7,1.3-1.2,2-1.8c1.1-1,2.3-1.8,3.5-2.7
		c0.1-0.1,0.2-0.2,0.4-0.1C63.4,91.9,63.3,92,63.3,92.1z"/>
	<path class="st8" d="M52.3,95.4c-0.5,0-1.2-0.7-1.2-1.2c0-0.2,0.9-0.4,1.1-0.3c0.4,0.2,0.6,0.6,0.6,1.1
		C52.9,95.4,52.6,95.4,52.3,95.4z"/>
	<path class="st8" d="M90.7,87.8C90.7,87.8,90.7,87.8,90.7,87.8c0.1-0.2,0.4-0.2,0.3-0.4c-0.1-0.2-0.2-0.3-0.4-0.5l0,0
		c-0.1-0.2-0.1-0.4,0-0.6v0c0-0.3,0.1-0.6,0.5-0.7l0,0c0.4-0.2,0.8-0.2,1.2,0c0.4,1,0.2,1.6-1,2.2C91.1,87.9,90.9,87.9,90.7,87.8
		L90.7,87.8z"/>
	<path class="st8" d="M92.2,85.6c-0.4-0.2-0.8-0.1-1.2,0C91.5,85.3,91.9,85.2,92.2,85.6z"/>
	<path class="st8" d="M91.1,85.6c-0.3,0.2-0.4,0.5-0.5,0.7C90.5,86,90.6,85.6,91.1,85.6z"/>
	<path class="st8" d="M90.7,87.8c0.2,0,0.4,0,0.6,0C91.1,88,90.9,88,90.7,87.8z"/>
	<path class="st8" d="M90.6,86.4c0,0.2,0,0.4,0,0.6C90.3,86.7,90.4,86.5,90.6,86.4z"/>
	<path class="st8" d="M49.8,86.1v-0.8c0.2,0.2,0,0.5,0.2,0.6c0.2,0.2,0.4,0.3,0.6-0.1c0.1-0.2,0.5-0.5,0.8-0.3
		c0.4,0.2,0.6,0.6,0.6,1c-0.1,0.2-0.2,0.3-0.4,0.4h0c-0.1,0-0.2,0-0.2,0.1c-0.2,0.2-0.5,0.1-0.7,0C50.4,86.7,50,86.6,49.8,86.1z"/>
	<path class="st8" d="M50.7,86.9c0.2,0,0.5,0,0.7,0C51.2,87.2,51,87.1,50.7,86.9z"/>
	<path class="st8" d="M51.7,86.8c0.1-0.1,0.2-0.3,0.4-0.4C52.1,86.7,52,86.8,51.7,86.8z"/>
	<path class="st8" d="M90.9,87.4c0.1,0,0.2,0.1,0.1,0.2c-0.1,0.1-0.2,0.1-0.4,0.1c0-0.1-0.1-0.1-0.2-0.1
		C90.7,87.6,90.9,87.7,90.9,87.4z"/>
	<path class="st8" d="M69.5,94.6c0,0.1-0.1,0.2-0.2,0.2c-0.1,0-0.1-0.1-0.1-0.2c0-0.1,0.1-0.2,0.2-0.2
		C69.5,94.5,69.5,94.6,69.5,94.6z"/>
	<path class="st8" d="M103.1,87.8c-0.9-0.1-1.6-0.7-2.4-1.1c-0.8-0.4-1.5-0.8-2.4-1.1c-0.3-0.1-0.5-0.1-0.7,0.2
		c-0.2,0.3-0.4,0.5-0.6,0.7c-0.4,0.4-0.5,0.8-0.2,1.5c0.5,1.1,0.7,2.4,1,3.6c0.1,0.3-0.1,0.5-0.5,0.4c-0.8-0.1-1.3-0.7-1.9-1.1
		c-0.5-0.3-1-0.6-1.7-0.6c-0.2,0-0.4,0.1-0.6,0.2c-1.5,0.6-3,1.2-4.6,0.8c-0.5-0.1-1.1-0.1-1.7-0.2c-0.5-0.1-0.8,0.2-1,0.7
		c-0.5,1.1-1.1,2.2-2.1,3c-0.1,0.1-0.1,0.2-0.2,0.2c-1.2,0.5-0.8,1.5-0.8,2.3c0.1,1.1,0,2.2,0.1,3.4c-1.3-1.1-2.5-1.9-3.6-2.9
		c-0.1-0.2-0.4-0.4-0.4-0.8c0-0.2,0-0.4,0.2-0.5c0.2-0.1,0.4,0,0.6,0.1c0.9,0.5,1.5,1.3,2.1,2.1c0.1,0.1,0.2,0.3,0.2,0
		c0-0.7,0-1.4-0.2-2c-0.4-1.3-0.1-2.2,1-2.9c0,0,0.1-0.1,0.1-0.1c0.6-0.6,1-1.3,1.5-2c0.3-0.4,0.4-0.9,0.4-1.4c0-0.4,0-0.8,0.2-1.1
		c0.2-0.4,0.4-0.5,0.8-0.3c0.1,0,0.1,0.1,0.2,0.1c2.1,1.5,4.2,1.2,6.3,0.1c0.7-0.4,1.3-0.4,1.9,0c0.6,0.4,1.3,0.8,2.1,1.2
		c0-0.7-0.2-1.2-0.5-1.8c-0.2-0.6-0.6-1.1-0.9-1.8c0-0.4,0.5-0.6,0.6-0.9c0.1-0.1,0.1-0.3,0.2-0.4c0-0.1,0.1-0.1,0.1-0.1
		c0.4-0.4,0.8-0.8,1.2-1.2c0.7-0.6,1.2-0.6,1.9,0.1c0.3,0.3,0.6,0.4,0.9,0.5c0.7,0.2,1.3,0.6,1.8,1.2c0.2,0.3,0.4,0.4,0.7,0.1
		c0.1-0.2,0.3-0.1,0.5-0.1c0.3,0.2,0.6,0.3,1,0.5l0,0c0.3,0.2,0.5,0.4,0.8,0.5c0.2,0.1,0.4,0.2,0.3,0.5c-0.1,0.2-0.3,0.4-0.6,0.3
		C104,87.9,103.5,87.9,103.1,87.8z"/>
	<path class="st8" d="M68.9,101.5c-0.5,0.1-0.6,0.4-0.6,0.8c-0.1,1.6-0.5,3.2-0.5,4.9c0,0.2,0,0.5-0.3,0.6c-0.4,0.1-0.2-0.3-0.3-0.4
		c-0.4-1-1.1-1.8-1.8-2.6c-0.4-0.5-0.8-1-1.1-1.6c-0.1-0.2-0.2-0.4-0.4-0.3c-1.2,0.4-2.4,0-3.6-0.2c-0.3,0-0.3,0-0.5,0.3
		c-1,1.9-2.4,3.4-4.8,3.4c-0.2,0-0.4,0-0.5,0.3c-0.2,0.4-0.5,0.7-0.9,1c-1,0.9-1.9,1.9-2.7,3c-0.1,0.2-0.3,0.3-0.6,0.4
		c-0.1-1.3-0.1-2.5,0-3.7c0.1-1,0.2-2,0.2-3c0-0.3-0.2-0.6-0.4-0.9c-0.8-1.4-1.2-2.9-0.9-4.6c0-0.2,0.1-0.5-0.1-0.8
		c0-0.1,0-0.2,0.1-0.2c0.7,0,1,0.2,1.2,0.8c0,0.5-0.4,0.9-0.5,1.4c-0.1,1.2,0.3,2.2,1.1,3.1c0.5,0.5,0.6,1,0.5,1.6
		c-0.2,1.1-0.1,2.2-0.4,3.3c0.8-0.9,1.4-1.8,1.9-2.6c0.3-0.5,0.7-0.6,1.2-0.5c1.4,0.2,2.6-0.4,3.3-1.6c0.4-0.7,0.7-1.5,1-2.2
		c0.2-0.5,0.4-0.5,0.8-0.2c1.1,0.8,2.2,0.9,3.5,0.6c0.2-0.1,0.5-0.2,0.7-0.3c0.7-0.2,1-0.1,1.3,0.6c0.2,1.1,0.2,1.1,1,2.1
		c0.3,0.4,0.5,0.9,1,1.4c0.3-1.2,0.2-2.2,0.1-3.3c0-0.3-0.1-0.6,0-0.9c0-0.1,0-0.1,0.1-0.2c0.1-0.1,0.1-0.1,0.2-0.1
		c1,0.1,1.6-0.8,2.3-1.3c0.2-0.1,0.3-0.3,0.6-0.2c0.1,0.3-0.2,0.4-0.3,0.6c-0.4,0.4-0.8,0.7-1.2,1C68.5,101.2,68.7,101.3,68.9,101.5
		z"/>
	<path class="st8" d="M43.7,96.5c1-1,1.8-2.1,3-2.8c0.4-0.2,0.5-0.8,0.5-1.2c0.1-0.7,0.5-1.3,1-1.8c0.2-0.2,0.4-0.5,0.6-0.7
		c0.6-0.5,0.1-0.6-0.2-0.7c-0.8-0.2-1.3-0.7-1.6-1.5c-0.2-0.6-0.6-0.8-1.2-0.8c-0.9,0-1.7-0.3-2.6-0.5c0.2-0.5,0.6-0.4,0.9-0.4
		c0.5,0.1,1,0.2,1.6,0.2c0.2,0,0.3,0,0.5,0c0.7-0.2,0.7-0.2,1.1,0.4c0.1,0.3,0.3,0.5,0.5,0.7c0.6,0.6,1.3,1.1,2.1,1.4
		c0.1,0.1,0.2,0.1,0.3,0.2c0.2,0.1,0.4,0.3,0.3,0.5c0,0.2-0.2,0.3-0.4,0.4c-0.5,0.1-0.4,0.6-0.8,0.8c-0.8,0.8-1.2,1.7-1.1,2.8
		c-0.1,0.3-0.3,0.4-0.5,0.6c-0.8,0.5-1.5,0.9-2.2,1.5c-0.1,0.1-0.4,0.1-0.3,0.4c0.1,0.1,0.3,0.1,0.4,0.3c-0.6,0.1-1.2,0.2-1.8,0.2
		C43.7,96.7,43.7,96.6,43.7,96.5z"/>
	<path class="st8" d="M68.9,101.5c-0.2,0-0.5,0.1-0.5-0.1c-0.1-0.2,0.2-0.4,0.4-0.5c0.6-0.5,1.2-0.9,1.6-1.5
		c-0.1-0.1-0.1-0.2-0.1-0.2c0.5-0.8,0.7-1.8,1.5-2.4c0.1-0.1,0.3-0.2,0.3-0.4c0.1-0.4,0.3-0.4,0.6-0.3c1.1,0.6,2.4,0.6,3.6,0.5
		c0.3,0,0.5-0.1,0.8-0.1c0.4,0,0.9-0.1,1.3-0.2c0.4,0,0.7,0.1,0.7,0.6C78.9,97,79,97.2,79,97.4c0,0.1-0.2-0.1-0.1,0.1
		c0,0.2-0.1,0.2-0.2,0.1c-0.8,0.1-1.5,0.2-2.3,0.2c-1.2,0-2.4,0.2-3.5-0.6c-0.4-0.3-0.8,0-1,0.6c-0.5,1.5-1.5,2.5-2.6,3.6
		C69.2,101.4,69,101.4,68.9,101.5z"/>
	<path class="st8" d="M103.9,86.8c-0.2,0-0.4-0.1-0.6-0.2c-0.4-0.2-0.7-0.5-1,0.1c-0.2,0.3-0.5,0-0.6-0.2c-0.5-0.8-1.2-1.2-2.1-1.4
		c-0.3-0.1-0.5-0.3-0.7-0.5c-0.6-0.6-1.1-0.6-1.8,0c-0.4,0.4-0.8,0.8-1.2,1.1c-0.1-0.3,0.1-0.6,0.2-0.8c0.2-0.4,0.1-0.7-0.3-1
		c-1.2-0.7-2.4-1.7-3.7-2.2c-0.1,0-0.1-0.1-0.1-0.2c0.2,0,0.4,0,0.5-0.1c0.2-0.2,0.4,0,0.6,0.1c0.2,0.2,0.2,0.6,0.5,0.5
		c0.2-0.1,0.3-0.4,0.5-0.6c0,0,0,0,0-0.1l0.1,0l0,0.1c1.6,1.1,3.4,1.9,5.1,2.8c0.8,0.4,1.6,0.7,2.3,1.2
		C102.4,86,103.2,86.4,103.9,86.8z"/>
	<path class="st8" d="M47.8,87.8c-0.4-0.2-0.6-0.6-0.8-1c-0.1-0.3-0.4-0.4-0.5-0.3c-0.8,0.5-1.5,0.1-2.3,0c-0.4,0-0.7,0-1,0.2
		c-0.4-0.1-1,0-1.2-0.4c-0.1-0.3,0.5-0.4,0.8-0.6c0.9-0.6,1.9-1.1,2.8-1.6c0.2-0.1,0.4-0.3,0.4-0.5c0.2-0.7,0.6-1.3,1-1.9
		c-0.2,0-0.4,0-0.5,0c0.6-0.2,1.3-0.2,2-0.3c-0.1,0.4-0.5,0.6-0.8,0.8c-0.4,0.4-0.6,0.8-0.7,1.3c0,0.7-0.4,1.2-1,1.4
		c-0.6,0.2-1.2,0.6-1.9,1.1c0.8,0,1.4,0.2,2,0.1c0.5,0,0.9,0.1,1.1,0.7C47.5,87.2,47.9,87.4,47.8,87.8z"/>
	<path class="st8" d="M43.7,96.5c0.6,0.4,1.1-0.2,1.8,0.1c-0.3-0.3-0.6-0.1-0.7-0.3c0.1-0.1,0.3-0.1,0.5-0.2
		c0.7-0.2,1.4-0.4,2.2-0.5c0.6-0.1,1,0.2,1.3,0.8c0.4,0.7,1,1.1,1.7,1.5c0.3,0.2,0.5,0.3,0.3,0.7c-0.1,0.1-0.2,0.2-0.3,0.2
		c-0.2-0.6-0.6-0.8-1.1-0.8c-0.2-0.2-0.4-0.3-0.6-0.4c-0.5-0.8-1.2-1.1-2.2-1c-0.9,0.1-1.7,0.1-2.6,0.2c-0.2,0-0.3,0-0.4-0.1
		C43.4,96.6,43.6,96.6,43.7,96.5z"/>
	<path class="st8" d="M38.3,85.3c0.5,0.2,0.4,0.4,0.1,0.8c-0.5,0.4-0.9,0.8-1.3,1.3c-0.4,0.5-0.9,0.8-1.6,0.8
		C36.4,87.2,37.3,86.3,38.3,85.3C38.2,85.3,38.2,85.3,38.3,85.3z"/>
	<path class="st8" d="M103.1,87.8c0.4,0,0.9-0.1,1.3,0.2c0.3,0.1,0.5,0,0.6-0.2c0.1-0.2-0.2-0.3-0.3-0.4c-0.2-0.2-0.6-0.3-0.7-0.6
		c0.4,0.1,0.6,0.3,0.9,0.5c0.4,0.2,0.5,0.3,0.4,0.6c-0.3,0.3-0.6,0.4-1,0.2C103.9,87.9,103.5,88,103.1,87.8z"/>
	<path class="st8" d="M78.6,97.7c0.5-0.2-0.3-0.2,0-0.4c0.2-0.2,0.3,0.1,0.4,0.2c0.1,0.2,0.2,0.5,0.2,0.7C79,98,78.8,97.8,78.6,97.7
		z"/>
	<path class="st8" d="M48.7,97.7c0.3-0.1,0.6,0,0.6,0.4c0,0-0.1,0.1-0.1,0.1C49.1,97.9,48.9,97.8,48.7,97.7z"/>
	<path class="st8" d="M94.1,81.8c0-0.1,0-0.2,0-0.3c-1.1-0.9-2.5-1.4-3.8-1.9c-0.6-0.2-1.1,0.1-1.6,0c-2-0.4-3.9-0.8-5.8-1.3
		c-2.8-0.8-5.2-2-6.8-4.6c-0.3-0.5-0.4-1-0.3-1.5c0.4-2.5,1-5,1.1-7.5c0-0.2,0.1-0.5,0.5-0.5c1.3,0.1,2.7-0.2,4-0.2
		c2.5-0.1,4.9-0.4,7.3-1c3.8-1,7.3-2.4,9.7-5.8c0.5-0.8,1.1-1.6,1.3-2.5c0.4-1.7,0.4-3.4,0.2-5.2c-0.1-0.4-0.2-0.7-0.3-1.1
		c0-0.4-0.2-0.7-0.4-1c-0.4-0.8-0.9-1.7-1.5-2.4c-1.1-1.5-2.5-2.6-4-3.7c-1.7-1.3-3.5-2.5-5.5-3.2c-2-0.8-4.1-1.3-6.2-1.6
		c-0.5-0.1-0.8-0.2-1-0.8c-0.5-1.7-1.2-3.3-2.2-4.9c-1.7-2.5-3.9-4.4-6.4-6c-0.3-0.2-0.6-0.4-0.9-0.6c-1.5-1-3.2-1.6-5-1.9
		C64.2,22,62,22,59.7,22.3c-0.3,0.1-0.6,0.1-0.9,0.1c-0.2,0-0.3,0.1-0.5,0.1c-0.1,0.1-0.2,0.1-0.3,0.2c-0.9,0.2-1.8,0.4-2.6,1.1
		c0,0,0,0,0,0c-0.1,0-0.1,0-0.2,0.1c-0.4,0.3-0.6,0.7-1,0.9c-0.4,0.4-0.7,0.8-1,1.2c-0.2,0.4-0.3,0.7-0.6,1.1
		c-0.7,1.1-1.3,2.3-1.7,3.6c-0.4,1.4-1,2.7-1.5,4c-0.1,0.3-0.3,0.5-0.7,0.5c-1.6-0.2-3.3-0.4-4.8-1.1c-1.4-0.6-2.8-0.7-4.2-0.7
		c-0.7,0-1.5,0-2.2,0.1c-1,0.1-2.1,0.2-3.1,0.3c-0.2,0-0.5,0.1-0.7,0.3c0,0,0,0,0,0.1c-0.2,0-0.4,0.2-0.6,0.3
		c-0.4,0.5-0.7,1-1.1,1.5c-0.3,0.8-0.8,1.5-0.8,2.4c0,0.8-0.1,1.6,0.2,2.4c0.3,0.9,0.5,1.7,0.7,2.6c0,0.1,0.1,0.1,0.1,0.2
		c0,0,0,0,0,0c0.3,1.2,0.8,2.3,1.4,3.4c0.9,1.6,2,3,2.9,4.5c0.3,0.5,0.7,1,1,1.5c0.9,1.2,2,2.3,3,3.4c0.9,1,2.1,1.8,3.4,2.2
		c0.2,0.1,0.4,0.1,0.6,0.2c0.7,0.2,0.7,0.5,0.7,1c0,1,0.3,1.9,0.9,2.7c0.4,0.6,1,1.1,1.3,1.9c0.5,1.6,1.1,3.2,1.5,4.8
		c0.4,1.5,0.7,2.9,1.4,4.3c0.3,0.6,0.6,1.1,0.7,1.8c0,0.8,0.4,1.4,0.7,2.1c0.3,0.6,0.6,1.2,1,1.8c0.1,0.2,0.1,0.4-0.2,0.5
		c-1.3,0.3-2.6,0.8-3.9,1.1c-2.1,0.5-4.1,1-6.1,1.7c-0.2,0.1-0.4,0.1-0.5,0.2c-0.4,0.1-0.8,0.3-1.1,0.5c-0.3,0.2-0.6,0.4-0.9,0.6
		c-0.6,0.5-1.1,1.2-1.8,1.7c0,0,0,0.1,0,0.1c0.1,0.2,0.1,0.5-0.1,0.7c-0.9,0.8-1.5,1.8-2.7,2.1c-0.7,0.5-1.2,1.3-1.8,1.9
		c-0.4,0.4-0.7,0.9-1.4,0.9c-0.2,0.1-0.3,0.1-0.4,0.3c0,0.1-0.1,0.1-0.1,0.2c0,0.3-0.1,0.6,0.2,0.8c0.1,0,0.1,0,0.1-0.1
		c0.2-0.1,0.3-0.2,0.5-0.3c-0.4,0.4-0.6,0.6-0.6,0.6s0.5,18.2,18.7,18c18.2-0.1,46.2-7.9,53.2-22.4C99.4,84.9,96.2,83,94.1,81.8z
		 M90.5,46.9C90.5,46.9,90.5,46.9,90.5,46.9C90.5,47,90.5,47,90.5,46.9C90.5,47,90.5,47,90.5,46.9C90.5,46.9,90.5,46.9,90.5,46.9
		C90.5,46.9,90.5,46.9,90.5,46.9z M87.3,58.3C87.3,58.3,87.3,58.3,87.3,58.3C87.3,58.3,87.3,58.3,87.3,58.3
		C87.3,58.3,87.3,58.3,87.3,58.3z M86.6,53.1C86.6,53.1,86.6,53.1,86.6,53.1C86.6,53.1,86.6,53.1,86.6,53.1
		C86.6,53.1,86.6,53.1,86.6,53.1z M86.4,53.4C86.4,53.4,86.4,53.4,86.4,53.4C86.4,53.4,86.4,53.4,86.4,53.4
		C86.4,53.4,86.4,53.4,86.4,53.4z M85.4,56.1C85.4,56.1,85.4,56.1,85.4,56.1C85.4,56.1,85.4,56.1,85.4,56.1
		C85.4,56.1,85.4,56.1,85.4,56.1z M82.4,60.5L82.4,60.5C82.5,60.6,82.5,60.5,82.4,60.5C82.5,60.6,82.5,60.6,82.4,60.5
		C82.5,60.6,82.4,60.6,82.4,60.5C82.4,60.6,82.4,60.6,82.4,60.5z M82.2,62.5C82.2,62.5,82.2,62.5,82.2,62.5
		C82.2,62.5,82.2,62.5,82.2,62.5C82.2,62.5,82.2,62.5,82.2,62.5C82.2,62.5,82.1,62.5,82.2,62.5L82.2,62.5z M81,53
		C81,53.1,81,53.1,81,53C81,53.1,81,53,81,53C81,53,81,53,81,53z M80.1,59.4C80.1,59.4,80.1,59.4,80.1,59.4
		C80.1,59.4,80.1,59.4,80.1,59.4C80.1,59.4,80.1,59.4,80.1,59.4z M77.2,33.8C77.2,33.8,77.2,33.8,77.2,33.8
		C77.2,33.8,77.1,33.8,77.2,33.8C77.1,33.8,77.2,33.8,77.2,33.8z M77.1,33.8C77.1,33.8,77.1,33.8,77.1,33.8
		C77.1,33.8,77.1,33.8,77.1,33.8C77.1,33.8,77.1,33.8,77.1,33.8z M77.1,33.8L77.1,33.8C77.1,33.8,77.1,33.8,77.1,33.8
		C77.1,33.8,77.1,33.8,77.1,33.8z M46.5,44.4C46.5,44.4,46.5,44.4,46.5,44.4C46.5,44.4,46.5,44.4,46.5,44.4
		C46.5,44.4,46.5,44.4,46.5,44.4z M48.8,59.1C48.8,59.1,48.8,59.1,48.8,59.1c0.1,0,0.1,0,0.2-0.1c0,0,0,0,0,0
		C48.9,59.1,48.9,59.1,48.8,59.1z M49.5,61.9C49.4,61.9,49.4,61.9,49.5,61.9c-0.1,0-0.1,0-0.1,0C49.4,61.9,49.4,61.9,49.5,61.9
		C49.4,61.9,49.5,61.9,49.5,61.9C49.5,61.9,49.5,61.9,49.5,61.9z M49.7,49.6C49.7,49.6,49.7,49.6,49.7,49.6
		C49.7,49.6,49.7,49.6,49.7,49.6C49.7,49.6,49.7,49.6,49.7,49.6C49.7,49.6,49.7,49.6,49.7,49.6C49.7,49.6,49.7,49.6,49.7,49.6z
		 M50.6,69.4C50.6,69.4,50.6,69.4,50.6,69.4c-0.1-0.1-0.1-0.1-0.1-0.1C50.5,69.3,50.6,69.3,50.6,69.4C50.6,69.4,50.6,69.4,50.6,69.4
		C50.6,69.4,50.6,69.4,50.6,69.4z M50.9,53.3C51,53.3,50.9,53.3,50.9,53.3C50.9,53.3,50.9,53.3,50.9,53.3c-0.1,0.1-0.1,0.1-0.2,0.2
		C50.8,53.4,50.9,53.3,50.9,53.3c-0.1,0-0.1,0-0.1,0C50.8,53.3,50.9,53.3,50.9,53.3C50.9,53.3,50.9,53.3,50.9,53.3
		C50.9,53.3,50.9,53.3,50.9,53.3C50.9,53.3,51,53.3,50.9,53.3C51,53.3,51,53.3,50.9,53.3z M51.6,52.6C51.6,52.6,51.6,52.6,51.6,52.6
		C51.6,52.6,51.6,52.6,51.6,52.6C51.6,52.6,51.6,52.6,51.6,52.6z M52.1,31.4C52.1,31.4,52.1,31.4,52.1,31.4
		C52.1,31.4,52.1,31.4,52.1,31.4C52.1,31.4,52.1,31.4,52.1,31.4z M52.6,65.4C52.6,65.4,52.6,65.4,52.6,65.4
		C52.6,65.3,52.7,65.3,52.6,65.4C52.7,65.3,52.7,65.4,52.6,65.4z M75.5,56C75.5,56,75.5,56,75.5,56C75.5,56,75.5,56,75.5,56
		C75.5,56,75.5,56,75.5,56z M74.5,59.1L74.5,59.1C74.5,59.1,74.5,59.1,74.5,59.1C74.5,59.1,74.5,59.1,74.5,59.1z M73.6,58.9
		C73.6,58.9,73.6,58.9,73.6,58.9C73.6,58.9,73.6,58.9,73.6,58.9C73.6,58.9,73.6,58.9,73.6,58.9z M73.4,53.8
		C73.4,53.8,73.4,53.8,73.4,53.8C73.4,53.8,73.4,53.8,73.4,53.8C73.4,53.8,73.4,53.8,73.4,53.8z M73.3,57.6
		C73.3,57.6,73.3,57.6,73.3,57.6C73.3,57.6,73.3,57.6,73.3,57.6C73.3,57.6,73.3,57.6,73.3,57.6C73.3,57.6,73.3,57.6,73.3,57.6
		C73.3,57.6,73.3,57.6,73.3,57.6z M72.8,54.5c0.1,0,0.1,0,0.2,0c0,0,0,0,0,0c-0.1,0-0.2,0-0.3,0C72.7,54.5,72.7,54.5,72.8,54.5z
		 M72.4,55.4C72.4,55.4,72.4,55.4,72.4,55.4C72.4,55.4,72.4,55.4,72.4,55.4c0-0.1,0-0.1,0-0.1C72.4,55.3,72.4,55.3,72.4,55.4
		C72.4,55.4,72.4,55.4,72.4,55.4z M72.4,44.8C72.4,44.8,72.3,44.8,72.4,44.8c-0.1,0-0.1,0-0.1,0C72.3,44.8,72.3,44.8,72.4,44.8z
		 M72.1,54.6C72.1,54.7,72.1,54.7,72.1,54.6C72.1,54.7,72.1,54.7,72.1,54.6C72.1,54.7,72.1,54.7,72.1,54.6
		C72.1,54.7,72.1,54.6,72.1,54.6z M72,54C72,54,72,54,72,54C72,54,72,54,72,54C72,54,72,54,72,54z M72,53C72,53,72,53,72,53
		C72,53,72,53,72,53z M71.1,50.1C71.2,50.1,71.2,50.1,71.1,50.1C71.2,50.1,71.2,50.1,71.1,50.1C71.2,50.1,71.1,50.1,71.1,50.1
		C71.1,50.1,71.1,50.1,71.1,50.1z M70.8,49.3c0,0,0.1,0,0.1,0C70.8,49.3,70.8,49.3,70.8,49.3C70.8,49.3,70.8,49.3,70.8,49.3z
		 M70.6,51.4C70.6,51.4,70.6,51.4,70.6,51.4C70.7,51.4,70.6,51.4,70.6,51.4C70.6,51.4,70.6,51.4,70.6,51.4
		C70.6,51.4,70.6,51.4,70.6,51.4C70.6,51.4,70.6,51.4,70.6,51.4z M70.3,48.4C70.3,48.4,70.3,48.4,70.3,48.4
		C70.3,48.4,70.3,48.4,70.3,48.4C70.3,48.4,70.3,48.4,70.3,48.4z M69.8,49.7C69.8,49.7,69.8,49.7,69.8,49.7
		C69.8,49.7,69.8,49.7,69.8,49.7C69.8,49.7,69.8,49.7,69.8,49.7z M68,29.5C68,29.5,68,29.5,68,29.5C68,29.5,67.9,29.5,68,29.5
		C67.9,29.5,68,29.5,68,29.5z M67.6,29.2C67.6,29.2,67.6,29.2,67.6,29.2C67.6,29.2,67.6,29.2,67.6,29.2
		C67.6,29.2,67.6,29.2,67.6,29.2z M66.8,30.7C66.8,30.7,66.9,30.7,66.8,30.7C66.9,30.7,66.8,30.7,66.8,30.7
		C66.8,30.7,66.8,30.7,66.8,30.7C66.8,30.7,66.8,30.7,66.8,30.7z M66.4,31.8C66.5,31.8,66.5,31.8,66.4,31.8
		C66.5,31.8,66.5,31.8,66.4,31.8C66.5,31.8,66.5,31.8,66.4,31.8C66.4,31.8,66.4,31.8,66.4,31.8z M66.1,33.7
		C66.1,33.7,66.1,33.7,66.1,33.7C66.1,33.7,66.1,33.7,66.1,33.7C66.1,33.7,66.1,33.7,66.1,33.7z M65.5,46.7
		C65.5,46.7,65.5,46.7,65.5,46.7C65.5,46.7,65.5,46.7,65.5,46.7C65.5,46.7,65.5,46.7,65.5,46.7z M65.2,44.8
		C65.2,44.8,65.2,44.8,65.2,44.8C65.2,44.8,65.2,44.8,65.2,44.8C65.2,44.8,65.2,44.8,65.2,44.8z M65.2,53.8c0.1,0,0.1,0,0.2-0.1
		C65.3,53.8,65.3,53.8,65.2,53.8C65.3,53.8,65.3,53.8,65.2,53.8C65.2,53.8,65.2,53.8,65.2,53.8C65.2,53.8,65.2,53.8,65.2,53.8z
		 M65.3,53.9C65.3,53.9,65.3,53.9,65.3,53.9C65.3,53.9,65.3,53.9,65.3,53.9C65.3,53.9,65.3,53.9,65.3,53.9z M65.1,35.2
		C65.1,35.2,65.1,35.2,65.1,35.2C65.1,35.2,65.1,35.2,65.1,35.2C65.1,35.2,65.1,35.2,65.1,35.2z M65.1,68.4c0,0,0,0.1,0,0.1
		c0,0,0,0,0,0C65,68.5,65.1,68.5,65.1,68.4z M65,54.3C65,54.3,64.9,54.3,65,54.3C64.9,54.3,64.9,54.3,65,54.3
		C64.9,54.3,65,54.3,65,54.3z M64.8,46.4C64.8,46.4,64.8,46.4,64.8,46.4C64.8,46.4,64.8,46.4,64.8,46.4
		C64.8,46.4,64.8,46.4,64.8,46.4z M64.7,44.8C64.7,44.8,64.7,44.8,64.7,44.8C64.7,44.8,64.7,44.8,64.7,44.8
		C64.7,44.8,64.7,44.8,64.7,44.8z M64.6,44.2C64.6,44.2,64.6,44.2,64.6,44.2C64.7,44.2,64.6,44.2,64.6,44.2
		C64.6,44.2,64.6,44.2,64.6,44.2C64.6,44.2,64.6,44.2,64.6,44.2C64.6,44.2,64.6,44.2,64.6,44.2z M64.4,46.1L64.4,46.1
		C64.4,46.1,64.4,46.1,64.4,46.1C64.4,46.1,64.4,46.2,64.4,46.1C64.4,46.2,64.4,46.2,64.4,46.1C64.4,46.2,64.4,46.1,64.4,46.1z
		 M64.2,45.8C64.2,45.8,64.2,45.8,64.2,45.8C64.2,45.8,64.2,45.8,64.2,45.8L64.2,45.8z M63.9,50.1c0,0,0,0-0.1,0.1c0,0,0,0,0,0
		c0,0,0-0.1,0-0.1C63.8,50.1,63.8,50.1,63.9,50.1z M63.5,53.8C63.5,53.9,63.5,53.9,63.5,53.8C63.4,53.8,63.4,53.8,63.5,53.8
		C63.4,53.8,63.4,53.8,63.5,53.8z M63.1,53.8C63.1,53.8,63.1,53.8,63.1,53.8C63.1,53.8,63.1,53.8,63.1,53.8
		C63.1,53.8,63.1,53.8,63.1,53.8z M63.1,73.9C63.1,73.9,63.1,73.9,63.1,73.9C63.1,73.9,63.1,73.9,63.1,73.9
		C63.1,73.9,63.1,73.9,63.1,73.9z M63,64.8C63,64.8,63,64.8,63,64.8C63,64.8,63,64.8,63,64.8C63,64.8,63,64.8,63,64.8
		C63,64.8,63,64.8,63,64.8C63,64.8,63,64.8,63,64.8z M62.5,72.8C62.5,72.8,62.5,72.8,62.5,72.8C62.5,72.8,62.5,72.8,62.5,72.8
		C62.5,72.8,62.5,72.8,62.5,72.8z M62.3,54.3C62.3,54.3,62.3,54.3,62.3,54.3c-0.1,0.1-0.2,0.1-0.2,0.1
		C62.2,54.3,62.3,54.3,62.3,54.3z M62.1,73.4C62.1,73.4,62.1,73.4,62.1,73.4C62.1,73.4,62.1,73.4,62.1,73.4
		C62.1,73.4,62.1,73.4,62.1,73.4z M61.4,72.2C61.4,72.2,61.4,72.3,61.4,72.2C61.4,72.3,61.4,72.3,61.4,72.2
		C61.4,72.3,61.4,72.2,61.4,72.2z M60.4,66.9C60.4,66.9,60.4,66.9,60.4,66.9C60.4,66.9,60.4,66.9,60.4,66.9
		C60.4,66.9,60.4,66.9,60.4,66.9C60.4,66.9,60.4,66.9,60.4,66.9z M59.8,67.4C59.9,67.4,59.9,67.4,59.8,67.4
		C59.9,67.4,59.9,67.4,59.8,67.4C59.8,67.4,59.8,67.5,59.8,67.4C59.8,67.5,59.8,67.4,59.8,67.4C59.8,67.4,59.8,67.4,59.8,67.4
		C59.8,67.4,59.8,67.4,59.8,67.4z M58.1,22.9C58.1,22.9,58.2,22.9,58.1,22.9C58.1,22.9,58.1,22.9,58.1,22.9
		C58.1,22.9,58.1,22.9,58.1,22.9z M57.6,53.1L57.6,53.1C57.6,53.1,57.6,53.1,57.6,53.1C57.6,53.1,57.6,53.1,57.6,53.1
		c0.1,0,0.1,0,0.1,0c0,0-0.1,0-0.1,0.1C57.6,53.2,57.6,53.2,57.6,53.1C57.6,53.2,57.5,53.2,57.6,53.1C57.5,53.2,57.6,53.1,57.6,53.1
		z M57.1,66.2C57.1,66.2,57.1,66.2,57.1,66.2C57.1,66.2,57.1,66.2,57.1,66.2C57.1,66.2,57.1,66.2,57.1,66.2z M57.1,53.5
		C57.1,53.5,57.1,53.5,57.1,53.5C57,53.5,57,53.5,57.1,53.5C57,53.5,57.1,53.5,57.1,53.5z M55.6,50.4c0,0-0.1,0-0.1,0c0,0,0,0,0,0
		c0,0,0,0,0-0.1C55.5,50.3,55.5,50.3,55.6,50.4z M46.7,81.6c0.1,0,0.1,0,0.2,0c-0.2,0-0.4,0.1-0.5,0.1
		C46.5,81.7,46.6,81.6,46.7,81.6z M93.9,89.4c-0.5-0.3-0.9-0.3-1.4,0c-1.6,1-3.3,1.1-5.1,0.8c-0.7-0.1-1.2-0.6-1.8-1
		c-0.3-0.2-0.5-0.2-0.6,0.2C85,89.6,85,89.8,85,90c0.1,1.8-1,2.9-2,4.1c-0.3,0.3-0.8,0.5-1,0.8c-0.3,0.4-0.4,0.7-0.3,1.2
		c0.2,0.9,0.4,1.9,0.4,2.8c0,0.1,0.1,0.3-0.1,0.3c-0.2,0-0.2-0.1-0.3-0.3c-0.6-0.7-1.2-1.4-1.9-2c-0.1,0-0.3-0.1-0.4-0.2
		c-0.4-0.8-1.1-0.4-1.6-0.3c-0.2,0-0.4,0-0.5,0.1c-0.9,0.1-1.9,0.2-2.8,0.1c-0.6,0-1.2-0.2-1.7-0.6c-0.3-0.2-0.6-0.5-0.9-0.7
		c-0.3,0-0.5,0.2-0.5,0.5c0,0.2,0,0.4,0,0.6c-0.2,1.8-1.2,3.1-2.7,4.1c-0.3,0.2-0.8,0-1.2,0.3c-0.2,0.6,0,1.3,0,1.9
		c0,0.9,0,1.7-0.2,2.6c-0.8-1.1-1.6-2.2-2.1-3.5c-0.3-0.7-0.5-0.8-1.3-0.4c-0.9,0.4-1.8,0.5-2.7,0.3c-0.7-0.1-1.4-0.4-1.8-1
		c-0.5,1-0.8,2-1.3,2.8c-0.8,1.3-2.2,2-3.6,1.6c-0.4-0.1-0.5,0-0.7,0.3c-0.6,0.9-1.2,1.7-1.9,2.6c-0.1,0.2-0.2,0.4-0.5,0.5
		c0.1-0.7,0.3-1.4,0.3-2c0-0.5,0.1-1.1,0.2-1.7c0.1-0.6,0-1-0.5-1.5c-0.9-0.9-1.3-2.1-1.1-3.4c0-0.5,0.4-0.8,0.5-1.2
		c0.1,0,0.2-0.1,0.2-0.2c0.2-0.2,0.3-0.4-0.1-0.6c-0.9-0.5-1.8-1.1-2.3-2.2c-0.2-0.5-0.6,0-0.9-0.1c-0.7,0-1.4,0.3-2.1,0.4
		c-0.2-0.2,0-0.3,0.1-0.4c0.7-0.6,1.4-1,2.2-1.5c0.3-0.1,0.4-0.3,0.5-0.5c-0.1-1.2,0.3-2.1,1.1-2.9c0.4-0.3,0.6-0.7,1.1-0.9
		c0.3-0.1,0.2-0.4,0-0.6c-0.1-0.1-0.3-0.1-0.5-0.2c-0.8-0.3-1.5-0.7-2.1-1.3c-0.1-0.5-0.6-0.8-0.7-1.3c0-0.2-0.3-0.1-0.5-0.1
		c-0.9,0-1.7-0.2-2.5-0.2c0-0.1,0-0.1-0.1-0.2c0.7-0.4,1.4-0.9,2.1-1.2c0.6-0.3,0.9-0.7,1-1.3c0-1.1,0.8-1.6,1.5-2.1
		c0,0,0.1-0.1,0.1-0.1c1.3-0.3,2.6-0.5,3.9-1c1.2-0.6,2.4-0.3,3.6,0c0.5,0.1,0.6,0.8,0.4,1.2c-0.1,0.1-0.2,0.2-0.2,0.3
		c-1.4,1-2,2.5-2.1,4.2c0,0.1,0,0.3,0,0.4c-0.3,1.8,0,3.5,1.2,5c0.4,0.5,0.5,0.9,0.2,1.4c-0.8,1.6-1.3,3.4-1.7,5.2
		c-0.1,0.4,0,0.9,0,1.3c0,0.2,0.1,0.3,0.2,0.3c0.2,0.1,0.3-0.1,0.4-0.2c1.5-1.8,3.4-3.3,5.2-4.9c0.8-0.7,1.7-1.2,2.5-1.9
		c0.6-0.5,1.3-0.5,2-0.6c1.2-0.2,2.4-0.4,3.6-0.6c3-0.4,5.9-0.8,8.8-1.8c1.8-0.6,3.6-1.2,5.3-2c2-0.9,3.6-2.4,4.9-4.2
		c0.3-0.3,0.5-0.7,0.8-1c0.4-0.4,0.8-0.9,1.2-1.4c0.3-0.4,0.6-0.5,1-0.4c0.8,0.2,1.5,0.6,2.2,0.9c1.5,0.6,2.8,1.7,4.2,2.5
		c0.2,0.1,0.2,0.3,0.2,0.6c-0.1,0.4-0.3,0.7-0.5,1.1c0,0-0.1,0-0.1,0c-0.1,0.2-0.2,0.4-0.6,0.4c-0.3,0-0.3,0.3-0.2,0.5
		c0,0.1,0,0.3,0,0.4c0.3,0.6,0.6,1.1,0.9,1.6c0.4,0.6,0.4,1.3,0.7,2.1C95.6,90.5,94.8,90,93.9,89.4z"/>
	<path class="st8" d="M89.8,80.8c-0.4-0.1-0.7,0.1-0.9,0.4c-0.3,0.5-0.7,0.9-1.1,1.3c-0.7,0.3-0.9,1.1-1.4,1.7
		c-0.8,0.8-1.4,1.7-2.6,2.1c-0.3,0.1-0.6,0.4-0.9,0.6c-0.4,0.3-0.8,0.5-1.2,0.5c-0.4,0.1-0.7,0.2-1,0.4c-1.2,0.8-2.5,1.3-3.8,1.8
		c-0.6,0.1-1.2,0.4-1.8,0.1c-0.2-0.1-0.5,0.1-0.7,0.1c-0.3,0.1-0.6,0.3-0.8-0.2c1.1-0.5,2.2-0.7,3.4-1.1c0.2-0.1,0.5-0.2,0.7-0.2
		c2.2-0.8,4.2-1.9,6.1-3.2c0.9-0.6,1.7-1.4,2.4-2.1c0.8-0.7,1.3-1.6,2-2.3c0.2-0.2,0.1-0.3-0.1-0.4C88.8,80,89.3,80.5,89.8,80.8z"/>
	<path class="st8" d="M81.6,99c0.2,0.1,0.4,0.3,0.3-0.2c-0.1-0.8-0.2-1.7-0.4-2.5c-0.2-1.2-0.3-1.1,0.9-2c0.1-0.1,0.4-0.2,0.5-0.3
		c-0.1,0.3-0.4,0.4-0.6,0.5c-0.6,0.5-0.8,1-0.5,1.9c0.3,1,0.3,2,0.3,3C81.8,99.4,81.6,99.3,81.6,99z"/>
	<path class="st8" d="M77.1,96.6c0.2-0.1,0.5-0.2,0.8-0.2c0.5-0.1,1-0.5,1.4,0.3c0.1,0.2,0.4,0.1,0.4,0.3c-0.2,0-0.4-0.1-0.5-0.1
		c-0.3-0.8-0.9-0.3-1.4-0.3C77.6,96.6,77.3,96.7,77.1,96.6z"/>
	<path class="st8" d="M95,86.8c-0.1-0.1-0.3-0.3-0.1-0.5c0.1-0.2,0.2-0.4,0.5-0.2c0.2,0.1,0.3-0.2,0.5-0.2c0,0.1-0.1,0.2-0.1,0.3
		C95.5,86.5,95.4,86.8,95,86.8z"/>
	<path class="st8" d="M96,88.8c-0.5-0.5-0.8-1.1-1-1.7c0-0.1,0.1-0.1,0.1,0C95.4,87.7,95.8,88.2,96,88.8z"/>
	<path class="st8" d="M95.1,87.1L95.1,87.1l-0.1,0c-0.1-0.1-0.1-0.2,0-0.3c0.4-0.1,0.5-0.5,0.7-0.6C95.7,86.6,95.2,86.8,95.1,87.1z"
		/>
	<path class="st8" d="M67.3,100.9c0-0.1,0-0.2,0.1-0.2c1.1,0,1.9-0.7,2.5-1.5c0.7-0.8,1-1.7,1.1-2.7c0.1-0.3,0.1-0.6,0.2-0.8
		c0.1-0.2,0.2-0.4,0.5-0.4c0.3,0.2,0.7,0.4,0.9,0.8c-0.1,0-0.2,0-0.3,0c0,0.7-0.9,0.8-1.1,1.5c-0.1,0.7-0.7,1.1-0.9,1.7
		c-0.5,0.2-1,0.6-1.3,1C68.5,100.9,67.9,101,67.3,100.9z"/>
	<path class="st8" d="M65,101.9c0.5,0.8,1,1.7,1.5,2.5c0.2,0.3,0.3,0.6,0.7,0.9c0.1-1.3-0.1-2.5-0.1-3.8c0-0.2-0.1-0.5,0.2-0.6
		c0.1,1.4,0.3,2.8,0,4.1c0,0.2,0,0.4-0.2,0.5c-0.2,0.1-0.3-0.2-0.4-0.3c-0.4-0.8-1-1.6-1.7-2.2c-0.1-0.1-0.2-0.2-0.1-0.3
		C65.2,102.5,65,102.2,65,101.9z"/>
	<path class="st8" d="M49.9,89.2c0.3,0,0.7,0.1,0.8,0.5c0.1,0.4-0.3,0.4-0.5,0.6c-0.3,0.2-0.6,0.4-0.9,0.7c0.3-0.3,0.4-0.8,1-0.9
		c0.3-0.1,0.3-0.3,0.1-0.5C50.2,89.3,49.9,89.3,49.9,89.2z"/>
	<path class="st8" d="M45.4,95.8c0,0.1,0,0.3-0.1,0.4c-0.1,0.1-0.3,0.1-0.5,0.1C44.9,95.9,45.2,95.9,45.4,95.8z"/>
	<path class="st8" d="M48.1,93.8c0,0.3-0.2,0.5-0.5,0.5C47.8,94.1,47.9,94,48.1,93.8z"/>
	<path class="st8" d="M47.5,95.8c0.5-0.3,0.9-0.2,1.2,0.4c0.4,0.8,1.2,1.4,2,1.8c0.5,0.2,0.5,0.4,0,0.6c0-0.2,0.1-0.4-0.1-0.5
		c-1-0.5-1.8-1.2-2.3-2.2C48.1,95.6,47.7,95.9,47.5,95.8z"/>
	<path class="st8" d="M54,86.4c0,0,0,0.1,0,0.1c0,0.2-0.1,0.6,0.2,0.6c0.3,0,0.3-0.3,0.4-0.6c0.1-0.4,0.2-0.9,0.3-1.3
		c0.1-0.2,0.1-0.5,0.4-0.5c-0.8,2.3-0.5,4.5,1.2,6.3c0.2,0.2,0.2,0.3,0.1,0.5c-0.4,1.2-0.6,2.5-1.3,3.5c-0.4,0.7-0.4,1.5-0.7,2.3
		c-0.2,0.5,0.1,1,0,1.5c0,0.1,0,0.3-0.1,0.4c-0.1,0.2-0.2,0.4-0.5,0.3c-0.2,0-0.3-0.2-0.3-0.5c0-0.9,0.1-1.9,0.4-2.8
		c0.4-1.2,0.8-2.4,1.2-3.7c0.2-0.5,0-0.9-0.3-1.4C54,90,53.7,88.3,54,86.4z"/>
	<path class="st8" d="M59.2,94c1-0.8,2.1-1.6,3.2-2.3c0.5-0.3,1.2-0.2,1.8-0.4c1.7-0.2,3.4-0.3,5-0.8c1.1-0.3,2.3-0.4,3.4-0.7
		c0.2-0.1,0.4-0.1,0.2,0.2c-0.1,0.2-0.4,0.3-0.6,0.3c-0.6,0.1-1.2,0.4-1.8,0.4c-0.9,0-1.8,0.3-2.5,0.4c-0.2,0.1-0.1,0.2-0.1,0.1
		c0,0,0,0,0,0c0.2-0.1,0.5-0.1,0.8-0.2c0.2,0,0.4-0.1,0.4,0.2c-0.4,0.1-0.7,0.2-1.1,0.2c-1.1,0.3-2.3,0.3-3.4,0.5
		c-0.4,0.1-0.8,0.1-1.1,0.1c-0.2-0.4-0.4-0.2-0.6,0c-1.8,1.3-3.6,2.7-5.3,4.2c-0.1,0.1-0.3,0.2-0.4,0.3c-0.1,0.1-0.3,0.2-0.5,0.3
		s-0.4,0.1-0.4-0.2c0.3-0.3,0.6-0.7,1-1c0.4-0.2,0.7-0.6,1-0.9c0.1-0.1,0.1-0.1,0.2-0.2C58.7,94.6,58.9,94.3,59.2,94z"/>
	<path class="st8" d="M63.3,92.1c1.5-0.1,3-0.3,4.5-0.6c0.1,0,0.1,0.1,0,0.2c-1.4,0.3-2.9,0.5-4.4,0.7c-0.5,0-0.8,0.2-1.1,0.4
		c-2.4,1.8-4.8,3.7-6.9,5.9c-0.3,0.3-0.6,0.7-0.9,1c-0.3,0.4-0.6,0.3-0.8-0.2c-0.1-0.3-0.1-0.6-0.1-0.9c0.2-2.1,0.8-4,1.7-5.8
		c-0.1,1.3-0.6,2.5-1.1,3.7c-0.3,0.9-0.5,1.7-0.5,2.7c0,0.2,0,0.5,0.4,0.4c0.3,0,0.3-0.3,0.3-0.5c0-0.6,0-1.1,0.2-1.7
		c0.2,0.2-0.3,0.6,0.2,0.6c0.8-0.2,1.4-0.9,2-1.4c0.1-0.2,0.2-0.2,0.4-0.2c1.7-1.5,3.5-2.8,5.3-4.2C62.8,92.1,63,91.9,63.3,92.1z"/>
	<path class="st8" d="M68.9,91.4c-0.4-0.3-0.9,0.2-1.4-0.1c0.9-0.2,1.7-0.5,2.6-0.6c0.8,0,1.7-0.2,2.5-0.7c0.2-0.1,0-0.1-0.1-0.2
		c0.3-0.2,0.7-0.2,1-0.2c0.1,0.2,0.3,0.2,0.4,0.1c1-0.5,2,0.2,3-0.2c0,0.3-0.4,0.3-0.6,0.4c-2.1,0.7-4.3,1.1-6.5,1.4
		C69.5,91.3,69.2,91.6,68.9,91.4z"/>
	<path class="st8" d="M63.6,88.1c0,1.3-0.4,1.8-1.7,2.1c-0.2,0.1-0.2-0.1-0.3-0.2c0-0.1,0-0.2,0.1-0.3c0.9-0.9,1.2-2,0.8-3.3
		c0-0.1,0-0.2,0.1-0.3c0.1,0,0.2,0.1,0.3,0.2C63.4,86.8,63.7,87.4,63.6,88.1z"/>
	<path class="st8" d="M86.2,83c-0.8,1.1-2,1.9-3.1,2.7c-1.7,1.2-3.5,2.1-5.5,2.6c0.7-0.4,1.5-0.8,2.2-1.2c1-0.5,1.8-1.3,2.8-1.6
		C84.1,85,85,83.9,86.2,83z"/>
	<path class="st8" d="M57,96.7c-0.4,0.7-1.1,1.1-1.8,1.5C55.1,98.3,55,98.1,55,98c0.3-0.4,0.6-0.8,1.1-1.2
		C56.5,97.2,56.7,96.8,57,96.7z"/>
	<path class="st8" d="M64.1,91.4c-0.6,0.1-1.2,0.2-1.8,0.4C62.9,91.3,63.5,91.4,64.1,91.4z"/>
	<path class="st8" d="M58.1,95c-0.2,0.4-0.5,0.8-1,0.9C57.4,95.6,57.7,95.3,58.1,95z"/>
	<path class="st8" d="M59.2,94c-0.2,0.4-0.4,0.7-0.9,0.8C58.6,94.5,58.8,94.2,59.2,94z"/>
	<path class="st8" d="M63.4,94.8C63,95.9,62.9,97,63.3,98c0.4,1,1.6,1.2,2.4,0.5c0.6-0.6,0.9-1.3,0.8-2.1c-0.1-0.5-0.5-0.6-0.9-0.6
		c-0.6,0-0.9,0.3-1,0.9c-0.1,0.4,0,0.7,0.5,0.8c0.1,0,0.2,0.1,0.1,0.2c-0.8,0.3-1.3,0-1.2-0.9c0.1-0.9,0.8-1.6,1.8-1.5
		c1,0.1,1.5,0.6,1.5,1.6c0,0.9-0.4,1.7-1.1,2.3c-1.3,1.1-3.1,0.5-3.5-1.1c-0.3-1.4-0.1-2.7,0.8-3.8c0.1,0,0.2-0.2,0.3-0.1
		c0.1,0.1,0.1,0.2,0,0.3v0C63.5,94.4,63.5,94.7,63.4,94.8z"/>
	<path class="st8" d="M76.8,92.5c0.1,0.2,0.2,0.5,0.2,0.8c0.4,1.1,1,1.4,2,0.9c0.3-0.2,0.6-0.4,0.8-0.8c0.2-0.4,0.4-0.9,0-1.3
		c-0.3-0.3-0.8-0.3-1.2-0.1c-0.5,0.2-0.5,0.7-0.6,1.2c0,0.2,0.5,0.4,0,0.5c-0.4,0.1-0.6-0.2-0.7-0.5c-0.2-0.6,0.3-1.6,0.9-1.8
		c0.6-0.3,1.7-0.2,2,0.2c0.5,0.6,0.4,1.2,0.2,1.9c-0.4,1-1.5,1.7-2.6,1.5c-0.5-0.1-0.9-0.3-1.1-0.7c-0.5-1-0.9-2.1-0.1-3.2
		c0.1-0.1,0.2-0.3,0.4-0.2c0.1,0,0.1,0.1,0,0.2c-0.1,0.2-0.2,0.4-0.2,0.6C76.7,92,76.7,92.2,76.8,92.5z"/>
	<path class="st8" d="M51.7,93.1c1.1-0.1,2,1.3,1.7,2.3c-0.1,0.2-0.3,0.3-0.5,0.5c-0.8,0.4-1.6,0.1-2.2-0.7c-0.6-0.9-0.6-2.1,0-2.6
		c0.6-0.5,2-0.7,2.7-0.3c0.1,0.1,0.3,0.2,0.4,0.4c0.1,0.2,0.1,0.3,0,0.7c-0.7-0.9-1.5-0.6-2.3-0.3c0,0.1-0.1,0.1-0.1,0.2
		C51.5,93.1,51.6,93.2,51.7,93.1z"/>
	<path class="st8" d="M68.9,91.4c2.5-0.3,4.9-0.8,7.3-1.5c0.2-0.1,0.5-0.1,0.7-0.3c1.3-0.5,2.6-1.1,3.8-1.9c0.3-0.2,0.5-0.3,0.8-0.4
		c0.7-0.1,1.2-0.5,1.8-0.9c0.1-0.1,0.2-0.2,0.4-0.2c1.5-0.5,2.3-1.7,3.1-2.9c0.2-0.3,0.4-0.8,1-0.7c-1.2,1.8-2.6,3.2-4.3,4.5
		c-1.2,0.9-2.7,1.3-4.1,1.9c-3.6,1.5-7.3,2.2-11.2,2.7c-0.1,0-0.2,0-0.4,0c0-0.1,0-0.1,0-0.2C68.2,91.5,68.5,91.4,68.9,91.4z"/>
	<path class="st8" d="M92.8,87.4c-0.4,0.8-1,1.3-1.9,1.2c-0.9,0-1.7-0.6-2-1.4c-0.5-1.3-0.5-2.6,0.5-3.7c0.1-0.1,0.1-0.1,0.2,0
		c0.1,0.2,0,0.3-0.1,0.4c-0.6,1.4-0.4,2.8,0.6,3.6c0.2,0.1,0.4,0.1,0.6,0.2c0,0,0.1,0,0.1,0.1c0.2,0.1,0.4,0,0.5-0.1
		c1-0.5,1.2-1.1,0.9-1.9c-0.3-0.4-0.6-0.2-1-0.1c0,0-0.1,0.1-0.1,0.1c-0.2,0.1-0.3,0.3-0.4,0.5c0,0.1,0,0.1,0,0.2
		c-0.1,0.2,0,0.4,0,0.6c0,0.1,0,0.1,0,0.2c-0.2,0.3-0.3,0.1-0.4-0.1c-0.2-0.5,0-1,0.2-1.5c0,0,0.1-0.1,0.1-0.1
		c0.4-0.2,0.9-0.3,1.4-0.3c0.7,0,1,0.3,1.1,1C93,86.6,92.9,87,92.8,87.4z"/>
	<path class="st8" d="M53.8,100.5c-0.7,0.1-0.8,0.6-0.9,1.2c-0.1,0.5,0.3,1.3,0.7,1.4c0.6,0.2,1,0,1.5-0.4c0.1-0.1,0.2-0.2,0.1-0.4
		c-0.1-0.2-0.3-0.2-0.4-0.2c-0.2,0.1-0.4,0.2-0.6,0.3c-0.1,0.1-0.3,0.3-0.5,0.1s-0.2-0.4,0-0.6c0.3-0.4,0.7-0.6,1.2-0.6
		c0.4,0,0.9,0.2,1,0.7c0.1,0.5-0.1,0.8-0.5,1.1c-0.6,0.6-1.3,0.7-2.1,0.5c-0.8-0.3-1-1-1.1-1.7c-0.1-0.7,0.1-1.4,0.8-1.8
		c0.3-0.1,0.6-0.1,0.9,0C54,100.4,53.9,100.4,53.8,100.5z"/>
	<path class="st8" d="M52.8,84.8c-0.6-0.7-1.2-0.6-1.9-0.3c-0.1,0.1-0.2,0.2-0.3,0.3c-0.7,0.4-0.7,0.5-0.6,1.3
		c0.1,0.4,0.5,0.6,0.9,0.8c0.2,0.1,0.4,0.1,0.6,0c0.1-0.1,0.2-0.1,0.3-0.1c0.1,0.1,0.2,0.1,0.2,0.3c0,0.2-0.2,0.2-0.3,0.3h0
		c-0.3,0-0.6,0.2-0.9,0.1c-0.8-0.1-1.5-0.7-1.7-1.5c-0.2-0.8,0.1-1.5,0.9-1.9c0.7-0.4,1.5-0.5,2.3-0.3c0.1,0.1,0.3,0.1,0.5,0.3
		c0.1,0.1,0.2,0.2,0.3,0.4C53,84.6,53.1,84.8,52.8,84.8z"/>
	<path class="st8" d="M51.8,87.1l-0.1-0.3c0,0,0,0,0-0.1c0.1-0.1,0.2-0.2,0.2-0.4c-0.2-0.9-0.5-1-1.2-0.4c-0.3,0.3-0.5,0.3-0.8-0.2
		c0-0.7,0.3-1.1,1-1.1c0.2,0,0.5-0.1,0.7,0.1c0.5,0.2,0.6,0.7,0.8,1.1c0.2,0.3-0.1,0.6-0.1,0.9l0,0C52.2,86.8,52.1,87.1,51.8,87.1z"
		/>
	<path class="st8" d="M51.7,84.8c-0.3,0-0.6-0.1-0.9,0c-0.5,0.2-0.8,0.5-0.7,1.1c-0.3,0-0.1-0.2-0.2-0.4c-0.1,0.2,0.1,0.4-0.1,0.6
		c-0.4-0.6,0-1.4,1-1.6C51.1,84.8,51.5,84.4,51.7,84.8z"/>
	<path class="st8" d="M92.8,87.4c0-0.3,0.1-0.6,0.1-0.9c0-1-0.6-1.4-1.6-1.2c-0.2,0.1-0.5,0.1-0.8,0.2c0.6-0.5,1.2-0.5,1.9-0.3
		C93,85.4,93.2,86.5,92.8,87.4z"/>
	<path class="st8" d="M90.4,85.6c0,0.5-0.4,1-0.1,1.5c0,0.1,0.1,0.2,0.2,0.2c0.1,0,0.1-0.2,0.1-0.3c0.3,0.1,0.4,0.3,0.4,0.6
		c-0.1,0.2-0.2,0.2-0.4,0.2c-0.2-0.1-0.3-0.2-0.4-0.4C89.9,86.7,90,86.1,90.4,85.6z"/>
	<path class="st8" d="M63.6,94.3c0-0.2-0.2-0.2-0.3-0.2c0.2-0.4,0.6-0.6,1-0.7c0.1-0.1,0.2,0,0.1,0.1C64.2,93.8,63.9,94.1,63.6,94.3
		z"/>
	<path class="st8" d="M71.7,95.3c-0.5,0.2-0.4,0.9-0.7,1.2c0-0.5-0.1-1,0.5-1.3C71.6,95.2,71.7,95.2,71.7,95.3z"/>
	<path class="st8" d="M77,91.1c-0.1-0.4-0.3,0.1-0.4,0c0.3-0.4,0.4-0.9,1.1-0.8C77.3,90.4,77.4,90.9,77,91.1z"/>
	<path class="st8" d="M53.9,100.4c-0.3-0.2-0.6-0.1-0.9-0.1c0.6-0.3,1.2-0.2,1.9,0C54.6,100.6,54.2,100.4,53.9,100.4z"/>
	<path class="st8" d="M89.4,83.9c-0.1-0.1,0.2-0.3-0.1-0.4c0.2-0.2,0.5-0.4,0.8-0.4c0.1-0.1,0.3-0.1,0.3,0.1
		C90,83.3,89.7,83.6,89.4,83.9z"/>
	<path class="st8" d="M53.9,100.4c0.3,0,0.7,0,1-0.1c0.1,0,0.1,0,0.2,0c0.1,0.1,0,0.2-0.1,0.2c-0.4,0-0.8,0-1.1,0.1
		C53.8,100.4,53.9,100.4,53.9,100.4z"/>
	<path class="st8" d="M52.8,84.8c0.2-0.1,0.1-0.2,0.2-0.4c0.3,0.2,0.2,0.5,0.2,0.8C52.9,85.1,52.8,84.9,52.8,84.8z"/>
	<path class="st8" d="M51.8,87.1c0.2-0.1,0.4-0.2,0.5-0.3c-0.1,0.4-0.4,0.5-0.8,0.6C51.6,87.2,51.7,87.1,51.8,87.1z"/>
	<path class="st8" d="M51.7,93.1c-0.2,0.1-0.3,0.2-0.6,0.4c0-0.3,0.2-0.5,0.5-0.5C51.6,93,51.7,93.1,51.7,93.1z"/>
	<path class="st8" d="M90.2,87.3c0.1,0.1,0.2,0.2,0.4,0.3c0,0,0.1,0.1,0.2,0.1c0,0.1,0,0.1,0,0.1c-0.3,0-0.5-0.1-0.6-0.4
		C90.1,87.4,90.1,87.4,90.2,87.3z"/>
	<path class="st8" d="M52.3,86.7c0-0.3,0.1-0.6,0.1-0.9C52.7,86.2,52.5,86.5,52.3,86.7z"/>
	<path class="st8" d="M50.7,87.5c0.3,0,0.6-0.2,0.9-0.1C51.3,87.5,51,87.6,50.7,87.5z"/>
	<path class="st8" d="M64.5,93.6l-0.1-0.1c0.1-0.1,0.3-0.1,0.5-0.1C64.8,93.6,64.7,93.6,64.5,93.6z"/>
	<path class="st8" d="M65.1,97.6c0-0.1-0.1-0.1-0.1-0.2c0.1,0,0.3-0.1,0.4,0.1C65.4,97.6,65.2,97.7,65.1,97.6z"/>
	<path class="st8" d="M90.4,83.3l-0.3-0.1c0.2-0.1,0.3-0.2,0.5,0C90.7,83.2,90.5,83.3,90.4,83.3z"/>
	<path class="st8" d="M76.8,92.5c-0.2-0.2-0.2-0.5,0-0.7C76.8,92,76.8,92.2,76.8,92.5z"/>
	<path class="st8" d="M53.8,92.6c-0.2-0.1-0.3-0.2-0.4-0.4C53.6,92.3,53.8,92.4,53.8,92.6z"/>
	<path class="st8" d="M63.4,94.8c0-0.2,0-0.4,0.3-0.4C63.6,94.5,63.5,94.7,63.4,94.8z"/>
	<path class="st8" d="M52.7,84c-0.2,0-0.4-0.1-0.5-0.3C52.4,83.7,52.6,83.8,52.7,84z"/>
	<path class="st8" d="M63.3,92.1c-0.9,0.2-1.4,0.9-2.1,1.4c-1.3,0.9-2.5,2-3.8,2.9c0.5-0.7,1.3-1.2,2-1.8c1.1-1,2.3-1.8,3.5-2.7
		c0.1-0.1,0.2-0.2,0.4-0.1C63.4,91.9,63.3,92,63.3,92.1z"/>
	<path class="st8" d="M52.3,95.4c-0.5,0-1.2-0.7-1.2-1.2c0-0.2,0.9-0.4,1.1-0.3c0.4,0.2,0.6,0.6,0.6,1.1
		C52.9,95.4,52.6,95.4,52.3,95.4z"/>
	<path class="st8" d="M90.7,87.8C90.7,87.8,90.7,87.8,90.7,87.8c0.1-0.2,0.4-0.2,0.3-0.4c-0.1-0.2-0.2-0.3-0.4-0.5l0,0
		c-0.1-0.2-0.1-0.4,0-0.6v0c0-0.3,0.1-0.6,0.5-0.7l0,0c0.4-0.2,0.8-0.2,1.2,0c0.4,1,0.2,1.6-1,2.2C91.1,87.9,90.9,87.9,90.7,87.8
		L90.7,87.8z"/>
	<path class="st8" d="M92.2,85.6c-0.4-0.2-0.8-0.1-1.2,0C91.5,85.3,91.9,85.2,92.2,85.6z"/>
	<path class="st8" d="M91.1,85.6c-0.3,0.2-0.4,0.5-0.5,0.7C90.5,86,90.6,85.6,91.1,85.6z"/>
	<path class="st8" d="M90.7,87.8c0.2,0,0.4,0,0.6,0C91.1,88,90.9,88,90.7,87.8z"/>
	<path class="st8" d="M90.6,86.4c0,0.2,0,0.4,0,0.6C90.3,86.7,90.4,86.5,90.6,86.4z"/>
	<path class="st8" d="M49.8,86.1v-0.8c0.2,0.2,0,0.5,0.2,0.6c0.2,0.2,0.4,0.3,0.6-0.1c0.1-0.2,0.5-0.5,0.8-0.3
		c0.4,0.2,0.6,0.6,0.6,1c-0.1,0.2-0.2,0.3-0.4,0.4h0c-0.1,0-0.2,0-0.2,0.1c-0.2,0.2-0.5,0.1-0.7,0C50.4,86.7,50,86.6,49.8,86.1z"/>
	<path class="st8" d="M50.7,86.9c0.2,0,0.5,0,0.7,0C51.2,87.2,51,87.1,50.7,86.9z"/>
	<path class="st8" d="M51.7,86.8c0.1-0.1,0.2-0.3,0.4-0.4C52.1,86.7,52,86.8,51.7,86.8z"/>
	<path class="st8" d="M90.9,87.4c0.1,0,0.2,0.1,0.1,0.2c-0.1,0.1-0.2,0.1-0.4,0.1c0-0.1-0.1-0.1-0.2-0.1
		C90.7,87.6,90.9,87.7,90.9,87.4z"/>
</g>
</svg>
