<?xml version="1.0" encoding="utf-8"?>
<!-- Generator: Adobe Illustrator 27.0.0, SVG Export Plug-In . SVG Version: 6.00 Build 0)  -->
<svg version="1.1" xmlns="http://www.w3.org/2000/svg" xmlns:xlink="http://www.w3.org/1999/xlink" x="0px" y="0px"
	 viewBox="0 0 136.7 133.07" style="enable-background:new 0 0 136.7 133.07;" xml:space="preserve">
<style type="text/css">
	.st0{fill:#FFFFFF;}
	.st1{fill:#EEC919;}
	.st2{fill:none;stroke:#1D76BB;stroke-width:0.1928;stroke-linecap:round;stroke-linejoin:round;stroke-miterlimit:10;}
	.st3{fill:#28A8E0;}
	.st4{fill:#1D76BB;}
	.st5{fill-rule:evenodd;clip-rule:evenodd;fill:#1668B1;}
	.st6{fill:#797979;}
	.st7{fill:#00A651;}
	.st8{fill:#0B0C0E;}
	.st9{fill:#010101;}
	.st10{fill:#050505;}
	.st11{fill:#020202;}
	.st12{fill:#080A0C;}
	.st13{fill:#0A0B0D;}
	.st14{fill:#080808;}
	.st15{fill:#0F1112;}
	.st16{fill:#101212;}
	.st17{fill:#0E1011;}
	.st18{fill:#A3795F;}
	.st19{fill:#D2AA91;}
	.st20{fill:#060506;}
	.st21{fill:#D1A990;}
	.st22{fill:#060606;}
	.st23{fill:#0B0B0B;}
	.st24{fill:#110F0E;}
	.st25{fill:#D0A891;}
	.st26{fill:#181412;}
	.st27{fill:#BA967F;}
	.st28{fill:#101010;}
	.st29{fill:#1C1715;}
	.st30{fill:#8D7262;}
	.st31{fill:#303230;}
	.st32{fill:#474E47;}
	.st33{fill:#3A453A;}
	.st34{fill:#B7947D;}
	.st35{fill:#5E6C42;}
	.st36{fill:#BC9882;}
	.st37{fill:#BA9680;}
	.st38{fill:#AD8B77;}
	.st39{fill:#A28B70;}
	.st40{fill:#917564;}
	.st41{fill:#7B6555;}
	.st42{fill:#534339;}
	.st43{fill:#56453B;}
	.st44{fill:#D5AB92;}
	.st45{fill:#A3775E;}
	.st46{fill:#A2785E;}
	.st47{fill:#050706;}
	.st48{fill:#0A0808;}
	.st49{fill:#CCA48C;}
	.st50{fill:#090909;}
	.st51{fill:#171412;}
	.st52{fill:#13110F;}
	.st53{fill:#CAA28A;}
	.st54{fill:#C49E87;}
	.st55{fill:#413026;}
	.st56{fill:#1A1614;}
	.st57{fill:#9B7D6B;}
	.st58{fill:#0D0B0B;}
	.st59{fill:#9A6D57;}
	.st60{fill:#EDEBE8;}
	.st61{fill:#8D6751;}
	.st62{fill:#2A2320;}
	.st63{fill:#34261E;}
	.st64{fill:#1B1512;}
	.st65{fill:#362920;}
	.st66{fill:#181A12;}
	.st67{fill:#382920;}
	.st68{fill:#37291F;}
	.st69{fill:#342923;}
	.st70{fill:#575453;}
	.st71{fill:#A2948B;}
	.st72{fill:#1D1715;}
	.st73{fill:#211C18;}
	.st74{fill:#443F3D;}
	.st75{fill:#403F3F;}
	.st76{fill:#5F5E5E;}
	.st77{fill:#1E1E1E;}
	.st78{fill:#553F31;}
	.st79{fill:#B3B3B3;}
	.st80{fill:#46352B;}
	.st81{fill:#83604C;}
	.st82{fill:#0E0F12;}
	.st83{fill:#ECEDED;}
	.st84{fill:#17181A;}
	.st85{fill:#222226;}
	.st86{fill:#BCBCBC;}
	.st87{fill:#DCDCDC;}
	.st88{fill:#262525;}
	.st89{fill:#C29C82;}
	.st90{fill:#09090B;}
	.st91{fill:#030303;}
	.st92{fill:#D2A891;}
	.st93{fill:#040404;}
	.st94{fill:#090A0C;}
	.st95{fill:#070606;}
	.st96{fill:#0B0A0A;}
	.st97{fill:#9E6F58;}
	.st98{fill:#D1A991;}
	.st99{fill:#D1A790;}
	.st100{fill:#080707;}
	.st101{fill:#100E0D;}
	.st102{fill:#D0A68D;}
	.st103{fill:#1B1612;}
	.st104{fill:#CCA38C;}
	.st105{fill:#CAA18A;}
	.st106{fill:#28201B;}
	.st107{fill:#241D18;}
	.st108{fill:#E7E6E5;}
	.st109{fill:#454544;}
	.st110{fill:#1A1817;}
	.st111{fill:#1F1813;}
	.st112{fill:#33251D;}
	.st113{fill:#C29C84;}
	.st114{fill:#C89F87;}
	.st115{fill:#E9E8E8;}
	.st116{fill:#2E211A;}
	.st117{fill:#362E2A;}
	.st118{fill:#292624;}
	.st119{fill:#211913;}
	.st120{fill:#3D3732;}
	.st121{fill:#464646;}
	.st122{fill:#463A31;}
	.st123{fill:#946E56;}
	.st124{fill:#191411;}
	.st125{fill:#E4E4E4;}
	.st126{fill:#2F2823;}
	.st127{fill:#3B2B22;}
	.st128{fill:#252424;}
	.st129{fill:#262320;}
	.st130{fill:#745948;}
	.st131{fill:#333231;}
	.st132{fill:#1E1917;}
	.st133{fill:#46362B;}
	.st134{fill:#1D1613;}
	.st135{fill:#3C2C22;}
	.st136{fill:#3E3834;}
	.st137{fill:#4F4D4D;}
	.st138{fill:#F4F4F4;}
	.st139{fill:#E3E2E0;}
	.st140{fill:#37281F;}
	.st141{fill:#DDDAD9;}
	.st142{fill:#211915;}
	.st143{fill:#3A2D26;}
	.st144{fill:#3E2E23;}
	.st145{fill:#2A1E18;}
	.st146{fill:#E4E2E2;}
	.st147{fill:#D6D3D0;}
	.st148{fill:#4A362B;}
	.st149{fill:#33251E;}
	.st150{fill:#31241D;}
	.st151{fill:#3C2D23;}
	.st152{fill:#3F2E24;}
	.st153{fill:#3D3D3D;}
	.st154{fill:#7D5F4D;}
	.st155{fill:#34251E;}
	.st156{fill:#201F1F;}
	.st157{fill:#CDC5C0;}
	.st158{fill:#161211;}
	.st159{fill:#453932;}
	.st160{fill:#636363;}
	.st161{fill:#B58A71;}
	.st162{fill:#DED7D3;}
	.st163{fill:#656260;}
	.st164{fill:#C8BFBA;}
	.st165{fill:#CCCAC8;}
	.st166{fill:#513B2E;}
	.st167{fill:#D8CBC4;}
	.st168{fill:#382A23;}
	.st169{fill:#E7DFDA;}
	.st170{fill:#30271F;}
	.st171{fill:#A19D9C;}
	.st172{fill:#402F25;}
	.st173{fill:#0D0E10;}
	.st174{fill:#0D0E11;}
	.st175{fill:#0B0B0E;}
	.st176{fill:#0E0F11;}
	.st177{fill:#121316;}
	.st178{fill:#D3D3D3;}
	.st179{fill:#17181C;}
	.st180{fill:#2B2D2F;}
	.st181{fill:#DBDADA;}
	.st182{fill:#2B2B2F;}
	.st183{fill:#252629;}
	.st184{fill:#4C4E50;}
	.st185{fill:#636466;}
	.st186{fill:#2B2C2E;}
	.st187{fill:#1C1D21;}
	.st188{fill:#7B7B7D;}
	.st189{fill:#BABABA;}
	.st190{fill:#505153;}
	.st191{fill:#929394;}
	.st192{fill:#5C5E60;}
	.st193{fill:#393B3D;}
	.st194{fill:#100F0E;}
	.st195{fill:#191514;}
	.st196{fill:#1C1A19;}
	.st197{fill:#2B2725;}
	.st198{fill:#D5E9D6;}
	.st199{fill:#151312;}
	.st200{fill:#161311;}
	.st201{fill:#252624;}
	.st202{fill:#282828;}
	.st203{fill:#1B1B1B;}
	.st204{fill:#434140;}
	.st205{fill:#272626;}
	.st206{fill:#424242;}
	.st207{fill:#303030;}
	.st208{fill:#4D4D4D;}
	.st209{fill:#4B4B4B;}
	.st210{fill:#656565;}
	.st211{fill:#0F0F0E;}
	.st212{fill:#0C0B0B;}
	.st213{fill:#111111;}
	.st214{fill:#D3AA92;}
	.st215{fill:#F5F6F6;}
	.st216{fill:#343434;}
	.st217{fill:#565656;}
	.st218{fill:#3E3E3E;}
	.st219{fill:#CDC0B7;}
	.st220{fill:#272727;}
	.st221{fill:#0A0909;}
	.st222{fill:#141211;}
	.st223{fill:#3D322A;}
	.st224{fill:#D0A78E;}
	.st225{fill:#211E1C;}
	.st226{fill:#D0A68E;}
	.st227{fill:#221B18;}
	.st228{fill:#CAA188;}
	.st229{fill:#31231B;}
	.st230{fill:#271D17;}
	.st231{fill:#282320;}
	.st232{fill:#E9E7E6;}
	.st233{fill:#3A2B21;}
	.st234{fill:#3B3734;}
	.st235{fill:#31241C;}
	.st236{fill:#966F57;}
	.st237{fill:#443227;}
	.st238{fill:#4F3A2E;}
	.st239{fill:#2F2925;}
	.st240{fill:#2C211C;}
	.st241{fill:#1F1712;}
	.st242{fill:#48362A;}
	.st243{fill:#241D19;}
	.st244{fill:#312C29;}
	.st245{fill:#735442;}
	.st246{fill:#4D392D;}
	.st247{fill:#26211E;}
	.st248{fill:#523E32;}
	.st249{fill:#583E31;}
	.st250{fill:#D3CECB;}
	.st251{fill:#946A53;}
	.st252{fill:#3D2E26;}
	.st253{fill:#433227;}
	.st254{fill:#4A372B;}
	.st255{fill:#8B6751;}
	.st256{fill:#090808;}
	.st257{fill:#594234;}
	.st258{fill:#3C2F28;}
	.st259{fill:#8D6852;}
	.st260{fill:#4C382C;}
	.st261{fill:#563E31;}
	.st262{fill:#563F32;}
	.st263{fill:#533D30;}
	.st264{fill:#5D4536;}
	.st265{fill:#483529;}
	.st266{fill:#423126;}
	.st267{fill:#564032;}
	.st268{fill:#614738;}
	.st269{fill:#4A4949;}
	.st270{fill:#424241;}
	.st271{fill:#616262;}
	.st272{fill:#6A6A6A;}
	.st273{fill:#505050;}
	.st274{fill:#575757;}
	.st275{fill:#5D5D5D;}
	.st276{fill:#606060;}
	.st277{fill:#484645;}
	.st278{fill:#595959;}
	.st279{fill:#727171;}
	.st280{fill:#E2E2E2;}
	.st281{fill:#525252;}
	.st282{fill:#5E5E5E;}
	.st283{fill:#C0BFBF;}
	.st284{fill:#5E5F5F;}
	.st285{fill:#423733;}
	.st286{fill:#464645;}
	.st287{fill:#444444;}
	.st288{fill:#D9D9DA;}
	.st289{fill:#6D6E6E;}
	.st290{fill:#333333;}
	.st291{fill:#373737;}
	.st292{fill:#666666;}
	.st293{fill:#434343;}
	.st294{fill:#787878;}
	.st295{fill:#313132;}
	.st296{fill:#3F3F3F;}
	.st297{fill:#2B2B2C;}
	.st298{fill:#939393;}
	.st299{fill:#322822;}
	.st300{fill:#231D18;}
	.st301{fill:#483A31;}
	.st302{fill:#302821;}
	.st303{fill:#936E57;}
	.st304{fill:#EEEDEE;}
	.st305{fill:#B9B9B9;}
	.st306{fill:#2B2C2B;}
	.st307{fill:#574033;}
	.st308{fill:#D2CFCE;}
	.st309{fill:#92796B;}
	.st310{fill:#49362B;}
	.st311{fill:#896755;}
	.st312{fill:#D0D1D1;}
	.st313{fill:#494949;}
	.st314{fill:#D8D9D8;}
	.st315{fill:#555554;}
	.st316{fill:#CFCBCA;}
	.st317{fill:#414140;}
	.st318{fill:#C9C9C9;}
	.st319{fill:#B5B5B5;}
	.st320{fill:#F6F6F6;}
	.st321{fill:#FBFCFC;}
	.st322{fill:#B3B3B5;}
	.st323{fill:#F9F9FA;}
	.st324{fill:#0C0A0A;}
	.st325{fill:#2B231E;}
	.st326{fill:url(#SVGID_1_);}
	.st327{fill:#67318E;}
	.st328{fill:#F15A29;}
	.st329{fill:#4853A4;}
	.st330{fill:none;stroke:#000000;stroke-miterlimit:10;}
	.st331{fill:url(#SVGID_00000150104583053793107240000003289855883157384107_);}
	.st332{fill:none;}
	.st333{fill:#663795;}
</style>
<g id="Layer_2">
</g>
<g id="Layer_1">
	<g>
		<linearGradient id="SVGID_1_" gradientUnits="userSpaceOnUse" x1="17.4767" y1="65.7114" x2="118.4877" y2="65.7114">
			<stop  offset="0" style="stop-color:#0F0F0F"/>
			<stop  offset="1" style="stop-color:#000000"/>
		</linearGradient>
		<path class="st326" d="M24.4,108.28c-1.52-2.97-2.68-6.13-3.61-9.36c-0.94-3.22-1.61-6.54-2.04-9.89
			c-0.4-3.35-0.56-6.75-0.41-10.15c0.14-3.4,0.63-6.79,1.38-10.13c0.36-1.68,0.86-3.31,1.36-4.96c0.58-1.61,1.15-3.24,1.88-4.79
			c0.65-1.59,1.5-3.09,2.28-4.62c0.9-1.46,1.71-2.99,2.72-4.37c1.88-2.89,4.18-5.45,6.49-7.98c1.23-1.19,2.42-2.43,3.7-3.55
			c1.31-1.1,2.54-2.28,3.94-3.29c5.44-4.14,11.51-7.62,18.12-9.64c3.28-1.07,6.69-1.71,10.1-2.1c3.42-0.42,6.87-0.39,10.28-0.09
			c6.83,0.55,13.45,2.45,19.63,5.13c6.15,2.75,11.99,6.22,17.01,10.63c-5.55-3.69-11.53-6.62-17.73-8.8
			c-6.19-2.19-12.64-3.58-19.11-3.84c-6.46-0.25-12.94,0.56-19,2.67c-6.11,1.98-11.75,5.25-16.85,9.2c-1.32,0.93-2.5,2.05-3.75,3.08
			c-1.23,1.05-2.35,2.22-3.53,3.32c-2.21,2.35-4.36,4.77-6.19,7.42c-0.99,1.27-1.78,2.68-2.67,4.03c-0.77,1.41-1.6,2.8-2.25,4.27
			c-1.39,2.9-2.55,5.93-3.4,9.05c-1.72,6.24-2.39,12.8-2.04,19.35c0.14,3.28,0.56,6.55,1.16,9.8c0.29,1.63,0.67,3.24,1.09,4.84
			C23.36,105.12,23.82,106.72,24.4,108.28z"/>
	</g>
	<g>
		<path d="M53.01,64.23c0,0,2.42,0.15,5.74,0.37c0.8-1.89,1.67-3.78,2.6-5.63l-10.59-0.1c0,0-0.51,0.79-0.21,1.88
			S53.01,64.23,53.01,64.23z"/>
		<path d="M92.55,65.49c0,0,0.21-1.63-1.48-3.86c-0.24-0.31-0.48-0.58-0.71-0.82c-1.44-1.46-2.75-1.6-2.75-1.6l-2.94-0.03
			c-0.92,2.2-1.8,4.51-2.71,6.88c-0.6,1.56-1.2,3.13-1.82,4.7c-0.03,0.97-0.05,2.03-0.01,3.06c0.01,0.33,0.03,0.65,0.04,0.96
			c1.29,0.33,2.21,0.85,2.21,1.37c2.61,5.22-0.87,10.45-4.35,14.8c-0.87,0.65-1.79,1.09-2.75,1.37l8.61,9.07l6,10.42h21.81
			L92.56,90.5L92.55,65.49z"/>
	</g>
	<g>
		<g>
			<path d="M34.88,100.49c-0.04,0.37-0.38,1-0.57,1s-3.34-0.38-4.17,0.15c0,0,2.12-1.19,2.62-1.88c0.49-0.7,0.65-0.67,0.65-0.67
				s1.51,0.25,1.95,0c0.44-0.25,7.05-1.55,8.39-2.38c1.34-0.83,8.32-3.17,12.66-8.03c2.56-2.87,4.4-4.9,6.27-8.19l-6.39-6.74
				c-1.13,3.11-2.13,6.03-3.08,8.53c-0.27,0.72-0.57,1.4-0.87,2.05c0.07,0.24,0.14,0.49,0.22,0.78c0.99,3.71,0,5.42,0,5.42
				s-0.51-0.25-0.85-2.58c-0.1-0.65-0.23-1.21-0.38-1.69c-6.1,10.62-16.65,11.04-18.89,11.04c-1.8,2.35-7.41,6.07-7.41,6.07
				c3.15-0.87,9.48,0,9.48,0s2.13-2.63,4.94-4.32c0.16-0.1,0.35-0.17,0.56-0.22C37.76,99.43,34.91,100.21,34.88,100.49z"/>
		</g>
		<g>
			<path d="M88.28,39.17c-7.44,0-13.21,3.24-17.82,8.08c0.25,0.94,0.47,2.37,0.42,4.47c-0.12,4.57-1.12,4.62-1.12,4.62
				s-0.39-2.87-0.5-4.76c-0.05-0.77-0.25-1.64-0.49-2.42c-4.27,5.17-7.44,11.71-10,18.06c0.25,0.02,0.51,0.05,0.78,0.08
				c3.83,0.49,4.7,1.23,5.8,2.4c0.14,0.15,0.28,0.3,0.45,0.46c0.31,0.3,0.66,0.66,1.03,1.06c0.01-0.02,0.01-0.03,0.02-0.05
				C70.7,60.92,75.3,56.3,77.15,54.48s5.49-4.41,5.49-4.41s-2.66,2.88-4.74,4.85c-2.07,1.97-6.62,10.79-8.09,13.43
				c-0.49,0.88-1.09,2.37-1.8,4.11c0.87,0.93,1.75,1.86,2.48,2.52c1.97,1.78,3.77,2.94,5.24,3.41c2.16-4.42,3.91-9.11,5.64-13.63
				c-0.26-0.08-0.55-0.15-0.93-0.2c-1.16-0.15-2.67,0.52-2.67,0.52s1.21-1.25,2.17-2.02s2.25-0.54,2.25-0.54v0.11
				c1.7-4.39,3.44-8.54,5.55-12c7.34-12.05,28.06-3.15,28.06-3.15S110.41,39.17,88.28,39.17z"/>
		</g>
		<g>
			<path d="M63.83,81.72c-0.36,0.63-0.73,1.22-1.11,1.76c-3.17,4.53-10.58,11.13-12.6,12.05c-2.01,0.92-6.34,2.32-8.13,2.79
				c-0.46,0.12-1.16,0.3-1.94,0.5c2.71-0.61,8.97,2.14,17.56-1.51c-0.92-0.45-2.24-1.01-3.04-1c-1.32,0.02-2.18,0-2.18,0
				s0.16-0.99,3.12-0.9c1.94,0.06,3.41,0.56,4.21,0.9c1.57-0.83,3.21-1.87,4.91-3.19c1.93-1.5,3.63-3.24,5.16-5.13L63.83,81.72z"/>
		</g>
	</g>
	<path d="M82.38,76.15c0-0.52-0.92-1.03-2.21-1.37c0.11,2.49,0.13,4.26-2.38,4.78c-2.82,0.59-6.51-2.54-7.96-3.85
		c-1.44-1.31-3.46-3.62-4.73-4.86c-1.27-1.24-1.42-2.04-5.68-2.58c-4.26-0.54-6.02,1.01-6.02,1.01l21.86,23.04
		c0.96-0.29,1.88-0.72,2.75-1.37C81.51,86.6,84.99,81.38,82.38,76.15z"/>
</g>
</svg>
