<?xml version="1.0" encoding="utf-8"?>
<!-- Generator: Adobe Illustrator 27.0.0, SVG Export Plug-In . SVG Version: 6.00 Build 0)  -->
<svg version="1.1" id="Layer_1" xmlns="http://www.w3.org/2000/svg" xmlns:xlink="http://www.w3.org/1999/xlink" x="0px" y="0px"
	 viewBox="0 0 136.7 133.1" style="enable-background:new 0 0 136.7 133.1;" xml:space="preserve">
<style type="text/css">
	.st0{display:none;}
	.st1{display:inline;fill:#BCBCBC;}
	.st2{display:inline;fill:#E91A25;}
	.st3{fill:#FFFFFF;}
	.st4{fill:#ECBF32;}
	.st5{fill:#6E6E6E;}
	.st6{fill:#ED4E2B;}
	.st7{fill:#3F4C97;}
	.st8{fill:#EFC900;}
	.st9{fill-rule:evenodd;clip-rule:evenodd;fill:#EFC900;}
	.st10{fill:#040404;fill-opacity:0;stroke:#040404;stroke-opacity:0;}
</style>
<g id="Layer_2_00000129908810263707168760000016690468477625576619_" class="st0">
	<rect x="-1" class="st1" width="136.7" height="133.1"/>
</g>
<path class="st8" d="M26.6,110.8c-1.5-3-2.7-6.1-3.6-9.4c-0.9-3.2-1.6-6.5-2-9.9c-0.4-3.3-0.6-6.8-0.4-10.2
	c0.1-3.4,0.6-6.8,1.4-10.1c0.4-1.7,0.9-3.3,1.4-5c0.6-1.6,1.1-3.2,1.9-4.8c0.6-1.6,1.5-3.1,2.3-4.6c0.9-1.5,1.7-3,2.7-4.4
	c1.9-2.9,4.2-5.5,6.5-8c1.2-1.2,2.4-2.4,3.7-3.5c1.3-1.1,2.5-2.3,3.9-3.3c5.4-4.1,11.5-7.6,18.1-9.6c3.3-1.1,6.7-1.7,10.1-2.1
	c3.4-0.4,6.9-0.4,10.3-0.1c6.8,0.5,13.4,2.5,19.6,5.1c6.2,2.8,12,6.2,17,10.6c-5.6-3.7-11.5-6.6-17.7-8.8C95.5,30.7,89,29.3,82.6,29
	c-6.5-0.2-12.9,0.6-19,2.7c-6.1,2-11.8,5.2-16.8,9.2c-1.3,0.9-2.5,2-3.8,3.1c-1.2,1-2.3,2.2-3.5,3.3c-2.2,2.3-4.4,4.8-6.2,7.4
	c-1,1.3-1.8,2.7-2.7,4c-0.8,1.4-1.6,2.8-2.2,4.3c-1.4,2.9-2.5,5.9-3.4,9c-1.7,6.2-2.4,12.8-2,19.3c0.1,3.3,0.6,6.6,1.2,9.8
	c0.3,1.6,0.7,3.2,1.1,4.8C25.5,107.7,26,109.3,26.6,110.8z"/>
<path class="st8" d="M55.2,66.8c0,0,2.4,0.2,5.7,0.4c0.8-1.9,1.7-3.8,2.6-5.6l-10.6-0.1c0,0-0.5,0.8-0.2,1.9
	C53,64.4,55.2,66.8,55.2,66.8z"/>
<g>
	<g>
		<path class="st8" d="M37,103c0,0.4-0.4,1-0.6,1s-3.3-0.4-4.2,0.2c0,0,2.1-1.2,2.6-1.9c0.5-0.7,0.7-0.7,0.7-0.7s1.5,0.2,2,0
			c0.4-0.2,7-1.6,8.4-2.4c1.3-0.8,8.3-3.2,12.7-8c2.6-2.9,4.4-4.9,6.3-8.2l-6.4-6.7c-1.1,3.1-2.1,6-3.1,8.5
			c-0.3,0.7-0.6,1.4-0.9,2.1c0.1,0.2,0.1,0.5,0.2,0.8c1,3.7,0,5.4,0,5.4s-0.5-0.2-0.8-2.6c-0.1-0.7-0.2-1.2-0.4-1.7
			c-6.1,10.6-16.7,11-18.9,11c-1.8,2.3-7.4,6.1-7.4,6.1c3.1-0.9,9.5,0,9.5,0s2.1-2.6,4.9-4.3c0.2-0.1,0.3-0.2,0.6-0.2
			C39.9,102,37.1,102.8,37,103z"/>
	</g>
	<g>
		<path class="st8" d="M90.4,41.7c-7.4,0-13.2,3.2-17.8,8.1c0.2,0.9,0.5,2.4,0.4,4.5c-0.1,4.6-1.1,4.6-1.1,4.6s-0.4-2.9-0.5-4.8
			c-0.1-0.8-0.2-1.6-0.5-2.4c-4.3,5.2-7.4,11.7-10,18.1c0.2,0,0.5,0.1,0.8,0.1c3.8,0.5,4.7,1.2,5.8,2.4c0.1,0.2,0.3,0.3,0.4,0.5
			c0.3,0.3,0.7,0.7,1,1.1c0,0,0,0,0-0.1c3.9-10.2,8.5-14.9,10.3-16.7s5.5-4.4,5.5-4.4s-2.7,2.9-4.7,4.8c-2.1,2-6.6,10.8-8.1,13.4
			c-0.5,0.9-1.1,2.4-1.8,4.1c0.9,0.9,1.8,1.9,2.5,2.5c2,1.8,3.8,2.9,5.2,3.4c2.2-4.4,3.9-9.1,5.6-13.6c-0.3-0.1-0.6-0.2-0.9-0.2
			c-1.2-0.2-2.7,0.5-2.7,0.5s1.2-1.2,2.2-2c1-0.8,2.2-0.5,2.2-0.5v0.1c1.7-4.4,3.4-8.5,5.6-12C97.2,41.1,118,50,118,50
			S112.6,41.7,90.4,41.7z"/>
	</g>
	<g>
		<path class="st8" d="M66,84.3c-0.4,0.6-0.7,1.2-1.1,1.8c-3.2,4.5-10.6,11.1-12.6,12.1c-2,0.9-6.3,2.3-8.1,2.8
			c-0.5,0.1-1.2,0.3-1.9,0.5c2.7-0.6,9,2.1,17.6-1.5c-0.9-0.4-2.2-1-3-1c-1.3,0-2.2,0-2.2,0s0.2-1,3.1-0.9c1.9,0.1,3.4,0.6,4.2,0.9
			c1.6-0.8,3.2-1.9,4.9-3.2c1.9-1.5,3.6-3.2,5.2-5.1L66,84.3z"/>
	</g>
</g>
<path class="st8" d="M94.7,93.1l0-25c0,0,0.2-1.6-1.5-3.9c-0.2-0.3-0.5-0.6-0.7-0.8c-1.4-1.5-2.8-1.6-2.8-1.6l-2.9,0
	c-0.9,2.2-1.8,4.5-2.7,6.9c-0.6,1.6-1.2,3.1-1.8,4.7c0,1-0.1,2,0,3.1c0,0.3,0,0.7,0,1c0.1,2.5,0.1,4.3-2.4,4.8
	c-2.8,0.6-6.5-2.5-8-3.8s-3.5-3.6-4.7-4.9c-1.3-1.2-1.4-2-5.7-2.6s-6,1-6,1l21.9,23l8.6,9.1l6,10.4h21.8L94.7,93.1z"/>
</svg>
