<?xml version="1.0" encoding="utf-8"?>
<!-- Generator: Adobe Illustrator 27.0.0, SVG Export Plug-In . SVG Version: 6.00 Build 0)  -->
<svg version="1.1" xmlns="http://www.w3.org/2000/svg" xmlns:xlink="http://www.w3.org/1999/xlink" x="0px" y="0px"
	 viewBox="0 0 136.7 133.07" style="enable-background:new 0 0 136.7 133.07;" xml:space="preserve">
<style type="text/css">
	.st0{fill:#FFFFFF;}
	.st1{fill:#EEC919;}
	.st2{fill:none;stroke:#1D76BB;stroke-width:0.1928;stroke-linecap:round;stroke-linejoin:round;stroke-miterlimit:10;}
	.st3{fill:#28A8E0;}
	.st4{fill:#1D76BB;}
	.st5{fill-rule:evenodd;clip-rule:evenodd;fill:#1668B1;}
	.st6{fill:#797979;}
	.st7{fill:#00A651;}
	.st8{fill:#0B0C0E;}
	.st9{fill:#010101;}
	.st10{fill:#050505;}
	.st11{fill:#020202;}
	.st12{fill:#080A0C;}
	.st13{fill:#0A0B0D;}
	.st14{fill:#080808;}
	.st15{fill:#0F1112;}
	.st16{fill:#101212;}
	.st17{fill:#0E1011;}
	.st18{fill:#A3795F;}
	.st19{fill:#D2AA91;}
	.st20{fill:#060506;}
	.st21{fill:#D1A990;}
	.st22{fill:#060606;}
	.st23{fill:#0B0B0B;}
	.st24{fill:#110F0E;}
	.st25{fill:#D0A891;}
	.st26{fill:#181412;}
	.st27{fill:#BA967F;}
	.st28{fill:#101010;}
	.st29{fill:#1C1715;}
	.st30{fill:#8D7262;}
	.st31{fill:#303230;}
	.st32{fill:#474E47;}
	.st33{fill:#3A453A;}
	.st34{fill:#B7947D;}
	.st35{fill:#5E6C42;}
	.st36{fill:#BC9882;}
	.st37{fill:#BA9680;}
	.st38{fill:#AD8B77;}
	.st39{fill:#A28B70;}
	.st40{fill:#917564;}
	.st41{fill:#7B6555;}
	.st42{fill:#534339;}
	.st43{fill:#56453B;}
	.st44{fill:#D5AB92;}
	.st45{fill:#A3775E;}
	.st46{fill:#A2785E;}
	.st47{fill:#050706;}
	.st48{fill:#0A0808;}
	.st49{fill:#CCA48C;}
	.st50{fill:#090909;}
	.st51{fill:#171412;}
	.st52{fill:#13110F;}
	.st53{fill:#CAA28A;}
	.st54{fill:#C49E87;}
	.st55{fill:#413026;}
	.st56{fill:#1A1614;}
	.st57{fill:#9B7D6B;}
	.st58{fill:#0D0B0B;}
	.st59{fill:#9A6D57;}
	.st60{fill:#EDEBE8;}
	.st61{fill:#8D6751;}
	.st62{fill:#2A2320;}
	.st63{fill:#34261E;}
	.st64{fill:#1B1512;}
	.st65{fill:#362920;}
	.st66{fill:#181A12;}
	.st67{fill:#382920;}
	.st68{fill:#37291F;}
	.st69{fill:#342923;}
	.st70{fill:#575453;}
	.st71{fill:#A2948B;}
	.st72{fill:#1D1715;}
	.st73{fill:#211C18;}
	.st74{fill:#443F3D;}
	.st75{fill:#403F3F;}
	.st76{fill:#5F5E5E;}
	.st77{fill:#1E1E1E;}
	.st78{fill:#553F31;}
	.st79{fill:#B3B3B3;}
	.st80{fill:#46352B;}
	.st81{fill:#83604C;}
	.st82{fill:#0E0F12;}
	.st83{fill:#ECEDED;}
	.st84{fill:#17181A;}
	.st85{fill:#222226;}
	.st86{fill:#BCBCBC;}
	.st87{fill:#DCDCDC;}
	.st88{fill:#262525;}
	.st89{fill:#C29C82;}
	.st90{fill:#09090B;}
	.st91{fill:#030303;}
	.st92{fill:#D2A891;}
	.st93{fill:#040404;}
	.st94{fill:#090A0C;}
	.st95{fill:#070606;}
	.st96{fill:#0B0A0A;}
	.st97{fill:#9E6F58;}
	.st98{fill:#D1A991;}
	.st99{fill:#D1A790;}
	.st100{fill:#080707;}
	.st101{fill:#100E0D;}
	.st102{fill:#D0A68D;}
	.st103{fill:#1B1612;}
	.st104{fill:#CCA38C;}
	.st105{fill:#CAA18A;}
	.st106{fill:#28201B;}
	.st107{fill:#241D18;}
	.st108{fill:#E7E6E5;}
	.st109{fill:#454544;}
	.st110{fill:#1A1817;}
	.st111{fill:#1F1813;}
	.st112{fill:#33251D;}
	.st113{fill:#C29C84;}
	.st114{fill:#C89F87;}
	.st115{fill:#E9E8E8;}
	.st116{fill:#2E211A;}
	.st117{fill:#362E2A;}
	.st118{fill:#292624;}
	.st119{fill:#211913;}
	.st120{fill:#3D3732;}
	.st121{fill:#464646;}
	.st122{fill:#463A31;}
	.st123{fill:#946E56;}
	.st124{fill:#191411;}
	.st125{fill:#E4E4E4;}
	.st126{fill:#2F2823;}
	.st127{fill:#3B2B22;}
	.st128{fill:#252424;}
	.st129{fill:#262320;}
	.st130{fill:#745948;}
	.st131{fill:#333231;}
	.st132{fill:#1E1917;}
	.st133{fill:#46362B;}
	.st134{fill:#1D1613;}
	.st135{fill:#3C2C22;}
	.st136{fill:#3E3834;}
	.st137{fill:#4F4D4D;}
	.st138{fill:#F4F4F4;}
	.st139{fill:#E3E2E0;}
	.st140{fill:#37281F;}
	.st141{fill:#DDDAD9;}
	.st142{fill:#211915;}
	.st143{fill:#3A2D26;}
	.st144{fill:#3E2E23;}
	.st145{fill:#2A1E18;}
	.st146{fill:#E4E2E2;}
	.st147{fill:#D6D3D0;}
	.st148{fill:#4A362B;}
	.st149{fill:#33251E;}
	.st150{fill:#31241D;}
	.st151{fill:#3C2D23;}
	.st152{fill:#3F2E24;}
	.st153{fill:#3D3D3D;}
	.st154{fill:#7D5F4D;}
	.st155{fill:#34251E;}
	.st156{fill:#201F1F;}
	.st157{fill:#CDC5C0;}
	.st158{fill:#161211;}
	.st159{fill:#453932;}
	.st160{fill:#636363;}
	.st161{fill:#B58A71;}
	.st162{fill:#DED7D3;}
	.st163{fill:#656260;}
	.st164{fill:#C8BFBA;}
	.st165{fill:#CCCAC8;}
	.st166{fill:#513B2E;}
	.st167{fill:#D8CBC4;}
	.st168{fill:#382A23;}
	.st169{fill:#E7DFDA;}
	.st170{fill:#30271F;}
	.st171{fill:#A19D9C;}
	.st172{fill:#402F25;}
	.st173{fill:#0D0E10;}
	.st174{fill:#0D0E11;}
	.st175{fill:#0B0B0E;}
	.st176{fill:#0E0F11;}
	.st177{fill:#121316;}
	.st178{fill:#D3D3D3;}
	.st179{fill:#17181C;}
	.st180{fill:#2B2D2F;}
	.st181{fill:#DBDADA;}
	.st182{fill:#2B2B2F;}
	.st183{fill:#252629;}
	.st184{fill:#4C4E50;}
	.st185{fill:#636466;}
	.st186{fill:#2B2C2E;}
	.st187{fill:#1C1D21;}
	.st188{fill:#7B7B7D;}
	.st189{fill:#BABABA;}
	.st190{fill:#505153;}
	.st191{fill:#929394;}
	.st192{fill:#5C5E60;}
	.st193{fill:#393B3D;}
	.st194{fill:#100F0E;}
	.st195{fill:#191514;}
	.st196{fill:#1C1A19;}
	.st197{fill:#2B2725;}
	.st198{fill:#D5E9D6;}
	.st199{fill:#151312;}
	.st200{fill:#161311;}
	.st201{fill:#252624;}
	.st202{fill:#282828;}
	.st203{fill:#1B1B1B;}
	.st204{fill:#434140;}
	.st205{fill:#272626;}
	.st206{fill:#424242;}
	.st207{fill:#303030;}
	.st208{fill:#4D4D4D;}
	.st209{fill:#4B4B4B;}
	.st210{fill:#656565;}
	.st211{fill:#0F0F0E;}
	.st212{fill:#0C0B0B;}
	.st213{fill:#111111;}
	.st214{fill:#D3AA92;}
	.st215{fill:#F5F6F6;}
	.st216{fill:#343434;}
	.st217{fill:#565656;}
	.st218{fill:#3E3E3E;}
	.st219{fill:#CDC0B7;}
	.st220{fill:#272727;}
	.st221{fill:#0A0909;}
	.st222{fill:#141211;}
	.st223{fill:#3D322A;}
	.st224{fill:#D0A78E;}
	.st225{fill:#211E1C;}
	.st226{fill:#D0A68E;}
	.st227{fill:#221B18;}
	.st228{fill:#CAA188;}
	.st229{fill:#31231B;}
	.st230{fill:#271D17;}
	.st231{fill:#282320;}
	.st232{fill:#E9E7E6;}
	.st233{fill:#3A2B21;}
	.st234{fill:#3B3734;}
	.st235{fill:#31241C;}
	.st236{fill:#966F57;}
	.st237{fill:#443227;}
	.st238{fill:#4F3A2E;}
	.st239{fill:#2F2925;}
	.st240{fill:#2C211C;}
	.st241{fill:#1F1712;}
	.st242{fill:#48362A;}
	.st243{fill:#241D19;}
	.st244{fill:#312C29;}
	.st245{fill:#735442;}
	.st246{fill:#4D392D;}
	.st247{fill:#26211E;}
	.st248{fill:#523E32;}
	.st249{fill:#583E31;}
	.st250{fill:#D3CECB;}
	.st251{fill:#946A53;}
	.st252{fill:#3D2E26;}
	.st253{fill:#433227;}
	.st254{fill:#4A372B;}
	.st255{fill:#8B6751;}
	.st256{fill:#090808;}
	.st257{fill:#594234;}
	.st258{fill:#3C2F28;}
	.st259{fill:#8D6852;}
	.st260{fill:#4C382C;}
	.st261{fill:#563E31;}
	.st262{fill:#563F32;}
	.st263{fill:#533D30;}
	.st264{fill:#5D4536;}
	.st265{fill:#483529;}
	.st266{fill:#423126;}
	.st267{fill:#564032;}
	.st268{fill:#614738;}
	.st269{fill:#4A4949;}
	.st270{fill:#424241;}
	.st271{fill:#616262;}
	.st272{fill:#6A6A6A;}
	.st273{fill:#505050;}
	.st274{fill:#575757;}
	.st275{fill:#5D5D5D;}
	.st276{fill:#606060;}
	.st277{fill:#484645;}
	.st278{fill:#595959;}
	.st279{fill:#727171;}
	.st280{fill:#E2E2E2;}
	.st281{fill:#525252;}
	.st282{fill:#5E5E5E;}
	.st283{fill:#C0BFBF;}
	.st284{fill:#5E5F5F;}
	.st285{fill:#423733;}
	.st286{fill:#464645;}
	.st287{fill:#444444;}
	.st288{fill:#D9D9DA;}
	.st289{fill:#6D6E6E;}
	.st290{fill:#333333;}
	.st291{fill:#373737;}
	.st292{fill:#666666;}
	.st293{fill:#434343;}
	.st294{fill:#787878;}
	.st295{fill:#313132;}
	.st296{fill:#3F3F3F;}
	.st297{fill:#2B2B2C;}
	.st298{fill:#939393;}
	.st299{fill:#322822;}
	.st300{fill:#231D18;}
	.st301{fill:#483A31;}
	.st302{fill:#302821;}
	.st303{fill:#936E57;}
	.st304{fill:#EEEDEE;}
	.st305{fill:#B9B9B9;}
	.st306{fill:#2B2C2B;}
	.st307{fill:#574033;}
	.st308{fill:#D2CFCE;}
	.st309{fill:#92796B;}
	.st310{fill:#49362B;}
	.st311{fill:#896755;}
	.st312{fill:#D0D1D1;}
	.st313{fill:#494949;}
	.st314{fill:#D8D9D8;}
	.st315{fill:#555554;}
	.st316{fill:#CFCBCA;}
	.st317{fill:#414140;}
	.st318{fill:#C9C9C9;}
	.st319{fill:#B5B5B5;}
	.st320{fill:#F6F6F6;}
	.st321{fill:#FBFCFC;}
	.st322{fill:#B3B3B5;}
	.st323{fill:#F9F9FA;}
	.st324{fill:#0C0A0A;}
	.st325{fill:#2B231E;}
	.st326{fill:url(#SVGID_1_);}
	.st327{fill:#67318E;}
	.st328{fill:#F15A29;}
	.st329{fill:#4853A4;}
	.st330{fill:none;stroke:#000000;stroke-miterlimit:10;}
	.st331{fill:none;}
	.st332{fill:#663795;}
</style>
<g id="Layer_2">
</g>
<g id="Layer_1">
	<g>
		<path d="M89.59,112.32l-6.12-10.62L52.69,69.26l0.39-0.34c0.06-0.05,1.45-1.25,4.61-1.25c0.58,0,1.18,0.04,1.8,0.12
			c3.66,0.47,4.44,1.12,5.5,2.24c0.14,0.15,0.29,0.31,0.47,0.48c0.53,0.51,1.18,1.21,1.87,1.95c0.99,1.05,2.01,2.14,2.84,2.9
			c2.7,2.44,5.15,3.79,6.89,3.79c0.22,0,0.43-0.02,0.63-0.06c2.06-0.43,2.09-1.69,1.98-4.27l-0.04-0.97
			c-0.04-1.21-0.01-2.46,0.02-3.56c0.02-0.57,0.03-1.1,0.03-1.55c0-1.01-0.06-1.26-0.09-1.32c-0.09-0.06-0.2-0.21-0.3-0.36
			c-0.27-0.37-0.52-0.71-1.4-0.75c-1.47-0.07-23.96-1.51-24.91-1.57l-0.2-0.01l-0.14-0.15c-0.23-0.25-2.26-2.52-2.57-3.69
			c-0.35-1.29,0.25-2.24,0.27-2.28l0.15-0.23l37.12,0.35c0.11,0.01,1.55,0.18,3.1,1.75c0.28,0.29,0.53,0.57,0.76,0.87
			c1.79,2.37,1.59,4.15,1.58,4.23l0.01,24.75l19.75,22.01H89.59z"/>
		<path class="st0" d="M50.76,58.87l36.84,0.35c0,0,1.31,0.14,2.75,1.6c0.24,0.24,0.47,0.5,0.71,0.82c1.69,2.23,1.48,3.86,1.48,3.86
			l0.01,25.01l19.13,21.32H89.88l-6-10.42l-8.61-9.07L53.41,69.29c0,0,1.27-1.13,4.28-1.13c0.53,0,1.1,0.03,1.74,0.12
			c4.26,0.54,4.41,1.34,5.68,2.58c1.27,1.24,3.28,3.55,4.73,4.86c1.32,1.2,4.53,3.92,7.22,3.92c0.25,0,0.49-0.02,0.73-0.07
			c2.5-0.52,2.49-2.29,2.38-4.78c-0.01-0.31-0.03-0.63-0.04-0.96c-0.06-1.82,0.05-3.76,0.06-5.09c0-0.87-0.04-1.48-0.2-1.63
			c-0.42-0.38-0.58-1.23-2.06-1.3c-1.48-0.07-24.9-1.57-24.9-1.57s-2.17-2.4-2.46-3.49C50.26,59.65,50.76,58.87,50.76,58.87
			 M50.22,57.86l-0.3,0.46c-0.08,0.12-0.73,1.2-0.34,2.68c0.34,1.26,2.3,3.47,2.68,3.9l0.27,0.3l0.41,0.03
			c0.96,0.06,23.45,1.5,24.92,1.57c0.64,0.03,0.77,0.21,1.01,0.55c0.08,0.1,0.16,0.22,0.26,0.33c0.02,0.13,0.04,0.43,0.04,1.05
			c0,0.45-0.02,0.98-0.03,1.54c-0.03,1.11-0.07,2.37-0.02,3.59c0.01,0.28,0.02,0.54,0.03,0.8l0.01,0.17
			c0.12,2.71-0.02,3.43-1.58,3.76c-0.16,0.03-0.34,0.05-0.53,0.05c-1.62,0-3.95-1.3-6.55-3.66c-0.82-0.74-1.83-1.82-2.81-2.87
			c-0.69-0.74-1.35-1.44-1.88-1.96c-0.17-0.16-0.31-0.32-0.45-0.46c-1.1-1.17-1.97-1.91-5.8-2.4c-0.64-0.08-1.27-0.12-1.86-0.12
			c-3.29,0-4.78,1.24-4.94,1.38l-0.78,0.69l0.71,0.75l21.86,23.04l8.53,8.98l5.94,10.32l0.29,0.5h0.58h21.81h2.24l-1.5-1.67
			L93.56,90.11l-0.01-24.58c0.03-0.43,0.05-2.22-1.69-4.51c-0.24-0.32-0.5-0.62-0.8-0.92c-1.64-1.66-3.18-1.87-3.35-1.89l-0.05-0.01
			l-0.05,0l-36.84-0.35L50.22,57.86L50.22,57.86z"/>
	</g>
	<path d="M92.56,90.5l-0.01-25.01c0,0,0.21-1.63-1.48-3.86c-0.24-0.31-0.48-0.58-0.71-0.82c-3.55,2.95-5.59,6.54-10.18,7.92
		c-0.01,1.34-0.12,3.28-0.06,5.09c0.01,0.33,0.03,0.65,0.04,0.96c1.29,0.33,2.21,0.85,2.21,1.37c2.61,5.22-0.87,10.45-4.35,14.8
		c-0.87,0.65-1.79,1.09-2.75,1.37l8.61,9.07l6,10.42h21.81L92.56,90.5z"/>
	<path d="M90.36,60.81c-1.44-1.46-2.75-1.6-2.75-1.6l-36.84-0.35c0,0-0.51,0.79-0.21,1.88c0.29,1.09,2.46,3.49,2.46,3.49
		s23.42,1.5,24.9,1.57c1.48,0.07,1.64,0.92,2.06,1.3c0.17,0.15,0.21,0.76,0.2,1.63C84.77,67.35,86.81,63.76,90.36,60.81z"/>
	<g>
		<g>
			<path d="M24.74,102.98c0.06-0.04,5.56-3.7,7.29-5.96l0.15-0.2h0.25c3.46,0,15.15-1.06,20.3-14.71c0.59-1.57,1.21-3.31,1.87-5.16
				c5.41-15.25,13.59-38.29,33.68-38.29c22.15,0,27.72,8.21,27.94,8.56l0.89,1.38l-1.51-0.65c-0.07-0.03-7.36-3.13-14.67-3.13
				c-6.01,0-10.3,2.04-12.76,6.08c-2.57,4.22-4.57,9.45-6.68,14.98c-3.95,10.33-8.03,21.01-16.55,27.64
				c-5.4,4.2-10.89,6.24-16.78,6.24c-1.79,0-3.39-0.18-4.67-0.32c-0.95-0.11-1.77-0.2-2.43-0.2c-0.63,0-1.07,0.08-1.36,0.26
				c-2.69,1.63-4.79,4.18-4.81,4.21l-0.18,0.22l-0.28-0.04c-0.03,0-2.81-0.38-5.55-0.38c-1.58,0-2.84,0.12-3.72,0.37l-3.02,0.83
				L24.74,102.98z"/>
			<path class="st0" d="M88.28,39.17c22.13,0,27.52,8.33,27.52,8.33s-7.37-3.17-14.87-3.17c-5.08,0-10.22,1.45-13.18,6.32
				C80.4,62.7,77.64,83.01,64.63,93.13c-6.53,5.08-12.15,6.13-16.48,6.13c-3.05,0-5.46-0.52-7.1-0.52c-0.67,0-1.21,0.09-1.62,0.33
				c-2.81,1.69-4.94,4.32-4.94,4.32s-2.81-0.39-5.62-0.39c-1.4,0-2.81,0.1-3.86,0.39c0,0,5.61-3.72,7.41-6.07
				c2.49,0,15.29-0.51,20.77-15.03C58.69,67.77,66.15,39.17,88.28,39.17 M88.28,38.17c-20.44,0-28.69,23.24-34.15,38.62
				c-0.65,1.84-1.27,3.59-1.86,5.15c-5.04,13.35-16.46,14.39-19.84,14.39h-0.49l-0.3,0.39c-1.68,2.19-7.12,5.81-7.17,5.84
				l-5.21,3.46l6.03-1.66c0.84-0.23,2.05-0.35,3.59-0.35c2.7,0,5.46,0.37,5.48,0.38l0.56,0.08l0.36-0.44
				c0.02-0.02,2.06-2.52,4.68-4.1c0.21-0.12,0.58-0.19,1.1-0.19c0.64,0,1.44,0.09,2.38,0.19c1.3,0.15,2.91,0.33,4.73,0.33
				c6.01,0,11.6-2.07,17.09-6.34c8.63-6.72,12.74-17.46,16.71-27.85c2.11-5.51,4.1-10.72,6.64-14.9c2.36-3.87,6.51-5.84,12.33-5.84
				c7.2,0,14.41,3.05,14.48,3.09l3.02,1.3l-1.79-2.76C116.41,46.6,110.7,38.17,88.28,38.17L88.28,38.17z"/>
		</g>
		<path class="st0" d="M30.14,101.64c0,0,2.12-1.19,2.62-1.88c0.49-0.7,0.65-0.67,0.65-0.67s1.51,0.25,1.95,0
			c0.44-0.25,7.05-1.55,8.39-2.38c1.34-0.83,8.32-3.17,12.66-8.03s6.6-7.3,10.45-17.53S75.3,56.3,77.15,54.48
			c1.85-1.82,5.49-4.41,5.49-4.41s-2.66,2.88-4.74,4.85c-2.07,1.97-6.62,10.79-8.09,13.43c-1.47,2.64-3.92,10.61-7.09,15.14
			c-3.17,4.53-10.58,11.13-12.6,12.05c-2.01,0.92-6.34,2.32-8.13,2.79s-7.07,1.78-7.12,2.15c-0.04,0.37-0.38,1-0.57,1
			S30.97,101.11,30.14,101.64z"/>
		<path class="st0" d="M68.04,47.09c0,0,1.11,2.59,1.22,4.48c0.11,1.89,0.5,4.76,0.5,4.76s1-0.06,1.12-4.62
			c0.12-4.57-1.06-5.99-1.06-5.99L68.04,47.09z"/>
		<path class="st0" d="M56.39,69.43c0.02,0.17,0.67,0.42,1.06,2.39c0.39,1.97,1.08,2.75,0.99,4.04c1.64-0.55-0.67-7.56-0.67-7.56
			L56.39,69.43z"/>
		<path class="st0" d="M50.52,84.39c0,0,0.83,1.25,1.18,3.58c0.34,2.33,0.85,2.58,0.85,2.58s0.99-1.71,0-5.42
			c-0.99-3.71-1.42-2.89-1.42-2.89L50.52,84.39z"/>
		<path class="st0" d="M58.63,97.85c0,0-2.73-1.54-4.06-1.53s-2.18,0-2.18,0s0.16-0.99,3.12-0.9c2.96,0.09,4.86,1.21,4.86,1.21
			L58.63,97.85z"/>
		<path class="st0" d="M82.2,62.54c0,0-1.28-0.23-2.25,0.54s-2.17,2.02-2.17,2.02s1.52-0.67,2.67-0.52
			c1.16,0.15,1.75,0.52,1.75,0.52V62.54z"/>
	</g>
	<path d="M82.38,76.15c0-0.52-0.92-1.03-2.21-1.37c0.11,2.49,0.13,4.26-2.38,4.78c-2.82,0.59-6.51-2.54-7.96-3.85
		c-1.44-1.31-3.46-3.62-4.73-4.86c-1.27-1.24-1.42-2.04-5.68-2.58c-4.26-0.54-6.02,1.01-6.02,1.01l21.86,23.04
		c0.96-0.29,1.88-0.72,2.75-1.37C81.51,86.6,84.99,81.38,82.38,76.15z"/>
	<g>
		<path d="M24.4,113.03c-8.19-16.71-8.38-37.53,0.83-53.89C36.2,39.93,57.99,25.81,80.58,28.12c13.5,1.22,26.42,7.05,36.64,15.76
			c-10.98-7.18-23.75-12.04-36.84-12.64c-21.27-1.2-41.15,11.99-51.99,29.71C19.12,76.49,18.58,96.12,24.4,113.03L24.4,113.03z"/>
	</g>
</g>
</svg>
