<?xml version="1.0" encoding="utf-8"?>
<!-- Generator: Adobe Illustrator 27.0.0, SVG Export Plug-In . SVG Version: 6.00 Build 0)  -->
<svg version="1.1" xmlns="http://www.w3.org/2000/svg" xmlns:xlink="http://www.w3.org/1999/xlink" x="0px" y="0px"
	 viewBox="0 0 136.7 133.07" style="enable-background:new 0 0 136.7 133.07;" xml:space="preserve">
<style type="text/css">
	.st0{fill:#FFFFFF;}
	.st1{fill:#ECBF32;}
	.st2{fill:none;stroke:#1C6DB0;stroke-width:0.1928;stroke-linecap:round;stroke-linejoin:round;stroke-miterlimit:10;}
	.st3{fill:#27A0D9;}
	.st4{fill:#1C6DB0;}
	.st5{fill-rule:evenodd;clip-rule:evenodd;fill:#165FA5;}
	.st6{fill:#6E6E6E;}
	.st7{fill:#009B4C;}
	.st8{fill:#0E0F10;}
	.st9{fill:#040404;}
	.st10{fill:#09090A;}
	.st11{fill:#060606;}
	.st12{fill:#0C0D0F;}
	.st13{fill:#0D0E0F;}
	.st14{fill:#0C0C0C;}
	.st15{fill:#111213;}
	.st16{fill:#111313;}
	.st17{fill:#101112;}
	.st18{fill:#986D56;}
	.st19{fill:#CC9F87;}
	.st20{fill:#0A0A0A;}
	.st21{fill:#CB9E87;}
	.st22{fill:#CA9E87;}
	.st23{fill:#0E0E0E;}
	.st24{fill:#121110;}
	.st25{fill:#CA9D87;}
	.st26{fill:#171513;}
	.st27{fill:#B18B75;}
	.st28{fill:#121212;}
	.st29{fill:#1A1715;}
	.st30{fill:#826758;}
	.st31{fill:#2B2C2B;}
	.st32{fill:#3E443E;}
	.st33{fill:#333C33;}
	.st34{fill:#AD8873;}
	.st35{fill:#54603C;}
	.st36{fill:#B38D78;}
	.st37{fill:#B18B76;}
	.st38{fill:#A3806D;}
	.st39{fill:#987F67;}
	.st40{fill:#86695B;}
	.st41{fill:#6F5A4C;}
	.st42{fill:#493A32;}
	.st43{fill:#4C3C34;}
	.st44{fill:#CEA089;}
	.st45{fill:#0A090A;}
	.st46{fill:#986B55;}
	.st47{fill:#986C55;}
	.st48{fill:#090B0A;}
	.st49{fill:#0D0C0C;}
	.st50{fill:#C49983;}
	.st51{fill:#0C0D0D;}
	.st52{fill:#171413;}
	.st53{fill:#131211;}
	.st54{fill:#C29881;}
	.st55{fill:#BC937D;}
	.st56{fill:#382A22;}
	.st57{fill:#191614;}
	.st58{fill:#907161;}
	.st59{fill:#0F0E0E;}
	.st60{fill:#8E614E;}
	.st61{fill:#EAE7E5;}
	.st62{fill:#815C49;}
	.st63{fill:#26201D;}
	.st64{fill:#2E221C;}
	.st65{fill:#191513;}
	.st66{fill:#30251E;}
	.st67{fill:#171813;}
	.st68{fill:#31241E;}
	.st69{fill:#30241D;}
	.st70{fill:#2D2520;}
	.st71{fill:#4D4A49;}
	.st72{fill:#988981;}
	.st73{fill:#1B1715;}
	.st74{fill:#1E1A17;}
	.st75{fill:#3B3735;}
	.st76{fill:#383737;}
	.st77{fill:#545354;}
	.st78{fill:#1C1C1C;}
	.st79{fill:#4A372C;}
	.st80{fill:#AAAAAA;}
	.st81{fill:#3E2E27;}
	.st82{fill:#775544;}
	.st83{fill:#101113;}
	.st84{fill:#E9EAEA;}
	.st85{fill:#171719;}
	.st86{fill:#1F1F22;}
	.st87{fill:#B4B3B3;}
	.st88{fill:#D7D7D7;}
	.st89{fill:#222121;}
	.st90{fill:#BA9179;}
	.st91{fill:#0C0C0E;}
	.st92{fill:#070707;}
	.st93{fill:#080908;}
	.st94{fill:#0B0A0B;}
	.st95{fill:#0B0A0A;}
	.st96{fill:#0E0D0D;}
	.st97{fill:#93644F;}
	.st98{fill:#CB9E88;}
	.st99{fill:#1A1513;}
	.st100{fill:#CB9D87;}
	.st101{fill:#0C0B0B;}
	.st102{fill:#111010;}
	.st103{fill:#C99B84;}
	.st104{fill:#936350;}
	.st105{fill:#C49882;}
	.st106{fill:#C39680;}
	.st107{fill:#231D1A;}
	.st108{fill:#211B18;}
	.st109{fill:#E3E2E1;}
	.st110{fill:#3C3C3C;}
	.st111{fill:#191717;}
	.st112{fill:#1D1714;}
	.st113{fill:#2D221C;}
	.st114{fill:#BA917A;}
	.st115{fill:#C0947E;}
	.st116{fill:#E6E5E4;}
	.st117{fill:#281E19;}
	.st118{fill:#2F2925;}
	.st119{fill:#252221;}
	.st120{fill:#1E1814;}
	.st121{fill:#36302C;}
	.st122{fill:#3D3D3D;}
	.st123{fill:#3D322C;}
	.st124{fill:#89624D;}
	.st125{fill:#181412;}
	.st126{fill:#E0E0E0;}
	.st127{fill:#292320;}
	.st128{fill:#33261F;}
	.st129{fill:#221F1E;}
	.st130{fill:#694E40;}
	.st131{fill:#2C2C2B;}
	.st132{fill:#1C1817;}
	.st133{fill:#3E2F27;}
	.st134{fill:#1B1614;}
	.st135{fill:#342720;}
	.st136{fill:#36312E;}
	.st137{fill:#464444;}
	.st138{fill:#F2F2F2;}
	.st139{fill:#DFDDDC;}
	.st140{fill:#D8D5D4;}
	.st141{fill:#1E1815;}
	.st142{fill:#332823;}
	.st143{fill:#362821;}
	.st144{fill:#251C18;}
	.st145{fill:#E0DEDE;}
	.st146{fill:#D0CDCA;}
	.st147{fill:#402F27;}
	.st148{fill:#2C211C;}
	.st149{fill:#2B211C;}
	.st150{fill:#352720;}
	.st151{fill:#372821;}
	.st152{fill:#353535;}
	.st153{fill:#715445;}
	.st154{fill:#2D211C;}
	.st155{fill:#1E1D1D;}
	.st156{fill:#C6BDB8;}
	.st157{fill:#151312;}
	.st158{fill:#3C312C;}
	.st159{fill:#585858;}
	.st160{fill:#AB7F68;}
	.st161{fill:#DAD2CD;}
	.st162{fill:#5A5756;}
	.st163{fill:#C1B6B2;}
	.st164{fill:#C5C3C1;}
	.st165{fill:#473329;}
	.st166{fill:#D3C4BD;}
	.st167{fill:#312620;}
	.st168{fill:#E3DAD5;}
	.st169{fill:#2B221D;}
	.st170{fill:#969391;}
	.st171{fill:#382922;}
	.st172{fill:#101012;}
	.st173{fill:#0F1012;}
	.st174{fill:#0E0E10;}
	.st175{fill:#131315;}
	.st176{fill:#CDCDCD;}
	.st177{fill:#16171A;}
	.st178{fill:#27282A;}
	.st179{fill:#D6D5D4;}
	.st180{fill:#262729;}
	.st181{fill:#222325;}
	.st182{fill:#434446;}
	.st183{fill:#58595B;}
	.st184{fill:#1B1B1E;}
	.st185{fill:#707071;}
	.st186{fill:#B1B1B2;}
	.st187{fill:#464749;}
	.st188{fill:#878889;}
	.st189{fill:#525355;}
	.st190{fill:#323336;}
	.st191{fill:#181514;}
	.st192{fill:#1A1918;}
	.st193{fill:#262321;}
	.st194{fill:#D0E5D1;}
	.st195{fill:#151313;}
	.st196{fill:#161312;}
	.st197{fill:#212221;}
	.st198{fill:#242424;}
	.st199{fill:#191919;}
	.st200{fill:#3B3938;}
	.st201{fill:#232222;}
	.st202{fill:#3A3A3A;}
	.st203{fill:#2B2B2A;}
	.st204{fill:#444444;}
	.st205{fill:#424242;}
	.st206{fill:#5A5A5A;}
	.st207{fill:#111110;}
	.st208{fill:#080707;}
	.st209{fill:#CCA089;}
	.st210{fill:#F3F4F5;}
	.st211{fill:#2E2E2E;}
	.st212{fill:#4C4C4C;}
	.st213{fill:#363636;}
	.st214{fill:#C6B8AF;}
	.st215{fill:#232323;}
	.st216{fill:#0D0D0C;}
	.st217{fill:#352B26;}
	.st218{fill:#CA9C85;}
	.st219{fill:#1E1C1B;}
	.st220{fill:#C99C85;}
	.st221{fill:#1F1A17;}
	.st222{fill:#C3967F;}
	.st223{fill:#2B201A;}
	.st224{fill:#231B17;}
	.st225{fill:#24201E;}
	.st226{fill:#E6E3E2;}
	.st227{fill:#342721;}
	.st228{fill:#32261F;}
	.st229{fill:#34302E;}
	.st230{fill:#2B201B;}
	.st231{fill:#8B634E;}
	.st232{fill:#3B2C24;}
	.st233{fill:#453329;}
	.st234{fill:#2A2522;}
	.st235{fill:#271E1A;}
	.st236{fill:#1C1713;}
	.st237{fill:#3F2F26;}
	.st238{fill:#2B2725;}
	.st239{fill:#674A3B;}
	.st240{fill:#433228;}
	.st241{fill:#221E1C;}
	.st242{fill:#48362D;}
	.st243{fill:#4D362C;}
	.st244{fill:#CDC7C4;}
	.st245{fill:#885F4B;}
	.st246{fill:#352822;}
	.st247{fill:#3A2B23;}
	.st248{fill:#403027;}
	.st249{fill:#805B49;}
	.st250{fill:#4E392E;}
	.st251{fill:#342A24;}
	.st252{fill:#825D4A;}
	.st253{fill:#423128;}
	.st254{fill:#4B362C;}
	.st255{fill:#4B372C;}
	.st256{fill:#49352B;}
	.st257{fill:#523C30;}
	.st258{fill:#3F2E25;}
	.st259{fill:#4C372D;}
	.st260{fill:#563E32;}
	.st261{fill:#414040;}
	.st262{fill:#3A3A39;}
	.st263{fill:#575757;}
	.st264{fill:#5F5F5F;}
	.st265{fill:#464646;}
	.st266{fill:#4D4D4D;}
	.st267{fill:#535353;}
	.st268{fill:#555555;}
	.st269{fill:#3F3D3C;}
	.st270{fill:#4F4F4E;}
	.st271{fill:#666566;}
	.st272{fill:#DEDEDE;}
	.st273{fill:#484848;}
	.st274{fill:#535454;}
	.st275{fill:#B8B7B7;}
	.st276{fill:#545454;}
	.st277{fill:#39312D;}
	.st278{fill:#3D3D3C;}
	.st279{fill:#D4D4D4;}
	.st280{fill:#626363;}
	.st281{fill:#2D2D2D;}
	.st282{fill:#313130;}
	.st283{fill:#5B5B5B;}
	.st284{fill:#3B3B3B;}
	.st285{fill:#6D6D6D;}
	.st286{fill:#2C2C2C;}
	.st287{fill:#373737;}
	.st288{fill:#272627;}
	.st289{fill:#898888;}
	.st290{fill:#2C231F;}
	.st291{fill:#201B18;}
	.st292{fill:#3F322B;}
	.st293{fill:#2B231F;}
	.st294{fill:#88624E;}
	.st295{fill:#EBEBEB;}
	.st296{fill:#B0B0B0;}
	.st297{fill:#272726;}
	.st298{fill:#4C382D;}
	.st299{fill:#CCC8C7;}
	.st300{fill:#876E61;}
	.st301{fill:#7D5C4D;}
	.st302{fill:#CACACA;}
	.st303{fill:#404040;}
	.st304{fill:#D3D3D3;}
	.st305{fill:#4B4B4B;}
	.st306{fill:#C8C4C3;}
	.st307{fill:#393938;}
	.st308{fill:#C2C2C2;}
	.st309{fill:#ACACAC;}
	.st310{fill:#F5F5F5;}
	.st311{fill:#FBFCFC;}
	.st312{fill:#AAAAAC;}
	.st313{fill:#F8F9F9;}
	.st314{fill:#0F0E0D;}
	.st315{fill:#26201C;}
	.st316{fill:url(#SVGID_1_);}
	.st317{fill:#5B2F80;}
	.st318{fill:#ED4E2B;}
	.st319{fill:#3F4C97;}
	.st320{fill:none;stroke:#000000;stroke-miterlimit:10;}
	.st321{fill:#F15A29;}
	.st322{fill:#4853A4;}
	.st323{fill:none;}
	.st324{fill:#663795;}
</style>
<g id="Layer_2">
</g>
<g id="Layer_1">
	<g>
		<g>
			
				<line style="fill:none;stroke:#1D76BB;stroke-width:0.1928;stroke-linecap:round;stroke-linejoin:round;stroke-miterlimit:10;" x1="67.83" y1="50.39" x2="67.83" y2="50.06"/>
			<path style="fill:#28A8E0;" d="M67.66,73.17V70.6c0.03,0.03,0.05,0.06,0.05,0.1v1.68c0.16,0.05,0.28,0.21,0.28,0.39
				C67.98,72.97,67.84,73.13,67.66,73.17z"/>
			<polygon style="fill:#1D76BB;" points="71.28,40.26 69,40.26 69,37.98 66.72,37.98 66.72,40.26 64.43,40.26 64.43,42.54 
				66.72,42.54 66.72,44.82 69,44.82 69,42.54 71.28,42.54 			"/>
			<g>
				<g>
					<path style="fill:#1D76BB;" d="M76.61,43.96c-0.22-0.04-0.44,0.11-0.48,0.33c-0.04,0.22,0.11,0.44,0.33,0.48l2.22,0.4
						c0.22,0.04,0.44-0.11,0.48-0.33c0.04-0.22-0.11-0.44-0.33-0.48L76.61,43.96z"/>
					<path style="fill:#1D76BB;" d="M70.79,33.26c-0.09,0.21,0.01,0.45,0.22,0.54c0.21,0.09,0.45-0.01,0.54-0.22l0.88-2.08
						c0.09-0.21-0.01-0.45-0.22-0.54c-0.21-0.09-0.45,0.01-0.54,0.22L70.79,33.26z"/>
					<path style="fill:#1D76BB;" d="M76.03,38.12c-0.21,0.09-0.31,0.32-0.23,0.53c0.09,0.21,0.32,0.31,0.53,0.23l2.09-0.85
						c0.21-0.09,0.31-0.32,0.23-0.53c-0.09-0.21-0.32-0.31-0.53-0.23L76.03,38.12z"/>
				</g>
				<path style="fill:#1D76BB;" d="M71.38,61.07c-1.31-0.82-0.55-2.1,0.33-2.62c0.87-0.51,3.87-2.31,5.89-5.95
					c1.93-3.47,1.42-6.06,2.08-7.9c0.65-1.85,2.62-1.75,3.28-1.75c0.65,0,30.9,0,30.9,0s0.31,0.33-0.51,1.82
					c-0.82,1.49-2.54,1.62-2.54,1.62H83c0.01,0.34,0,0.68-0.01,1.01c4.75,0,26.2,0,26.2,0s0.31,0.32-0.51,1.81
					c-0.82,1.49-2.55,1.62-2.55,1.62H82.41c-0.09,0.31-0.2,0.61-0.31,0.91c4.87-0.01,18.06-0.04,18.06-0.04s0.31,0.32-0.51,1.81
					c-0.82,1.49-2.54,1.62-2.54,1.62l-16.75-0.11c-0.26,0.39-0.54,0.75-0.81,1.09c4.99-0.01,15.08-0.03,15.08-0.03
					s0.31,0.32-0.51,1.81c-0.82,1.49-2.55,1.63-2.55,1.63l-15.43,0.03C75.25,60.38,72.82,61.97,71.38,61.07z"/>
				<path style="fill:#1D76BB;" d="M67.66,55.85v17.44l1.43-0.62c0.14-7.94,0.24-14.61,0.28-16.81H67.66z"/>
				<path style="fill:#1D76BB;" d="M68.8,89.65l-1.14,0.5v-1.33l1.16-0.51C68.81,88.75,68.81,89.2,68.8,89.65z"/>
				<path style="fill:#1D76BB;" d="M68.66,97.51l-1,0.44V96.3l1.03-0.45C68.68,96.42,68.67,96.97,68.66,97.51z"/>
				<path style="fill:#1D76BB;" d="M68.93,81.91l-1.27,0.56v-2.82l1.32-0.58C68.97,80,68.95,80.95,68.93,81.91z"/>
				<path style="fill:#28A8E0;" d="M74.28,105.57c-1.3-0.47-3.11-1.21-5.03-2.02l4.4-1.9C74.7,102.64,74.59,105.28,74.28,105.57z"/>
				<path style="fill:#1D76BB;" d="M67.66,104.25l0.88-0.38c-0.07,3.57-0.12,5.86-0.14,6.02c-0.11,0.78-0.31,1.75-0.7,1.84
					c0,0-0.02,0.01-0.03,0.01V104.25z"/>
				<path style="fill:#28A8E0;" d="M67.66,99.16c2.18-0.91,4.09-1.75,3.98-1.94c-0.06-0.1-0.95-0.63-2.17-1.13l-0.01-0.57l3.39-1.5
					c1.53,0.71,2.74,1.3,3.1,1.59c1.6,1.3,1.07,2.88,0.18,3.56c-0.3,0.23-4.35,2.08-8.46,3.84V99.16z"/>
				<path style="fill:#28A8E0;" d="M67.66,87.72V83.8c3.28-1.32,6.08-2.49,5.84-2.58c-0.16-0.06-1.65-0.68-3.67-1.5v-1.05l3.91-1.68
					c2.61,1.1,4.45,1.87,4.45,1.87c2.4,1.13,2.01,3.5-0.03,4.38C76.59,83.92,71.38,86.09,67.66,87.72z"/>
				<path style="fill:#28A8E0;" d="M67.66,91.28c2.14-0.95,3.85-1.71,3.89-1.83c0.03-0.08-0.81-0.48-1.95-1v-0.53l4.25-1.81
					c1.82,0.72,3.16,1.25,3.34,1.35c1.24,0.69,1.94,2.7-0.19,3.83c-1.15,0.61-5.8,2.39-9.35,3.8V91.28z"/>
				<path style="fill:#28A8E0;" d="M78.57,69.47c0.36-0.34-0.07-0.48-0.07-0.48h-5.82c0,0-0.11-3.55,1.89-4.55
					c2.03-1.01,5.02-0.58,6.08-0.31c1.29,0.34,3.06,1.66,3.06,4.37c0,2.41-0.87,3.9-3.31,4.95c-1.61,0.69-7.9,3.25-12.74,5.21V74.2
					C73,71.94,78.39,69.64,78.57,69.47z M75.31,65.79c-0.32,0-0.59,0.25-0.59,0.56c0,0.3,0.26,0.55,0.59,0.55
					c0.32,0,0.59-0.25,0.59-0.55C75.89,66.04,75.63,65.79,75.31,65.79z"/>
				<path style="fill-rule:evenodd;clip-rule:evenodd;fill:#1668B1;" d="M67.8,51.73h2.65c0.18,0,0.32-0.14,0.32-0.32v-0.27
					c0-0.18-0.14-0.32-0.32-0.32H67.8V51.73z"/>
				<path style="fill-rule:evenodd;clip-rule:evenodd;fill:#1668B1;" d="M67.8,53.2h2.25c0.18,0,0.32-0.14,0.32-0.32v-0.27
					c0-0.18-0.14-0.32-0.32-0.32H67.8V53.2z"/>
				<path style="fill-rule:evenodd;clip-rule:evenodd;fill:#1668B1;" d="M67.8,54.65h1.92c0.18,0,0.32-0.14,0.32-0.32v-0.27
					c0-0.18-0.14-0.32-0.32-0.32H67.8V54.65z"/>
				<path style="fill:#1D76BB;" d="M67.83,34.89v1.23h0.05c0.07,0,0.13,0,0.2,0c1.29,0.05,2.5,0.58,3.42,1.5
					c0.97,0.97,1.5,2.26,1.5,3.63c0,0.24-0.02,0.49-0.06,0.75l-0.01,0.09c-0.02,0.1-0.03,0.17-0.05,0.24l-0.03,0.14
					c-0.01,0.03-0.01,0.05-0.02,0.07c-0.02,0.07-0.04,0.14-0.07,0.22l-0.06,0.2c-0.03,0.11-0.08,0.21-0.12,0.3l-0.03,0.08
					c-0.06,0.13-0.12,0.24-0.17,0.35l-0.03,0.06c-0.05,0.1-0.12,0.2-0.19,0.3l-0.04,0.06c-0.05,0.08-0.11,0.15-0.17,0.23l-0.1,0.13
					c-0.54,0.67-0.91,1.31-1.14,1.96c-0.16,0.47-0.25,0.94-0.28,1.47l0,0.13l-0.66,0.8h-1.95v1.23h2.18c0.2,0,0.38-0.09,0.5-0.25
					l0.98-1.19c0.08-0.1,0.13-0.24,0.13-0.38c0-0.54,0.07-0.97,0.22-1.4c0.18-0.51,0.48-1.02,0.91-1.57l0.03-0.03
					c0.06-0.08,0.12-0.16,0.18-0.24l0.06-0.08c0.03-0.04,0.05-0.07,0.07-0.1c0.05-0.08,0.09-0.15,0.14-0.23l0.07-0.12
					c0.03-0.04,0.05-0.08,0.07-0.12c0.04-0.06,0.07-0.13,0.1-0.19l0.07-0.14c0.03-0.05,0.05-0.11,0.08-0.16
					c0.03-0.05,0.05-0.11,0.07-0.16l0.06-0.15c0.02-0.05,0.04-0.1,0.06-0.14l0.03-0.08c0.01-0.03,0.02-0.07,0.03-0.11l0.04-0.14
					c0.03-0.08,0.05-0.16,0.07-0.24c0.01-0.04,0.02-0.08,0.03-0.11l0.03-0.12c0.03-0.1,0.05-0.2,0.06-0.29
					c0.01-0.05,0.01-0.09,0.02-0.14l0.02-0.14c0.01-0.09,0.03-0.17,0.03-0.25c0.02-0.18,0.03-0.36,0.03-0.54
					c0-0.65-0.1-1.28-0.29-1.89c-0.3-0.98-0.85-1.88-1.58-2.61c-1.13-1.13-2.6-1.78-4.18-1.86c-0.09-0.01-0.17-0.01-0.26-0.01H67.83
					z"/>
			</g>
			<g>
				<g>
					<path style="fill:#28A8E0;" d="M58.58,88.19c-0.18,0.07-0.26,0.28-0.19,0.46c0.07,0.18,0.28,0.26,0.46,0.19
						c0.13-0.06,0.21-0.18,0.22-0.32l8.59-3.53v-0.3l-8.7,3.57C58.86,88.17,58.71,88.14,58.58,88.19z M58.98,88.56
						c-0.01,0.08-0.06,0.15-0.13,0.2l-0.03,0.01c-0.13,0.06-0.29-0.01-0.35-0.14c-0.06-0.14,0.01-0.29,0.14-0.35
						c0.09-0.04,0.19-0.02,0.26,0.03c0.04,0.03,0.07,0.07,0.09,0.11C58.98,88.46,58.98,88.51,58.98,88.56z"/>
					<path style="fill:#28A8E0;" d="M60.89,89.42c0.02,0.05,0.07,0.08,0.13,0.08c0.02,0,0.04,0,0.05-0.01l6.59-2.71v-0.3l-6.69,2.75
						C60.89,89.27,60.86,89.35,60.89,89.42z"/>
					<path style="fill:#28A8E0;" d="M66.78,77.18c0.02,0.05,0.07,0.09,0.13,0.09c0.02,0,0.03,0,0.05-0.01l0.7-0.28v-0.29L66.86,77
						C66.78,77.03,66.75,77.11,66.78,77.18z"/>
					<path style="fill:#28A8E0;" d="M58.57,81.36c0,0.06,0.03,0.1,0.07,0.13l5.24,2.73c0.02,0.01,0.04,0.02,0.06,0.02
						c0.05,0,0.1-0.03,0.12-0.07c0.04-0.07,0.01-0.15-0.06-0.19l-4.97-2.59L67.66,78v-0.29l-9,3.53
						C58.61,81.26,58.57,81.3,58.57,81.36z"/>
					<path style="fill:#28A8E0;" d="M57.94,80.67c0.02,0,0.03,0,0.05-0.01l6.15-2.43c0.07-0.03,0.1-0.11,0.08-0.18
						c-0.03-0.07-0.11-0.11-0.18-0.08l-6.15,2.43c-0.07,0.03-0.1,0.11-0.08,0.18C57.83,80.64,57.89,80.67,57.94,80.67z"/>
					<path style="fill:#28A8E0;" d="M56.89,79.71c-0.07-0.07-0.17-0.1-0.27-0.1c-0.02,0-0.05,0-0.07,0.01
						c-0.1,0.02-0.2,0.08-0.25,0.17c-0.06,0.09-0.08,0.2-0.06,0.3c0.02,0.1,0.08,0.2,0.17,0.25c0.07,0.05,0.14,0.07,0.22,0.07
						c0.03,0,0.05,0,0.08-0.01c0.11-0.02,0.2-0.08,0.26-0.17c0.06-0.08,0.08-0.18,0.06-0.28l10.63-4.37v-0.3L56.89,79.71z
						 M56.73,80.08c-0.02,0.03-0.05,0.05-0.08,0.05c-0.03,0.01-0.07,0-0.09-0.02c-0.03-0.02-0.05-0.05-0.05-0.08
						c-0.01-0.03,0-0.07,0.02-0.09c0.02-0.03,0.05-0.05,0.08-0.05c0.07-0.01,0.13,0.03,0.15,0.1
						C56.76,80.02,56.75,80.05,56.73,80.08z"/>
					<path style="fill:#28A8E0;" d="M61.79,84.23c0.05,0,0.1-0.03,0.12-0.08c0.03-0.07,0.01-0.15-0.06-0.18l-4.87-2.38
						c0,0,0,0-0.01,0c0.01-0.04,0.01-0.08,0-0.12c-0.02-0.09-0.07-0.16-0.14-0.22c-0.08-0.05-0.17-0.07-0.26-0.05
						c-0.09,0.02-0.17,0.07-0.22,0.14c-0.05,0.08-0.07,0.17-0.05,0.26c0.03,0.16,0.18,0.28,0.33,0.28c0.02,0,0.04,0,0.07-0.01
						c0.04-0.01,0.09-0.03,0.12-0.05c0.01,0.01,0.02,0.02,0.03,0.02l4.87,2.38C61.75,84.22,61.77,84.23,61.79,84.23z M56.8,81.62
						c-0.03,0.04-0.07,0.07-0.12,0.08c-0.1,0.02-0.2-0.05-0.22-0.14c-0.01-0.05,0-0.1,0.03-0.14c0.03-0.04,0.07-0.07,0.12-0.08
						c0.01,0,0.02,0,0.04,0c0.04,0,0.07,0.01,0.1,0.03c0.04,0.03,0.07,0.07,0.08,0.12C56.84,81.54,56.83,81.58,56.8,81.62z"/>
					<path style="fill:#28A8E0;" d="M55.28,68.54h6.18c0.08,0,0.14-0.06,0.14-0.14c0-0.08-0.06-0.14-0.14-0.14h-6.32
						c-0.08,0-0.14,0.06-0.14,0.14v1.94c0,0.06,0.03,0.11,0.08,0.13l9.19,3.78c0.02,0.01,0.03,0.01,0.05,0.01
						c0.05,0,0.11-0.03,0.13-0.08c0.03-0.07,0-0.15-0.07-0.18l-9.1-3.74V68.54z"/>
					<path style="fill:#28A8E0;" d="M62.49,74.98c0.05,0,0.11-0.03,0.13-0.09c0.03-0.07-0.01-0.15-0.08-0.18l-8.82-3.47v-4.72h5.64
						c0.05,0.24,0.24,0.44,0.5,0.49c0.35,0.07,0.68-0.16,0.75-0.5c0.07-0.35-0.16-0.68-0.5-0.75c-0.34-0.07-0.67,0.15-0.75,0.49
						h-5.78c-0.08,0-0.14,0.06-0.14,0.14v4.95c0,0.06,0.03,0.11,0.09,0.13l8.9,3.5C62.45,74.98,62.47,74.98,62.49,74.98z"/>
					<path style="fill:#28A8E0;" d="M54.7,65.81c0.14,0,0.27-0.09,0.32-0.21h2.96c0.08,0,0.14-0.06,0.14-0.14v-0.33h2.37l0.16,0.29
						c0.04,0.07,0.12,0.09,0.19,0.05c0.07-0.04,0.09-0.12,0.05-0.19l-0.2-0.36c-0.02-0.04-0.07-0.07-0.12-0.07h-2.59
						c-0.08,0-0.14,0.06-0.14,0.14v0.33h-2.83c0,0,0,0,0,0c-0.05-0.12-0.18-0.21-0.32-0.21c-0.19,0-0.35,0.16-0.35,0.35
						C54.35,65.65,54.51,65.81,54.7,65.81z M54.7,65.19c0.1,0,0.18,0.05,0.23,0.13c0.02,0.04,0.04,0.09,0.04,0.14
						c0,0.05-0.01,0.1-0.04,0.14c-0.05,0.08-0.13,0.13-0.23,0.13c-0.15,0-0.27-0.12-0.27-0.27C54.44,65.31,54.56,65.19,54.7,65.19z"
						/>
					<path style="fill:#28A8E0;" d="M59.01,66.95c0-0.08-0.06-0.14-0.14-0.14h-3.73c-0.08,0-0.14,0.06-0.14,0.14v0.52
						c0,0,0,0.01,0,0.01c0,0,0,0,0,0c-0.02,0.01-0.04,0.02-0.05,0.03c-0.08,0.05-0.13,0.13-0.14,0.22c-0.02,0.09,0,0.18,0.05,0.26
						c0.05,0.08,0.13,0.13,0.22,0.14c0.02,0,0.05,0.01,0.07,0.01c0.07,0,0.13-0.02,0.19-0.06c0.08-0.05,0.13-0.13,0.14-0.22
						c0.02-0.09,0-0.18-0.05-0.26c-0.04-0.05-0.09-0.1-0.15-0.12c0,0,0,0,0,0c0,0,0-0.01,0-0.01v-0.38h3.46v0.63
						c0,0.08,0.06,0.14,0.14,0.14h2.8c0.08,0,0.14-0.06,0.14-0.14c0-0.08-0.06-0.14-0.14-0.14h-2.66V66.95z M55.3,67.69
						c0.03,0.04,0.04,0.09,0.03,0.14c-0.01,0.05-0.04,0.09-0.08,0.12c-0.04,0.03-0.09,0.04-0.14,0.03
						c-0.05-0.01-0.09-0.04-0.12-0.08c-0.03-0.04-0.04-0.09-0.03-0.14c0.01-0.05,0.04-0.09,0.08-0.12c0,0,0,0,0.01,0
						c0.03-0.02,0.06-0.03,0.1-0.03c0.01,0,0.02,0,0.04,0c0.02,0.01,0.04,0.01,0.06,0.03C55.26,67.65,55.28,67.67,55.3,67.69z"/>
					<path style="fill:#28A8E0;" d="M58.25,89.74c0,0.05,0.03,0.1,0.07,0.13l4.3,2.22c0.02,0.01,0.04,0.02,0.06,0.02
						c0.05,0,0.1-0.03,0.12-0.07c0.04-0.07,0.01-0.15-0.06-0.19l-4.04-2.09l8.94-3.71v-0.3l-9.32,3.87
						C58.29,89.64,58.25,89.69,58.25,89.74z"/>
					<path style="fill:#28A8E0;" d="M64.6,91.39c0.02,0.01,0.04,0.02,0.06,0.02c0.05,0,0.1-0.03,0.12-0.07
						c0.04-0.07,0.01-0.15-0.06-0.19l-1.97-1.06c-0.07-0.04-0.15-0.01-0.19,0.06c-0.04,0.07-0.01,0.15,0.06,0.19L64.6,91.39z"/>
					<path style="fill:#28A8E0;" d="M62.82,91.5c0.17,0.1,0.38,0.04,0.48-0.13c0.1-0.17,0.04-0.38-0.13-0.48
						c-0.12-0.07-0.28-0.06-0.38,0.02c0,0,0,0,0,0l-1.63-0.94c-0.07-0.04-0.15-0.02-0.19,0.05c-0.04,0.07-0.02,0.15,0.05,0.19
						l1.62,0.94c0,0,0,0,0,0c-0.01,0.12,0.04,0.24,0.13,0.32c0.01,0,0.01,0.01,0.02,0.01C62.81,91.49,62.81,91.5,62.82,91.5z
						 M62.73,91.21L62.73,91.21c0-0.05,0.01-0.1,0.04-0.14c0.03-0.04,0.06-0.08,0.1-0.1c0.07-0.04,0.15-0.05,0.23-0.02l0.01,0.01
						c0.01,0,0.02,0.01,0.02,0.01c0.13,0.07,0.17,0.24,0.1,0.37c-0.07,0.13-0.24,0.17-0.37,0.1C62.78,91.39,62.73,91.3,62.73,91.21z
						"/>
					<polygon style="fill:#28A8E0;" points="62.78,91.48 62.78,91.48 62.78,91.48 					"/>
					<path style="fill:#28A8E0;" d="M60.62,92.28c-0.01,0.12,0.04,0.25,0.15,0.33c0.01,0.01,0.02,0.01,0.03,0.02
						c0.01,0.01,0.02,0.01,0.02,0.01c0.16,0.08,0.36,0.01,0.45-0.15c0.09-0.17,0.04-0.38-0.13-0.48c-0.13-0.07-0.28-0.06-0.38,0.03
						l-2.37-1.34c-0.07-0.04-0.15-0.01-0.19,0.05c-0.04,0.07-0.01,0.15,0.05,0.19L60.62,92.28C60.62,92.28,60.62,92.28,60.62,92.28z
						 M60.7,92.32c-0.01-0.05,0.01-0.1,0.03-0.14c0.03-0.04,0.06-0.08,0.1-0.1c0.08-0.05,0.18-0.05,0.26,0
						c0.13,0.07,0.18,0.24,0.1,0.37c-0.07,0.13-0.24,0.18-0.36,0.1C60.75,92.5,60.7,92.42,60.7,92.32L60.7,92.32z"/>
					<path style="fill:#28A8E0;" d="M59.61,97.86c-0.01,0.05,0.02,0.1,0.06,0.13l3.03,2.09c0.02,0.02,0.05,0.02,0.08,0.02
						c0.04,0,0.09-0.02,0.11-0.06c0.04-0.06,0.03-0.15-0.04-0.19l-2.82-1.95l7.63-3.28v-0.3l-7.96,3.43
						C59.65,97.77,59.62,97.81,59.61,97.86z"/>
					<path style="fill:#28A8E0;" d="M58.44,96.58c0.02,0.05,0.07,0.08,0.12,0.08c0.02,0,0.04,0,0.06-0.01l9.04-4.08v-0.3l-9.15,4.13
						C58.44,96.43,58.41,96.51,58.44,96.58z"/>
					<path style="fill:#28A8E0;" d="M63.94,98.95c0.01,0.01,0.02,0.01,0.02,0.01c0.16,0.08,0.36,0.03,0.46-0.13
						c0.1-0.16,0.05-0.38-0.11-0.48c-0.12-0.08-0.28-0.07-0.39,0.01l-1.33-0.81c-0.04-0.02-0.08-0.03-0.12-0.01l-1.03,0.41
						c-0.05,0.02-0.08,0.06-0.09,0.11c-0.01,0.05,0.02,0.1,0.06,0.13l2.21,1.44c0.02,0.02,0.05,0.02,0.07,0.02
						c0.04,0,0.09-0.02,0.11-0.06c0.04-0.06,0.02-0.15-0.04-0.19l-1.98-1.3l0.73-0.29l1.28,0.78c0,0,0,0,0,0
						C63.75,98.74,63.81,98.88,63.94,98.95z M63.89,98.51c0.03-0.04,0.06-0.07,0.1-0.1c0.08-0.04,0.17-0.04,0.25,0
						c0,0,0.01,0.01,0.01,0.01h0c0.01,0,0.01,0.01,0.01,0.01c0.11,0.08,0.15,0.24,0.08,0.36c-0.08,0.13-0.24,0.17-0.37,0.09
						c-0.08-0.05-0.13-0.14-0.13-0.23C63.85,98.6,63.86,98.55,63.89,98.51z"/>
					<path style="fill:#28A8E0;" d="M59.3,97.1c0.02,0.05,0.07,0.08,0.13,0.08c0.02,0,0.04-0.01,0.06-0.01l8.18-3.59v-0.3
						l-8.29,3.64C59.3,96.95,59.27,97.03,59.3,97.1z"/>
					<path style="fill:#28A8E0;" d="M61.67,103.45c0.02,0.05,0.07,0.08,0.13,0.08c0.02,0,0.04,0,0.05-0.01l5.81-2.41v-0.3
						l-5.92,2.46C61.67,103.3,61.64,103.38,61.67,103.45z"/>
					<path style="fill:#28A8E0;" d="M61.95,104.93c0.02,0.05,0.07,0.08,0.13,0.08c0.02,0,0.04,0,0.05-0.01l5.53-2.34v-0.3
						l-5.63,2.38C61.95,104.78,61.92,104.86,61.95,104.93z"/>
					<path style="fill:#28A8E0;" d="M64,101.56c0.02,0.05,0.07,0.08,0.13,0.08c0.02,0,0.04,0,0.05-0.01l3.47-1.45v-0.3l-3.58,1.5
						C64.01,101.41,63.98,101.49,64,101.56z"/>
					<path style="fill:#28A8E0;" d="M63.74,103.34c0.02,0.05,0.07,0.08,0.12,0.08c0.02,0,0.04,0,0.05-0.01l3.74-1.57v-0.3
						l-3.84,1.61C63.74,103.19,63.71,103.27,63.74,103.34z"/>
					<path style="fill:#28A8E0;" d="M58.81,98.1c-0.06-0.04-0.15-0.03-0.19,0.03c-0.05,0.06-0.03,0.15,0.03,0.19l1.6,1.2
						c0.02,0.02,0.05,0.03,0.08,0.03c0.04,0,0.08-0.02,0.11-0.05c0.05-0.06,0.03-0.15-0.03-0.19L58.81,98.1z"/>
					<path style="fill:#28A8E0;" d="M59.65,74.98c0.05,0,0.11-0.03,0.13-0.09c0.03-0.07-0.01-0.15-0.08-0.18l-4.31-1.66
						c-0.07-0.03-0.15,0.01-0.18,0.08c-0.03,0.07,0.01,0.15,0.08,0.18l4.31,1.66C59.62,74.98,59.63,74.98,59.65,74.98z"/>
					<path style="fill:#28A8E0;" d="M54.96,70.78c-0.18-0.07-0.38,0.02-0.45,0.2c-0.07,0.18,0.02,0.38,0.2,0.45
						c0.13,0.05,0.28,0.02,0.38-0.08c0,0,0,0,0,0l3.11,1.23c0.02,0.01,0.03,0.01,0.05,0.01c0.05,0,0.11-0.03,0.13-0.09
						c0.03-0.07-0.01-0.15-0.08-0.18l-3.11-1.23c0,0,0,0,0,0C55.18,70.96,55.1,70.84,54.96,70.78z M55.09,71.21
						c-0.02,0.05-0.05,0.08-0.09,0.11c-0.07,0.06-0.17,0.07-0.26,0.04l-0.02-0.01c-0.13-0.06-0.18-0.21-0.13-0.34
						c0.06-0.14,0.21-0.21,0.35-0.15c0.09,0.04,0.15,0.12,0.17,0.21C55.11,71.11,55.1,71.17,55.09,71.21z"/>
				</g>
				<g>
					<g>
						<path style="fill:#1D76BB;" d="M53.24,43.99l1.37,0.96l0.35,1.65c-0.09,0.07-0.14,0.19-0.11,0.3c0.04,0.17,0.2,0.27,0.37,0.24
							c0.17-0.04,0.27-0.2,0.24-0.37c-0.03-0.12-0.12-0.2-0.23-0.23l-0.36-1.71c-0.01-0.03-0.03-0.06-0.05-0.08l-1.45-1.02
							c-0.02-0.02-0.05-0.03-0.08-0.03h-29.7c-0.06-0.16-0.21-0.28-0.39-0.28c-0.23,0-0.41,0.18-0.41,0.41
							c0,0.23,0.18,0.41,0.41,0.41c0.18,0,0.33-0.12,0.39-0.28H53.24z"/>
						<path style="fill:#1D76BB;" d="M29.98,44.93c0.06,0.16,0.21,0.28,0.39,0.28c0.23,0,0.41-0.18,0.41-0.41
							c0-0.23-0.18-0.41-0.41-0.41c-0.18,0-0.33,0.12-0.39,0.28h-5.33c-0.06-0.16-0.21-0.28-0.39-0.28c-0.23,0-0.41,0.18-0.41,0.41
							c0,0.23,0.18,0.41,0.41,0.41c0.18,0,0.33-0.12,0.39-0.28H29.98z"/>
						<path style="fill:#1D76BB;" d="M42.74,45.2c0.23,0,0.41-0.18,0.41-0.41c0-0.23-0.18-0.41-0.41-0.41
							c-0.18,0-0.33,0.12-0.39,0.28h-8.48c-0.03,0-0.06,0.01-0.09,0.03l-1.19,1h-4.24c-0.06-0.16-0.21-0.28-0.39-0.28
							c-0.23,0-0.41,0.18-0.41,0.41c0,0.23,0.18,0.41,0.41,0.41c0.18,0,0.33-0.12,0.39-0.28h4.29c0.03,0,0.06-0.01,0.09-0.03l1.19-1
							h8.43C42.41,45.09,42.56,45.2,42.74,45.2z"/>
						<path style="fill:#1D76BB;" d="M35.64,45.97c0.18,0,0.33-0.12,0.39-0.28h16.43c0.08,0,0.14-0.06,0.14-0.14
							c0-0.08-0.06-0.14-0.14-0.14H36.03c-0.06-0.16-0.21-0.28-0.39-0.28c-0.23,0-0.41,0.18-0.41,0.41
							C35.23,45.78,35.42,45.97,35.64,45.97z"/>
						<path style="fill:#1D76BB;" d="M54.32,47.39l-0.42-1.92c-0.01-0.03-0.03-0.06-0.06-0.08l-0.92-0.63
							c-0.02-0.02-0.05-0.02-0.08-0.02h-4.42c-0.06-0.16-0.21-0.28-0.39-0.28c-0.23,0-0.41,0.18-0.41,0.41
							c0,0.23,0.18,0.41,0.41,0.41c0.18,0,0.33-0.12,0.39-0.28h4.38l0.84,0.57l0.41,1.87c-0.14,0.09-0.22,0.26-0.19,0.44
							c0.05,0.22,0.27,0.36,0.49,0.31c0.22-0.05,0.36-0.27,0.31-0.49C54.63,47.54,54.49,47.41,54.32,47.39z"/>
						<path style="fill:#1D76BB;" d="M27.87,48.09h6.66c0.08,0,0.14-0.06,0.14-0.14s-0.06-0.14-0.14-0.14h-6.66
							c-0.06-0.16-0.21-0.28-0.39-0.28c-0.23,0-0.41,0.18-0.41,0.41c0,0.23,0.18,0.41,0.41,0.41
							C27.66,48.36,27.81,48.25,27.87,48.09z"/>
						<path style="fill:#1D76BB;" d="M29.9,48.74c-0.23,0-0.41,0.18-0.41,0.41c0,0.23,0.18,0.41,0.41,0.41
							c0.18,0,0.33-0.12,0.39-0.28h8.13c0.06,0.16,0.21,0.28,0.39,0.28c0.23,0,0.41-0.18,0.41-0.41c0-0.23-0.18-0.41-0.41-0.41
							c-0.18,0-0.33,0.12-0.39,0.28h-8.13C30.23,48.85,30.08,48.74,29.9,48.74z"/>
						<path style="fill:#1D76BB;" d="M40.22,50.27l1.33-1.33h7.01c0.06,0.16,0.21,0.28,0.39,0.28c0.23,0,0.41-0.18,0.41-0.41
							c0-0.23-0.18-0.41-0.41-0.41c-0.18,0-0.33,0.12-0.39,0.28h-7.07c-0.04,0-0.07,0.01-0.1,0.04l-1.33,1.33H29.39l-0.91-0.91
							c0.07-0.15,0.05-0.34-0.08-0.47c-0.16-0.16-0.42-0.16-0.58,0c-0.16,0.16-0.16,0.42,0,0.58c0.13,0.13,0.32,0.15,0.47,0.08
							l0.95,0.95c0.03,0.03,0.06,0.04,0.1,0.04h10.79C40.16,50.31,40.19,50.3,40.22,50.27z"/>
						<path style="fill:#1D76BB;" d="M52.05,49.61c0,0.23,0.18,0.41,0.41,0.41c0.23,0,0.41-0.18,0.41-0.41
							c0-0.18-0.12-0.33-0.28-0.39v-0.37c0-0.08-0.06-0.14-0.14-0.14h-0.98l-0.93-0.93c-0.03-0.03-0.06-0.04-0.1-0.04H37.36
							c-0.06-0.16-0.21-0.28-0.39-0.28c-0.23,0-0.41,0.18-0.41,0.41c0,0.23,0.18,0.41,0.41,0.41c0.18,0,0.33-0.12,0.39-0.28H50.4
							l0.93,0.93c0.03,0.03,0.06,0.04,0.1,0.04h0.9v0.24C52.16,49.28,52.05,49.43,52.05,49.61z"/>
						<path style="fill:#1D76BB;" d="M43.47,49.65c-0.06-0.16-0.21-0.28-0.39-0.28c-0.23,0-0.41,0.18-0.41,0.41
							c0,0.23,0.18,0.41,0.41,0.41c0.18,0,0.33-0.12,0.39-0.28h7.21c0.08,0,0.14-0.06,0.14-0.14c0-0.08-0.06-0.14-0.14-0.14H43.47z"
							/>
						<path style="fill:#1D76BB;" d="M36.28,52.39h17.27c0.08,0,0.14-0.06,0.14-0.14c0-0.08-0.06-0.14-0.14-0.14H36.28
							c-0.06-0.16-0.21-0.28-0.39-0.28c-0.23,0-0.41,0.18-0.41,0.41c0,0.23,0.18,0.41,0.41,0.41
							C36.07,52.67,36.22,52.55,36.28,52.39z"/>
						<path style="fill:#1D76BB;" d="M53.43,53.48c0.23,0,0.41-0.18,0.42-0.41c0-0.23-0.18-0.41-0.41-0.42
							c-0.18,0-0.33,0.11-0.39,0.27l-11.12-0.11c-0.05,0-0.11,0.03-0.13,0.08c-0.02,0.05-0.01,0.11,0.03,0.15l0.47,0.47
							c0.03,0.03,0.06,0.04,0.1,0.04c0.04,0,0.07-0.01,0.1-0.04c0.05-0.05,0.05-0.14,0-0.19l-0.24-0.24l10.79,0.11
							C53.1,53.36,53.25,53.47,53.43,53.48z"/>
						<path style="fill:#1D76BB;" d="M39.47,53.63c-0.18,0-0.33,0.12-0.39,0.28h-1.53c-0.06-0.16-0.21-0.28-0.39-0.28
							c-0.23,0-0.41,0.18-0.41,0.41c0,0.23,0.18,0.41,0.41,0.41c0.18,0,0.33-0.12,0.39-0.28h1.53c0.06,0.16,0.21,0.28,0.39,0.28
							c0.23,0,0.41-0.18,0.41-0.41C39.88,53.81,39.7,53.63,39.47,53.63z"/>
						<path style="fill:#1D76BB;" d="M42.27,56.87h13.76c0.08,0,0.14-0.06,0.14-0.14c0-0.08-0.06-0.14-0.14-0.14H42.27
							c-0.06-0.16-0.21-0.28-0.39-0.28c-0.23,0-0.41,0.18-0.41,0.41c0,0.23,0.18,0.41,0.41,0.41
							C42.06,57.15,42.22,57.03,42.27,56.87z"/>
						<path style="fill:#1D76BB;" d="M49.36,53.93h5.44c0.08,0,0.14-0.06,0.14-0.14v-1.81c0-0.02,0-0.03-0.01-0.05l-1.15-3.28
							c0.13-0.11,0.19-0.29,0.13-0.46c-0.08-0.21-0.31-0.33-0.53-0.25c-0.21,0.08-0.33,0.31-0.25,0.53
							c0.06,0.17,0.22,0.27,0.39,0.27L54.66,52v1.65h-5.3c-0.08,0-0.14,0.06-0.14,0.14C49.22,53.87,49.28,53.93,49.36,53.93z"/>
						<path style="fill:#1D76BB;" d="M48.46,54.69c0.02,0.01,0.05,0.02,0.07,0.02h8.2c0.04,0,0.08-0.02,0.1-0.05
							c0.03-0.03,0.04-0.07,0.03-0.11l-0.22-1.85c0-0.01,0-0.02-0.01-0.03l-1.13-3.13c0.13-0.11,0.19-0.29,0.13-0.46
							c-0.08-0.21-0.31-0.32-0.53-0.25c-0.21,0.08-0.32,0.31-0.25,0.53c0.06,0.17,0.22,0.27,0.39,0.27l1.13,3.12l0.2,1.68h-8.01
							l-0.77-0.46c-0.02-0.01-0.05-0.02-0.07-0.02h-6.62l-1.13-1.1c-0.03-0.03-0.06-0.04-0.1-0.04h-3.81
							c-0.08,0-0.14,0.06-0.14,0.14c0,0.08,0.06,0.14,0.14,0.14h3.75l1.13,1.1c0.03,0.03,0.06,0.04,0.1,0.04h6.64L48.46,54.69z"/>
						<path style="fill:#1D76BB;" d="M55.75,52.3c-0.08,0-0.14,0.06-0.14,0.14v1c-0.16,0.06-0.28,0.21-0.28,0.39
							c0,0.23,0.18,0.41,0.41,0.41c0.23,0,0.41-0.18,0.41-0.41c0-0.18-0.12-0.33-0.28-0.39v-1C55.89,52.36,55.83,52.3,55.75,52.3z"
							/>
						<path style="fill:#1D76BB;" d="M58.99,57.5l-0.87-0.87c0.07-0.15,0.05-0.34-0.08-0.47c-0.16-0.16-0.42-0.16-0.58,0
							c-0.16,0.16-0.16,0.42,0,0.58c0.13,0.13,0.32,0.15,0.47,0.08l0.87,0.87c-0.07,0.15-0.05,0.34,0.08,0.47
							c0.16,0.16,0.42,0.16,0.58,0c0.16-0.16,0.16-0.42,0-0.58C59.33,57.45,59.14,57.43,58.99,57.5z"/>
						<path style="fill:#1D76BB;" d="M64.01,59.62l-2.83-1.58l-3.15-3.15c-0.05-0.05-0.14-0.05-0.19,0c-0.05,0.05-0.05,0.14,0,0.19
							l3.16,3.16c0.01,0.01,0.02,0.02,0.03,0.02l2.69,1.5l-0.78,0.8l-1.82-1.1c0.03-0.17-0.04-0.34-0.19-0.44
							c-0.2-0.12-0.45-0.05-0.57,0.14c-0.12,0.2-0.05,0.45,0.14,0.57c0.15,0.09,0.34,0.07,0.47-0.04l1.91,1.15
							c0.02,0.01,0.05,0.02,0.07,0.02c0.04,0,0.07-0.01,0.1-0.04l0.98-1.01c0.03-0.03,0.04-0.07,0.04-0.12
							C64.08,59.68,64.05,59.64,64.01,59.62z"/>
						<path style="fill:#1D76BB;" d="M54.82,57.34h-1.95c-0.06-0.16-0.21-0.28-0.39-0.28c-0.23,0-0.41,0.18-0.41,0.41
							c0,0.23,0.18,0.41,0.41,0.41c0.18,0,0.33-0.12,0.39-0.28h1.95c0.06,0.16,0.21,0.28,0.39,0.28c0.23,0,0.41-0.18,0.41-0.41
							c0-0.23-0.18-0.41-0.41-0.41C55.03,57.06,54.88,57.18,54.82,57.34z"/>
						<path style="fill:#1D76BB;" d="M56.5,58.27c-0.18,0-0.33,0.12-0.39,0.28H46.4l-1.17-1.17c-0.03-0.03-0.06-0.04-0.1-0.04h-3.08
							c-0.08,0-0.14,0.06-0.14,0.14c0,0.08,0.06,0.14,0.14,0.14h3.03l1.17,1.17c0.03,0.03,0.06,0.04,0.1,0.04h9.77
							c0.06,0.16,0.21,0.28,0.39,0.28c0.23,0,0.41-0.18,0.41-0.41C56.91,58.46,56.72,58.27,56.5,58.27z"/>
						<path style="fill:#1D76BB;" d="M49.88,57.51h-2.7c-0.06-0.16-0.21-0.28-0.39-0.28c-0.23,0-0.41,0.18-0.41,0.41
							c0,0.23,0.18,0.41,0.41,0.41c0.18,0,0.33-0.12,0.39-0.28h2.7c0.06,0.16,0.21,0.28,0.39,0.28c0.23,0,0.41-0.18,0.41-0.41
							c0-0.23-0.18-0.41-0.41-0.41C50.09,57.24,49.94,57.35,49.88,57.51z"/>
						<path style="fill:#1D76BB;" d="M44.78,58.14c-0.18,0-0.33,0.12-0.39,0.28h-1.85c-0.08,0-0.14,0.06-0.14,0.14
							c0,0.08,0.06,0.14,0.14,0.14h1.85c0.06,0.16,0.21,0.28,0.39,0.28c0.23,0,0.41-0.18,0.41-0.41
							C45.19,58.33,45.01,58.14,44.78,58.14z"/>
					</g>
					<g>
						<path style="fill:#1D76BB;" d="M67.61,59.11c0.08,0,0.14-0.06,0.14-0.14v-2.8c0-0.08-0.06-0.14-0.14-0.14
							s-0.14,0.06-0.14,0.14v2.8C67.48,59.05,67.54,59.11,67.61,59.11z"/>
						<path style="fill:#1D76BB;" d="M66.73,61.5c0,0.18,0.12,0.33,0.28,0.39v8.14c0,0.07,0.06,0.14,0.14,0.14h0.51v-0.27h-0.38
							v-8.01c0.16-0.06,0.27-0.21,0.27-0.39c0-0.23-0.18-0.41-0.41-0.41S66.73,61.27,66.73,61.5z"/>
						<path style="fill:#1D76BB;" d="M67.71,72.38V70.7c0-0.04-0.02-0.08-0.05-0.1c-0.02-0.02-0.05-0.03-0.09-0.03h-1.19V60H67
							c0.08,0,0.14-0.06,0.14-0.14v-4.02c0-0.08-0.06-0.14-0.14-0.14c-0.08,0-0.14,0.06-0.14,0.14v3.88h-0.62
							c-0.08,0-0.14,0.06-0.14,0.14V70.7c0,0.08,0.06,0.14,0.14,0.14h1.19v1.54c-0.16,0.06-0.27,0.21-0.27,0.39
							c0,0.23,0.18,0.41,0.41,0.41c0.03,0,0.06,0,0.09-0.01c0.19-0.04,0.32-0.2,0.32-0.4C67.98,72.59,67.87,72.43,67.71,72.38z"/>
						<path style="fill:#1D76BB;" d="M66.91,71.18c-0.08,0-0.14,0.06-0.14,0.14v1.36c0,0.08,0.06,0.14,0.14,0.14
							s0.14-0.06,0.14-0.14v-1.36C67.04,71.24,66.98,71.18,66.91,71.18z"/>
						<path style="fill:#1D76BB;" d="M66.29,82.79c0.02,0.05,0.07,0.08,0.12,0.08c0.02,0,0.04,0,0.06-0.01l1.19-0.52v-0.3l-1.3,0.57
							C66.29,82.64,66.26,82.72,66.29,82.79z"/>
						<path style="fill:#1D76BB;" d="M66.38,80.38c0-0.08-0.06-0.14-0.14-0.14c-0.08,0-0.14,0.06-0.14,0.14l0.01,1.81
							c0,0.05,0.02,0.09,0.06,0.11c0.02,0.02,0.05,0.02,0.08,0.02c0.02,0,0.04-0.01,0.05-0.01l1.35-0.57v-0.3l-1.27,0.54
							L66.38,80.38z"/>
						<path style="fill:#1D76BB;" d="M66.94,80.39c-0.08,0-0.14,0.06-0.14,0.14v0.67c0,0.08,0.06,0.14,0.14,0.14
							s0.14-0.06,0.14-0.14v-0.67C67.07,80.46,67.01,80.39,66.94,80.39z"/>
						<path style="fill:#1D76BB;" d="M66.26,89.59l0.01,0.53v0C66.11,90.18,66,90.33,66,90.51c0,0.23,0.19,0.41,0.42,0.41
							c0.23,0,0.41-0.19,0.41-0.42c0-0.18-0.12-0.33-0.28-0.38v0l-0.01-0.44l1.12-0.49v-0.3l-1.31,0.57
							C66.3,89.49,66.26,89.54,66.26,89.59z"/>
						<path style="fill:#1D76BB;" d="M66.94,90.15c0.02,0.05,0.07,0.08,0.13,0.08c0.02,0,0.04,0,0.05-0.01L67.66,90v-0.3l-0.65,0.27
							C66.94,90,66.91,90.08,66.94,90.15z"/>
						<path style="fill:#1D76BB;" d="M66.68,98.75v-1.38c0-0.08-0.06-0.14-0.14-0.14s-0.14,0.06-0.14,0.14v1.38
							c0,0.08,0.06,0.14,0.14,0.14S66.68,98.82,66.68,98.75z"/>
						<path style="fill:#1D76BB;" d="M66.88,97.93c0.02,0.05,0.07,0.07,0.12,0.07c0.02,0,0.04-0.01,0.06-0.02l0.6-0.3v-0.31
							l-0.72,0.37C66.87,97.78,66.84,97.86,66.88,97.93z"/>
						<path style="fill:#1D76BB;" d="M66.63,105.3v4.99c0,0.07,0.06,0.14,0.14,0.14h0.78v0.14c-0.16,0.05-0.28,0.21-0.28,0.39
							c0,0.22,0.17,0.4,0.39,0.41v-0.25v-0.57v-0.39H66.9v-4.76l0.76-0.34v-0.3l-0.95,0.42C66.66,105.2,66.63,105.24,66.63,105.3z"
							/>
						<path style="fill:#1D76BB;" d="M67.02,109.71c0,0.08,0.06,0.14,0.14,0.14h0.5v-0.27h-0.5
							C67.08,109.57,67.02,109.64,67.02,109.71z"/>
						<path style="fill:#1D76BB;" d="M67.57,105.93v3.08c0,0.06,0.04,0.11,0.09,0.13v-3.34C67.61,105.82,67.57,105.87,67.57,105.93z
							"/>
					</g>
					<g>
						<path style="fill:#1D76BB;" d="M66.06,53.6c-0.33,0-0.6,0.27-0.6,0.6c0,0.33,0.27,0.6,0.6,0.6c0.28,0,0.52-0.2,0.58-0.46h1.16
							v-0.27h-1.16C66.58,53.79,66.35,53.6,66.06,53.6z M66.06,54.52c-0.18,0-0.32-0.15-0.32-0.32c0-0.18,0.15-0.32,0.32-0.32
							c0.18,0,0.32,0.15,0.32,0.32C66.39,54.37,66.24,54.52,66.06,54.52z"/>
						<path style="fill:#1D76BB;" d="M65.75,52.14c-0.33,0-0.6,0.27-0.6,0.6c0,0.33,0.27,0.6,0.6,0.6c0.28,0,0.52-0.2,0.58-0.46
							h1.47v-0.27h-1.47C66.27,52.34,66.04,52.14,65.75,52.14z M65.75,53.07c-0.18,0-0.32-0.15-0.32-0.32
							c0-0.18,0.15-0.32,0.32-0.32c0.18,0,0.32,0.15,0.32,0.32C66.08,52.92,65.93,53.07,65.75,53.07z"/>
						<path style="fill:#1D76BB;" d="M65.4,50.68c-0.33,0-0.6,0.27-0.6,0.6c0,0.33,0.27,0.6,0.6,0.6c0.28,0,0.52-0.2,0.58-0.46h1.81
							v-0.27h-1.81C65.92,50.88,65.69,50.68,65.4,50.68z M65.4,51.6c-0.18,0-0.32-0.15-0.32-0.32c0-0.18,0.15-0.32,0.32-0.32
							c0.18,0,0.32,0.15,0.32,0.32C65.73,51.46,65.58,51.6,65.4,51.6z"/>
						<path style="fill:#1D76BB;" d="M63,37.76c0.33,0,0.6-0.27,0.6-0.6c0-0.13-0.05-0.26-0.12-0.35c1.1-1.08,2.56-1.71,4.11-1.77
							c0.08,0,0.16-0.01,0.24-0.01c0.08,0,0.14-0.06,0.14-0.14c0-0.08-0.06-0.14-0.14-0.14c-0.09,0-0.17,0-0.27,0.01
							c-1.62,0.06-3.14,0.73-4.3,1.87c-0.08-0.04-0.17-0.07-0.27-0.07c-0.33,0-0.6,0.27-0.6,0.6C62.4,37.49,62.67,37.76,63,37.76z
							 M63,36.83c0.18,0,0.32,0.15,0.32,0.32c0,0.18-0.15,0.32-0.32,0.32s-0.32-0.15-0.32-0.32C62.67,36.98,62.82,36.83,63,36.83z"
							/>
						<path style="fill:#1D76BB;" d="M58.6,43.83l-2.22,0.4c-0.3,0.05-0.49,0.34-0.44,0.64c0.03,0.14,0.11,0.27,0.23,0.35
							c0.09,0.06,0.2,0.1,0.31,0.1c0.03,0,0.07,0,0.1-0.01l2.22-0.4c0.14-0.03,0.27-0.11,0.35-0.23c0.08-0.12,0.11-0.27,0.09-0.41
							C59.18,43.97,58.89,43.77,58.6,43.83z M58.92,44.52c-0.04,0.06-0.1,0.1-0.18,0.11l-2.22,0.4c-0.07,0.01-0.14,0-0.2-0.04
							c-0.06-0.04-0.1-0.1-0.11-0.18c-0.03-0.15,0.07-0.29,0.22-0.32l2.22-0.4c0,0,0,0,0,0c0.02,0,0.03,0,0.05,0
							c0.13,0,0.24,0.09,0.27,0.22C58.98,44.39,58.96,44.46,58.92,44.52z"/>
						<path style="fill:#1D76BB;" d="M63.52,33.57c0.05,0.14,0.16,0.24,0.29,0.3c0.07,0.03,0.14,0.04,0.21,0.04
							c0.07,0,0.14-0.01,0.21-0.04c0.28-0.11,0.41-0.43,0.3-0.71l-0.85-2.09c-0.05-0.14-0.16-0.24-0.29-0.3
							c-0.13-0.06-0.28-0.06-0.42,0c-0.14,0.05-0.24,0.16-0.3,0.29c-0.06,0.13-0.06,0.28,0,0.42L63.52,33.57z M62.93,31.17
							c0.03-0.07,0.08-0.12,0.15-0.15c0.03-0.01,0.07-0.02,0.1-0.02c0.04,0,0.07,0.01,0.11,0.02c0.07,0.03,0.12,0.08,0.15,0.15
							l0.85,2.09c0.06,0.14-0.01,0.3-0.15,0.36c-0.07,0.03-0.14,0.03-0.21,0c-0.07-0.03-0.12-0.08-0.15-0.15c0,0,0,0,0,0l-0.85-2.09
							C62.9,31.31,62.9,31.24,62.93,31.17z"/>
						<path style="fill:#1D76BB;" d="M59.16,37.88l-2.08-0.88c-0.28-0.12-0.6,0.01-0.72,0.29c-0.06,0.13-0.06,0.28,0,0.42
							c0.05,0.14,0.16,0.24,0.29,0.3l2.08,0.88v0c0.07,0.03,0.14,0.04,0.21,0.04c0.21,0,0.42-0.13,0.5-0.33
							C59.57,38.32,59.44,38,59.16,37.88z M59.2,38.49c-0.06,0.14-0.22,0.2-0.36,0.14l-2.08-0.88c-0.07-0.03-0.12-0.08-0.15-0.15
							c-0.03-0.07-0.03-0.14,0-0.21c0.06-0.14,0.22-0.2,0.36-0.15l2.08,0.88C59.19,38.19,59.26,38.35,59.2,38.49z"/>
						<path style="fill:#1D76BB;" d="M67.83,35.98c-0.04,0-0.07,0-0.11,0c-0.03,0-0.06,0-0.1,0c-1.3,0.06-2.53,0.61-3.46,1.54
							c-0.05,0.05-0.05,0.14,0,0.19c0.03,0.03,0.06,0.04,0.1,0.04c0.03,0,0.07-0.01,0.1-0.04c0.88-0.88,2.05-1.4,3.27-1.46
							c0.04,0,0.07,0,0.11,0c0.03,0,0.06,0,0.1,0c0.08,0,0.14-0.06,0.14-0.14C67.97,36.04,67.91,35.98,67.83,35.98z"/>
						<path style="fill:#1D76BB;" d="M65.88,48.92c0.03,0.03,0.06,0.05,0.11,0.05h1.84c0.08,0,0.14-0.06,0.14-0.14
							s-0.06-0.14-0.14-0.14h-1.78l-0.59-0.71l0-0.08c-0.03-0.54-0.12-1.02-0.29-1.51c-0.23-0.67-0.62-1.33-1.17-2.01l-0.11-0.15
							c-0.05-0.07-0.1-0.13-0.15-0.21l-0.06-0.08c-0.06-0.09-0.11-0.17-0.18-0.3l-0.03-0.06c-0.05-0.1-0.1-0.19-0.14-0.28
							l-0.03-0.08c-0.05-0.1-0.09-0.2-0.12-0.31l-0.06-0.19c-0.02-0.07-0.04-0.14-0.07-0.21c-0.02-0.07-0.1-0.11-0.17-0.09
							c-0.07,0.02-0.11,0.1-0.09,0.17c0.02,0.07,0.04,0.15,0.07,0.22l0.06,0.19c0.04,0.12,0.09,0.23,0.13,0.33l0.03,0.08
							c0.05,0.11,0.1,0.21,0.15,0.31l0.03,0.06c0,0,0.01,0.02,0.01,0.02c0.06,0.11,0.12,0.21,0.18,0.3l0.06,0.09
							c0.05,0.08,0.1,0.14,0.15,0.22l0.12,0.16c0.54,0.66,0.9,1.29,1.13,1.93c0.16,0.46,0.25,0.91,0.27,1.43l0,0.13
							c0,0.03,0.01,0.06,0.03,0.08l0.23,0.28l-0.77,0.63l-0.41-0.5c-0.06-0.08-0.1-0.18-0.1-0.3c0-0.56-0.07-1-0.23-1.45
							c-0.18-0.53-0.49-1.06-0.95-1.63c-0.07-0.09-0.13-0.16-0.19-0.25l-0.07-0.1c-0.02-0.02-0.04-0.05-0.06-0.08
							c-0.05-0.07-0.09-0.14-0.14-0.22l-0.07-0.12c-0.01-0.02-0.02-0.03-0.03-0.05c-0.01-0.02-0.03-0.05-0.03-0.06
							c-0.03-0.06-0.06-0.12-0.09-0.19l-0.07-0.15c-0.03-0.05-0.05-0.09-0.07-0.14l-0.01-0.02c-0.02-0.04-0.04-0.09-0.06-0.14
							l-0.14-0.35c-0.01-0.03-0.02-0.07-0.04-0.12l-0.07-0.23c-0.01-0.04-0.03-0.08-0.04-0.14c-0.01-0.02-0.01-0.03-0.01-0.05
							c0-0.02-0.01-0.04-0.01-0.06l-0.02-0.11c-0.02-0.09-0.04-0.19-0.06-0.29c-0.01-0.04-0.02-0.08-0.02-0.14l0-0.01
							c0.26-0.07,0.45-0.3,0.45-0.58c0-0.33-0.27-0.6-0.6-0.6s-0.6,0.27-0.6,0.6c0,0.29,0.2,0.53,0.48,0.59l0,0.03
							c0,0.06,0.01,0.11,0.02,0.16c0.02,0.11,0.04,0.21,0.06,0.3l0.03,0.16c0.01,0.03,0.01,0.06,0.02,0.08
							c0.01,0.05,0.03,0.09,0.04,0.14l0.07,0.23c0.01,0.06,0.03,0.1,0.04,0.14l0.14,0.35c0.02,0.05,0.04,0.1,0.06,0.15l0.01,0.03
							c0.03,0.06,0.05,0.11,0.08,0.16l0.07,0.15c0.03,0.07,0.06,0.12,0.1,0.2c0.01,0.02,0.02,0.03,0.03,0.05
							c0.01,0.02,0.03,0.04,0.04,0.06l0.07,0.11c0.05,0.08,0.1,0.16,0.15,0.23c0.03,0.04,0.05,0.07,0.07,0.1l0.06,0.09
							c0.06,0.09,0.13,0.17,0.2,0.26c0.44,0.54,0.73,1.05,0.9,1.54c0.15,0.41,0.21,0.83,0.21,1.36c0,0.18,0.06,0.35,0.16,0.47
							l0.49,0.6c0,0,0,0,0,0c0,0,0,0,0,0l0.47,0.57c0.15,0.2,0.38,0.32,0.62,0.32h2.19c0.08,0,0.14-0.06,0.14-0.14
							c0-0.08-0.06-0.14-0.14-0.14h-2.19c-0.15,0-0.3-0.08-0.4-0.21l-0.39-0.47l0.78-0.63L65.88,48.92z M61.2,41.57
							c0-0.18,0.15-0.32,0.32-0.32s0.32,0.15,0.32,0.32c0,0.18-0.15,0.32-0.32,0.32S61.2,41.75,61.2,41.57z"/>
					</g>
				</g>
			</g>
		</g>
	</g>
</g>
</svg>
