<?xml version="1.0" encoding="utf-8"?>
<!-- Generator: Adobe Illustrator 27.0.0, SVG Export Plug-In . SVG Version: 6.00 Build 0)  -->
<svg version="1.1" id="Layer_1" xmlns="http://www.w3.org/2000/svg" xmlns:xlink="http://www.w3.org/1999/xlink" x="0px" y="0px"
	 viewBox="0 0 136.7 133.1" style="enable-background:new 0 0 136.7 133.1;" xml:space="preserve">
<style type="text/css">
	.st0{display:none;}
	.st1{display:inline;fill:#BCBCBC;}
	.st2{display:inline;fill:#E91A25;}
	.st3{fill:#FFFFFF;}
	.st4{fill:#ECBF32;}
	.st5{fill:#6E6E6E;}
	.st6{fill:#ED4E2B;}
	.st7{fill:#3F4C97;}
	.st8{fill:#EFC900;}
	.st9{fill-rule:evenodd;clip-rule:evenodd;fill:#EFC900;}
	.st10{fill:#040404;fill-opacity:0;stroke:#040404;stroke-opacity:0;}
</style>
<g id="Layer_2_00000129908810263707168760000016690468477625576619_" class="st0">
	<rect x="-16.5" class="st1" width="136.7" height="133.1"/>
</g>
<g>
	<g>
		<g>
			<path class="st8" d="M68.7,68.5v-2.6c0,0,0.1,0.1,0.1,0.1v1.7c0.2,0.1,0.3,0.2,0.3,0.4C69,68.3,68.8,68.4,68.7,68.5z"/>
		</g>
		<g>
			<polygon class="st8" points="72.3,35.6 70,35.6 70,33.3 67.7,33.3 67.7,35.6 65.4,35.6 65.4,37.8 67.7,37.8 67.7,40.1 70,40.1 
				70,37.8 72.3,37.8 			"/>
		</g>
		<g>
			<g>
				<g>
					<path class="st8" d="M77.6,39.3c-0.2,0-0.4,0.1-0.5,0.3s0.1,0.4,0.3,0.5l2.2,0.4c0.2,0,0.4-0.1,0.5-0.3s-0.1-0.4-0.3-0.5
						L77.6,39.3z"/>
				</g>
				<g>
					<path class="st8" d="M71.8,28.6c-0.1,0.2,0,0.5,0.2,0.5s0.4,0,0.5-0.2l0.9-2.1c0.1-0.2,0-0.5-0.2-0.5s-0.4,0-0.5,0.2L71.8,28.6
						z"/>
				</g>
				<g>
					<path class="st8" d="M77,33.4c-0.2,0.1-0.3,0.3-0.2,0.5c0.1,0.2,0.3,0.3,0.5,0.2l2.1-0.8c0.2-0.1,0.3-0.3,0.2-0.5
						c-0.1-0.2-0.3-0.3-0.5-0.2L77,33.4z"/>
				</g>
			</g>
			<g>
				<path class="st8" d="M72.4,56.4c-1.3-0.8-0.6-2.1,0.3-2.6c0.9-0.5,3.9-2.3,5.9-6c1.9-3.5,1.4-6.1,2.1-7.9
					c0.6-1.8,2.6-1.8,3.3-1.8c0.7,0,30.9,0,30.9,0s0.3,0.3-0.5,1.8c-0.8,1.5-2.5,1.6-2.5,1.6H84c0,0.3,0,0.7,0,1
					c4.8,0,26.2,0,26.2,0s0.3,0.3-0.5,1.8s-2.6,1.6-2.6,1.6H83.4c-0.1,0.3-0.2,0.6-0.3,0.9c4.9,0,18.1,0,18.1,0s0.3,0.3-0.5,1.8
					s-2.5,1.6-2.5,1.6l-16.8-0.1c-0.3,0.4-0.5,0.8-0.8,1.1c5,0,15.1,0,15.1,0s0.3,0.3-0.5,1.8s-2.6,1.6-2.6,1.6l-15.4,0
					C76.2,55.7,73.8,57.3,72.4,56.4z"/>
			</g>
			<g>
				<path class="st8" d="M68.7,51.1v17.4l1.4-0.6c0.1-7.9,0.2-14.6,0.3-16.8L68.7,51.1L68.7,51.1z"/>
			</g>
			<g>
				<path class="st8" d="M69.8,84.9l-1.1,0.5v-1.3l1.2-0.5C69.8,84.1,69.8,84.5,69.8,84.9z"/>
			</g>
			<g>
				<path class="st8" d="M69.7,92.8l-1,0.4v-1.6l1-0.4C69.7,91.7,69.7,92.3,69.7,92.8z"/>
			</g>
			<g>
				<path class="st8" d="M69.9,77.2l-1.3,0.6v-2.8l1.3-0.6C70,75.3,69.9,76.3,69.9,77.2z"/>
			</g>
			<g>
				<path class="st8" d="M75.3,100.9c-1.3-0.5-3.1-1.2-5-2l4.4-1.9C75.7,97.9,75.6,100.6,75.3,100.9z"/>
			</g>
			<g>
				<path class="st8" d="M68.7,99.5l0.9-0.4c-0.1,3.6-0.1,5.9-0.1,6c-0.1,0.8-0.3,1.8-0.7,1.8c0,0,0,0,0,0L68.7,99.5L68.7,99.5z"/>
			</g>
			<g>
				<path class="st8" d="M68.7,94.5c2.2-0.9,4.1-1.8,4-1.9c-0.1-0.1-0.9-0.6-2.2-1.1l0-0.6l3.4-1.5c1.5,0.7,2.7,1.3,3.1,1.6
					c1.6,1.3,1.1,2.9,0.2,3.6c-0.3,0.2-4.4,2.1-8.5,3.8L68.7,94.5L68.7,94.5z"/>
			</g>
			<g>
				<path class="st8" d="M68.7,83v-3.9c3.3-1.3,6.1-2.5,5.8-2.6c-0.2-0.1-1.6-0.7-3.7-1.5V74l3.9-1.7c2.6,1.1,4.4,1.9,4.4,1.9
					c2.4,1.1,2,3.5,0,4.4C77.6,79.2,72.4,81.4,68.7,83z"/>
			</g>
			<g>
				<path class="st8" d="M68.7,86.6c2.1-0.9,3.9-1.7,3.9-1.8c0-0.1-0.8-0.5-1.9-1v-0.5l4.2-1.8c1.8,0.7,3.2,1.2,3.3,1.3
					c1.2,0.7,1.9,2.7-0.2,3.8c-1.1,0.6-5.8,2.4-9.4,3.8L68.7,86.6L68.7,86.6z"/>
			</g>
			<g>
				<path class="st8" d="M79.6,64.8c0.4-0.3-0.1-0.5-0.1-0.5h-5.8c0,0-0.1-3.5,1.9-4.5c2-1,5-0.6,6.1-0.3c1.3,0.3,3.1,1.7,3.1,4.4
					c0,2.4-0.9,3.9-3.3,4.9c-1.6,0.7-7.9,3.2-12.7,5.2v-4.4C74,67.2,79.4,64.9,79.6,64.8z M76.3,61.1c-0.3,0-0.6,0.2-0.6,0.6
					c0,0.3,0.3,0.5,0.6,0.5c0.3,0,0.6-0.2,0.6-0.5C76.9,61.3,76.6,61.1,76.3,61.1z"/>
			</g>
			<g>
				<path class="st9" d="M68.8,47h2.6c0.2,0,0.3-0.1,0.3-0.3v-0.3c0-0.2-0.1-0.3-0.3-0.3h-2.6V47z"/>
			</g>
			<g>
				<path class="st9" d="M68.8,48.5H71c0.2,0,0.3-0.1,0.3-0.3v-0.3c0-0.2-0.1-0.3-0.3-0.3h-2.2V48.5z"/>
			</g>
			<g>
				<path class="st9" d="M68.8,49.9h1.9c0.2,0,0.3-0.1,0.3-0.3v-0.3c0-0.2-0.1-0.3-0.3-0.3h-1.9V49.9z"/>
			</g>
			<g>
				<path class="st8" d="M68.8,30.2v1.2h0.1c0.1,0,0.1,0,0.2,0c1.3,0,2.5,0.6,3.4,1.5c1,1,1.5,2.3,1.5,3.6c0,0.2,0,0.5-0.1,0.8
					l0,0.1c0,0.1,0,0.2-0.1,0.2l0,0.1c0,0,0,0,0,0.1c0,0.1,0,0.1-0.1,0.2l-0.1,0.2c0,0.1-0.1,0.2-0.1,0.3l0,0.1
					c-0.1,0.1-0.1,0.2-0.2,0.3l0,0.1c-0.1,0.1-0.1,0.2-0.2,0.3l0,0.1c-0.1,0.1-0.1,0.2-0.2,0.2l-0.1,0.1c-0.5,0.7-0.9,1.3-1.1,2
					c-0.2,0.5-0.2,0.9-0.3,1.5v0.1l-0.7,0.8h-1.9v1.2H71c0.2,0,0.4-0.1,0.5-0.2l1-1.2c0.1-0.1,0.1-0.2,0.1-0.4c0-0.5,0.1-1,0.2-1.4
					c0.2-0.5,0.5-1,0.9-1.6l0,0c0.1-0.1,0.1-0.2,0.2-0.2l0.1-0.1c0,0,0.1-0.1,0.1-0.1c0.1-0.1,0.1-0.2,0.1-0.2l0.1-0.1
					c0,0,0.1-0.1,0.1-0.1c0-0.1,0.1-0.1,0.1-0.2l0.1-0.1c0,0,0.1-0.1,0.1-0.2s0.1-0.1,0.1-0.2l0.1-0.2c0,0,0-0.1,0.1-0.1l0-0.1
					c0,0,0-0.1,0-0.1l0-0.1c0-0.1,0.1-0.2,0.1-0.2c0,0,0-0.1,0-0.1l0-0.1c0-0.1,0.1-0.2,0.1-0.3c0,0,0-0.1,0-0.1l0-0.1
					c0-0.1,0-0.2,0-0.2c0-0.2,0-0.4,0-0.5c0-0.7-0.1-1.3-0.3-1.9c-0.3-1-0.9-1.9-1.6-2.6c-1.1-1.1-2.6-1.8-4.2-1.9
					C69,30.2,69,30.2,68.8,30.2L68.8,30.2L68.8,30.2z"/>
			</g>
		</g>
		<g>
			<g>
				<g>
					<path class="st8" d="M59.6,83.5c-0.2,0.1-0.3,0.3-0.2,0.5c0.1,0.2,0.3,0.3,0.5,0.2c0.1-0.1,0.2-0.2,0.2-0.3l8.6-3.5V80L60,83.6
						C59.9,83.5,59.7,83.4,59.6,83.5z M60,83.9c0,0.1-0.1,0.2-0.1,0.2l0,0c-0.1,0.1-0.3,0-0.4-0.1c-0.1-0.1,0-0.3,0.1-0.3
						c0.1,0,0.2,0,0.3,0c0,0,0.1,0.1,0.1,0.1C60,83.8,60,83.8,60,83.9z"/>
				</g>
				<g>
					<path class="st8" d="M61.9,84.7c0,0.1,0.1,0.1,0.1,0.1c0,0,0,0,0.1,0l6.6-2.7v-0.3L62,84.5C61.9,84.6,61.9,84.6,61.9,84.7z"/>
				</g>
				<g>
					<path class="st8" d="M67.8,72.5c0,0.1,0.1,0.1,0.1,0.1c0,0,0,0,0.1,0l0.7-0.3V72l-0.8,0.3C67.8,72.3,67.7,72.4,67.8,72.5z"/>
				</g>
				<g>
					<path class="st8" d="M59.6,76.7c0,0.1,0,0.1,0.1,0.1l5.2,2.7c0,0,0,0,0.1,0c0.1,0,0.1,0,0.1-0.1c0-0.1,0-0.2-0.1-0.2l-5-2.6
						l8.6-3.4V73l-9,3.5C59.6,76.6,59.6,76.6,59.6,76.7z"/>
				</g>
				<g>
					<path class="st8" d="M58.9,76C59,76,59,76,58.9,76l6.2-2.4c0.1,0,0.1-0.1,0.1-0.2c0-0.1-0.1-0.1-0.2-0.1l-6.1,2.4
						c-0.1,0-0.1,0.1-0.1,0.2C58.8,75.9,58.9,76,58.9,76z"/>
				</g>
				<g>
					<path class="st8" d="M57.9,75c-0.1-0.1-0.2-0.1-0.3-0.1c0,0-0.1,0-0.1,0c-0.1,0-0.2,0.1-0.2,0.2c-0.1,0.1-0.1,0.2-0.1,0.3
						c0,0.1,0.1,0.2,0.2,0.2c0.1,0.1,0.1,0.1,0.2,0.1c0,0,0.1,0,0.1,0c0.1,0,0.2-0.1,0.3-0.2c0.1-0.1,0.1-0.2,0.1-0.3l10.6-4.4v-0.3
						L57.9,75z M57.7,75.4C57.7,75.4,57.7,75.4,57.7,75.4c-0.1,0.1-0.2,0.1-0.2,0c0,0-0.1-0.1-0.1-0.1c0,0,0-0.1,0-0.1
						c0,0,0.1-0.1,0.1-0.1C57.7,75.2,57.7,75.2,57.7,75.4C57.8,75.3,57.8,75.4,57.7,75.4z"/>
				</g>
				<g>
					<path class="st8" d="M62.8,79.5c0.1,0,0.1,0,0.1-0.1c0-0.1,0-0.2-0.1-0.2L58,76.9c0,0,0,0,0,0c0,0,0-0.1,0-0.1
						c0-0.1-0.1-0.2-0.1-0.2c-0.1-0.1-0.2-0.1-0.3-0.1s-0.2,0.1-0.2,0.1c-0.1,0.1-0.1,0.2-0.1,0.3c0,0.2,0.2,0.3,0.3,0.3
						c0,0,0,0,0.1,0c0,0,0.1,0,0.1-0.1c0,0,0,0,0,0L62.8,79.5C62.8,79.5,62.8,79.5,62.8,79.5z M57.8,76.9c0,0-0.1,0.1-0.1,0.1
						c-0.1,0-0.2-0.1-0.2-0.1c0-0.1,0-0.1,0-0.1s0.1-0.1,0.1-0.1c0,0,0,0,0,0c0,0,0.1,0,0.1,0c0,0,0.1,0.1,0.1,0.1
						C57.8,76.8,57.8,76.9,57.8,76.9z"/>
				</g>
				<g>
					<path class="st8" d="M56.3,63.8h6.2c0.1,0,0.1-0.1,0.1-0.1s-0.1-0.1-0.1-0.1h-6.3c-0.1,0-0.1,0.1-0.1,0.1v1.9
						c0,0.1,0,0.1,0.1,0.1l9.2,3.8c0,0,0,0,0.1,0c0.1,0,0.1,0,0.1-0.1c0-0.1,0-0.2-0.1-0.2l-9.1-3.7L56.3,63.8L56.3,63.8z"/>
				</g>
				<g>
					<path class="st8" d="M63.5,70.3c0.1,0,0.1,0,0.1-0.1c0-0.1,0-0.2-0.1-0.2l-8.8-3.5v-4.7h5.6c0.1,0.2,0.2,0.4,0.5,0.5
						c0.4,0.1,0.7-0.2,0.8-0.5c0.1-0.3-0.2-0.7-0.5-0.8s-0.7,0.2-0.8,0.5h-5.8c-0.1,0-0.1,0.1-0.1,0.1v4.9c0,0.1,0,0.1,0.1,0.1
						L63.5,70.3C63.5,70.3,63.5,70.3,63.5,70.3z"/>
				</g>
				<g>
					<path class="st8" d="M55.7,61.1c0.1,0,0.3-0.1,0.3-0.2h3c0.1,0,0.1-0.1,0.1-0.1v-0.3h2.4l0.2,0.3c0,0.1,0.1,0.1,0.2,0
						s0.1-0.1,0.1-0.2l-0.2-0.4c0,0-0.1-0.1-0.1-0.1H59c-0.1,0-0.1,0.1-0.1,0.1v0.3H56l0,0c-0.1-0.1-0.2-0.2-0.3-0.2
						c-0.2,0-0.4,0.2-0.4,0.3C55.4,61,55.5,61.1,55.7,61.1z M55.7,60.5c0.1,0,0.2,0,0.2,0.1c0,0,0,0.1,0,0.1s0,0.1,0,0.1
						C55.9,61,55.8,61,55.7,61c-0.1,0-0.3-0.1-0.3-0.3S55.6,60.5,55.7,60.5z"/>
				</g>
				<g>
					<path class="st8" d="M60,62.2c0-0.1-0.1-0.1-0.1-0.1h-3.7c-0.1,0-0.1,0.1-0.1,0.1v0.5v0l0,0c0,0,0,0-0.1,0
						c-0.1,0-0.1,0.1-0.1,0.2c0,0.1,0,0.2,0.1,0.3c0.1,0.1,0.1,0.1,0.2,0.1c0,0,0.1,0,0.1,0c0.1,0,0.1,0,0.2-0.1
						c0.1,0,0.1-0.1,0.1-0.2c0-0.1,0-0.2-0.1-0.3c0,0-0.1-0.1-0.1-0.1l0,0v0v-0.4h3.5V63c0,0.1,0.1,0.1,0.1,0.1h2.8
						c0.1,0,0.1-0.1,0.1-0.1s-0.1-0.1-0.1-0.1H60L60,62.2L60,62.2z M56.3,63c0,0,0,0.1,0,0.1s0,0.1-0.1,0.1c0,0-0.1,0-0.1,0
						c-0.1,0-0.1,0-0.1-0.1s0-0.1,0-0.1s0-0.1,0.1-0.1c0,0,0,0,0,0c0,0,0.1,0,0.1,0c0,0,0,0,0,0C56.2,62.9,56.2,62.9,56.3,63
						C56.3,62.9,56.3,63,56.3,63z"/>
				</g>
				<g>
					<path class="st8" d="M59.3,85c0,0.1,0,0.1,0.1,0.1l4.3,2.2c0,0,0,0,0.1,0c0.1,0,0.1,0,0.1-0.1c0-0.1,0-0.2-0.1-0.2l-4-2.1
						l8.9-3.7v-0.3l-9.3,3.9C59.3,84.9,59.3,85,59.3,85z"/>
				</g>
				<g>
					<path class="st8" d="M65.6,86.7C65.6,86.7,65.6,86.7,65.6,86.7c0.1,0,0.2,0,0.2-0.1c0-0.1,0-0.2-0.1-0.2l-2-1.1
						c-0.1,0-0.1,0-0.2,0.1c0,0.1,0,0.2,0.1,0.2L65.6,86.7z"/>
				</g>
				<g>
					<path class="st8" d="M63.8,86.8c0.2,0.1,0.4,0,0.5-0.1c0.1-0.2,0-0.4-0.1-0.5c-0.1-0.1-0.3-0.1-0.4,0l0,0l-1.6-0.9
						c-0.1,0-0.1,0-0.2,0.1c0,0.1,0,0.2,0.1,0.2l1.6,0.9l0,0C63.6,86.6,63.7,86.7,63.8,86.8C63.8,86.8,63.8,86.8,63.8,86.8
						C63.8,86.8,63.8,86.8,63.8,86.8z M63.7,86.5L63.7,86.5c0-0.1,0-0.1,0-0.1s0.1-0.1,0.1-0.1c0.1,0,0.1-0.1,0.2,0l0,0c0,0,0,0,0,0
						c0.1,0.1,0.2,0.2,0.1,0.4c-0.1,0.1-0.2,0.2-0.4,0.1C63.8,86.7,63.7,86.6,63.7,86.5z"/>
				</g>
				<g>
					<polygon class="st8" points="63.8,86.8 63.8,86.8 63.8,86.8 					"/>
				</g>
				<g>
					<path class="st8" d="M61.6,87.6c0,0.1,0,0.2,0.1,0.3c0,0,0,0,0,0c0,0,0,0,0,0c0.2,0.1,0.4,0,0.4-0.2c0.1-0.2,0-0.4-0.1-0.5
						c-0.1-0.1-0.3-0.1-0.4,0L59.4,86c-0.1,0-0.1,0-0.2,0.1c0,0.1,0,0.2,0.1,0.2L61.6,87.6L61.6,87.6z M61.7,87.6c0-0.1,0-0.1,0-0.1
						c0,0,0.1-0.1,0.1-0.1c0.1-0.1,0.2-0.1,0.3,0c0.1,0.1,0.2,0.2,0.1,0.4c-0.1,0.1-0.2,0.2-0.4,0.1C61.8,87.8,61.7,87.7,61.7,87.6
						L61.7,87.6z"/>
				</g>
				<g>
					<path class="st8" d="M60.6,93.2c0,0.1,0,0.1,0.1,0.1l3,2.1c0,0,0.1,0,0.1,0c0,0,0.1,0,0.1-0.1c0-0.1,0-0.2,0-0.2L61,93.2
						l7.6-3.3v-0.3l-8,3.4C60.6,93.1,60.6,93.1,60.6,93.2z"/>
				</g>
				<g>
					<path class="st8" d="M59.4,91.9c0,0.1,0.1,0.1,0.1,0.1c0,0,0,0,0.1,0l9-4.1v-0.3l-9.1,4.1C59.4,91.7,59.4,91.8,59.4,91.9z"/>
				</g>
				<g>
					<path class="st8" d="M64.9,94.3C64.9,94.3,65,94.3,64.9,94.3c0.2,0.1,0.4,0,0.5-0.1c0.1-0.2,0.1-0.4-0.1-0.5
						c-0.1-0.1-0.3-0.1-0.4,0l-1.3-0.8c0,0-0.1,0-0.1,0l-1,0.4c-0.1,0-0.1,0.1-0.1,0.1s0,0.1,0.1,0.1l2.2,1.4c0,0,0.1,0,0.1,0
						c0,0,0.1,0,0.1-0.1c0-0.1,0-0.2,0-0.2l-2-1.3l0.7-0.3l1.3,0.8l0,0C64.8,94,64.8,94.2,64.9,94.3z M64.9,93.8
						c0,0,0.1-0.1,0.1-0.1c0.1,0,0.2,0,0.2,0l0,0l0,0c0,0,0,0,0,0c0.1,0.1,0.1,0.2,0.1,0.4c-0.1,0.1-0.2,0.2-0.4,0.1
						c-0.1-0.1-0.1-0.1-0.1-0.2C64.8,93.9,64.9,93.9,64.9,93.8z"/>
				</g>
				<g>
					<path class="st8" d="M60.3,92.4c0,0.1,0.1,0.1,0.1,0.1c0,0,0,0,0.1,0l8.2-3.6v-0.3l-8.3,3.6C60.3,92.3,60.3,92.3,60.3,92.4z"/>
				</g>
				<g>
					<path class="st8" d="M62.7,98.7c0,0.1,0.1,0.1,0.1,0.1c0,0,0,0,0.1,0l5.8-2.4v-0.3l-5.9,2.5C62.7,98.6,62.6,98.7,62.7,98.7z"/>
				</g>
				<g>
					<path class="st8" d="M63,100.2c0,0.1,0.1,0.1,0.1,0.1c0,0,0,0,0.1,0l5.5-2.3v-0.3L63,100C63,100.1,62.9,100.2,63,100.2z"/>
				</g>
				<g>
					<path class="st8" d="M65,96.9c0,0.1,0.1,0.1,0.1,0.1c0,0,0,0,0.1,0l3.5-1.4v-0.3l-3.6,1.5C65,96.7,65,96.8,65,96.9z"/>
				</g>
				<g>
					<path class="st8" d="M64.7,98.6c0,0.1,0.1,0.1,0.1,0.1c0,0,0,0,0.1,0l3.7-1.6v-0.3l-3.8,1.6C64.7,98.5,64.7,98.6,64.7,98.6z"/>
				</g>
				<g>
					<path class="st8" d="M59.8,93.4c-0.1,0-0.1,0-0.2,0c-0.1,0.1,0,0.2,0,0.2l1.6,1.2c0,0,0.1,0,0.1,0c0,0,0.1,0,0.1-0.1
						c0.1-0.1,0-0.2,0-0.2L59.8,93.4z"/>
				</g>
				<g>
					<path class="st8" d="M60.6,70.3c0.1,0,0.1,0,0.1-0.1c0-0.1,0-0.2-0.1-0.2l-4.3-1.7c-0.1,0-0.1,0-0.2,0.1s0,0.2,0.1,0.2
						L60.6,70.3C60.6,70.3,60.6,70.3,60.6,70.3z"/>
				</g>
				<g>
					<path class="st8" d="M56,66.1c-0.2-0.1-0.4,0-0.4,0.2c-0.1,0.2,0,0.4,0.2,0.4c0.1,0.1,0.3,0,0.4-0.1l0,0l3.1,1.2c0,0,0,0,0.1,0
						c0.1,0,0.1,0,0.1-0.1c0-0.1,0-0.2-0.1-0.2l-3.1-1.2l0,0C56.2,66.3,56.1,66.1,56,66.1z M56.1,66.5c0,0.1-0.1,0.1-0.1,0.1
						c-0.1,0.1-0.2,0.1-0.3,0l0,0c-0.1-0.1-0.2-0.2-0.1-0.3c0.1-0.1,0.2-0.2,0.4-0.2c0.1,0,0.1,0.1,0.2,0.2
						C56.1,66.4,56.1,66.5,56.1,66.5z"/>
				</g>
			</g>
			<g>
				<g>
					<g>
						<path class="st8" d="M54.2,39.3l1.4,1l0.4,1.7c-0.1,0.1-0.1,0.2-0.1,0.3c0,0.2,0.2,0.3,0.4,0.2c0.2,0,0.3-0.2,0.2-0.4
							c0-0.1-0.1-0.2-0.2-0.2l-0.4-1.7c0,0,0-0.1-0.1-0.1l-1.4-1c0,0-0.1,0-0.1,0H24.6c-0.1-0.2-0.2-0.3-0.4-0.3
							c-0.2,0-0.4,0.2-0.4,0.4s0.2,0.4,0.4,0.4c0.2,0,0.3-0.1,0.4-0.3L54.2,39.3L54.2,39.3z"/>
					</g>
					<g>
						<path class="st8" d="M31,40.2c0.1,0.2,0.2,0.3,0.4,0.3c0.2,0,0.4-0.2,0.4-0.4s-0.2-0.4-0.4-0.4c-0.2,0-0.3,0.1-0.4,0.3h-5.3
							c-0.1-0.2-0.2-0.3-0.4-0.3c-0.2,0-0.4,0.2-0.4,0.4s0.2,0.4,0.4,0.4c0.2,0,0.3-0.1,0.4-0.3H31z"/>
					</g>
					<g>
						<path class="st8" d="M43.7,40.5c0.2,0,0.4-0.2,0.4-0.4s-0.2-0.4-0.4-0.4c-0.2,0-0.3,0.1-0.4,0.3h-8.5c0,0-0.1,0-0.1,0l-1.2,1
							h-4.2c-0.1-0.2-0.2-0.3-0.4-0.3c-0.2,0-0.4,0.2-0.4,0.4s0.2,0.4,0.4,0.4c0.2,0,0.3-0.1,0.4-0.3h4.3c0,0,0.1,0,0.1,0l1.2-1h8.4
							C43.4,40.4,43.6,40.5,43.7,40.5z"/>
					</g>
					<g>
						<path class="st8" d="M36.6,41.3c0.2,0,0.3-0.1,0.4-0.3h16.4c0.1,0,0.1-0.1,0.1-0.1c0-0.1-0.1-0.1-0.1-0.1H37
							c-0.1-0.2-0.2-0.3-0.4-0.3c-0.2,0-0.4,0.2-0.4,0.4C36.2,41.1,36.4,41.3,36.6,41.3z"/>
					</g>
					<g>
						<path class="st8" d="M55.3,42.7l-0.4-1.9c0,0,0-0.1-0.1-0.1l-0.9-0.6c0,0-0.1,0-0.1,0h-4.4c-0.1-0.2-0.2-0.3-0.4-0.3
							c-0.2,0-0.4,0.2-0.4,0.4s0.2,0.4,0.4,0.4c0.2,0,0.3-0.1,0.4-0.3h4.4l0.8,0.6l0.4,1.9c-0.1,0.1-0.2,0.3-0.2,0.4
							c0.1,0.2,0.3,0.4,0.5,0.3s0.4-0.3,0.3-0.5C55.6,42.8,55.5,42.7,55.3,42.7z"/>
					</g>
					<g>
						<path class="st8" d="M28.9,43.4h6.7c0.1,0,0.1-0.1,0.1-0.1c0-0.1-0.1-0.1-0.1-0.1h-6.7c-0.1-0.2-0.2-0.3-0.4-0.3
							c-0.2,0-0.4,0.2-0.4,0.4s0.2,0.4,0.4,0.4C28.7,43.7,28.8,43.5,28.9,43.4z"/>
					</g>
					<g>
						<path class="st8" d="M30.9,44c-0.2,0-0.4,0.2-0.4,0.4s0.2,0.4,0.4,0.4c0.2,0,0.3-0.1,0.4-0.3h8.1c0.1,0.2,0.2,0.3,0.4,0.3
							c0.2,0,0.4-0.2,0.4-0.4S40,44,39.8,44c-0.2,0-0.3,0.1-0.4,0.3h-8.1C31.2,44.2,31.1,44,30.9,44z"/>
					</g>
					<g>
						<path class="st8" d="M41.2,45.6l1.3-1.3h7c0.1,0.2,0.2,0.3,0.4,0.3c0.2,0,0.4-0.2,0.4-0.4s-0.2-0.4-0.4-0.4
							c-0.2,0-0.3,0.1-0.4,0.3h-7.1c0,0-0.1,0-0.1,0l-1.3,1.3H30.4l-0.9-0.9c0.1-0.2,0.1-0.3-0.1-0.5c-0.2-0.2-0.4-0.2-0.6,0
							s-0.2,0.4,0,0.6c0.1,0.1,0.3,0.2,0.5,0.1l0.9,1c0,0,0.1,0,0.1,0L41.2,45.6C41.2,45.6,41.2,45.6,41.2,45.6z"/>
					</g>
					<g>
						<path class="st8" d="M53,44.9c0,0.2,0.2,0.4,0.4,0.4c0.2,0,0.4-0.2,0.4-0.4c0-0.2-0.1-0.3-0.3-0.4v-0.4c0-0.1-0.1-0.1-0.1-0.1
							h-1l-0.9-0.9c0,0-0.1,0-0.1,0H38.3c-0.1-0.2-0.2-0.3-0.4-0.3c-0.2,0-0.4,0.2-0.4,0.4s0.2,0.4,0.4,0.4c0.2,0,0.3-0.1,0.4-0.3
							h13l0.9,0.9c0,0,0.1,0,0.1,0h0.9v0.2C53.2,44.6,53,44.7,53,44.9z"/>
					</g>
					<g>
						<path class="st8" d="M44.5,45c-0.1-0.2-0.2-0.3-0.4-0.3c-0.2,0-0.4,0.2-0.4,0.4s0.2,0.4,0.4,0.4c0.2,0,0.3-0.1,0.4-0.3h7.2
							c0.1,0,0.1-0.1,0.1-0.1c0-0.1-0.1-0.1-0.1-0.1L44.5,45L44.5,45z"/>
					</g>
					<g>
						<path class="st8" d="M37.3,47.7h17.3c0.1,0,0.1-0.1,0.1-0.1c0-0.1-0.1-0.1-0.1-0.1H37.3c-0.1-0.2-0.2-0.3-0.4-0.3
							c-0.2,0-0.4,0.2-0.4,0.4s0.2,0.4,0.4,0.4C37.1,48,37.2,47.9,37.3,47.7z"/>
					</g>
					<g>
						<path class="st8" d="M54.4,48.8c0.2,0,0.4-0.2,0.4-0.4c0-0.2-0.2-0.4-0.4-0.4c-0.2,0-0.3,0.1-0.4,0.3l-11.1-0.1
							c-0.1,0-0.1,0-0.1,0.1c0,0,0,0.1,0,0.2l0.5,0.5c0,0,0.1,0,0.1,0c0,0,0.1,0,0.1,0c0.1,0,0.1-0.1,0-0.2l-0.2-0.2l10.8,0.1
							C54.1,48.7,54.3,48.8,54.4,48.8z"/>
					</g>
					<g>
						<path class="st8" d="M40.5,48.9c-0.2,0-0.3,0.1-0.4,0.3h-1.5c-0.1-0.2-0.2-0.3-0.4-0.3c-0.2,0-0.4,0.2-0.4,0.4
							s0.2,0.4,0.4,0.4c0.2,0,0.3-0.1,0.4-0.3h1.5c0.1,0.2,0.2,0.3,0.4,0.3c0.2,0,0.4-0.2,0.4-0.4C40.9,49.1,40.7,48.9,40.5,48.9z"
							/>
					</g>
					<g>
						<path class="st8" d="M43.3,52.2H57c0.1,0,0.1-0.1,0.1-0.1c0-0.1-0.1-0.1-0.1-0.1H43.3c-0.1-0.2-0.2-0.3-0.4-0.3
							c-0.2,0-0.4,0.2-0.4,0.4s0.2,0.4,0.4,0.4C43.1,52.4,43.2,52.3,43.3,52.2z"/>
					</g>
					<g>
						<path class="st8" d="M50.4,49.2h5.4c0.1,0,0.1-0.1,0.1-0.1v-1.8c0,0,0,0,0,0l-1.1-3.3c0.1-0.1,0.2-0.3,0.1-0.5
							c-0.1-0.2-0.3-0.3-0.5-0.2c-0.2,0.1-0.3,0.3-0.2,0.5c0.1,0.2,0.2,0.3,0.4,0.3l1.1,3.2v1.7h-5.3c-0.1,0-0.1,0.1-0.1,0.1
							C50.2,49.2,50.3,49.2,50.4,49.2z"/>
					</g>
					<g>
						<path class="st8" d="M49.5,50C49.5,50,49.5,50,49.5,50l8.3,0c0,0,0.1,0,0.1,0c0,0,0-0.1,0-0.1L57.6,48c0,0,0,0,0,0l-1.1-3.1
							c0.1-0.1,0.2-0.3,0.1-0.5c-0.1-0.2-0.3-0.3-0.5-0.2c-0.2,0.1-0.3,0.3-0.2,0.5c0.1,0.2,0.2,0.3,0.4,0.3l1.1,3.1l0.2,1.7h-8
							l-0.8-0.5c0,0-0.1,0-0.1,0h-6.6L41,48.1c0,0-0.1,0-0.1,0h-3.8c-0.1,0-0.1,0.1-0.1,0.1c0,0.1,0.1,0.1,0.1,0.1h3.8l1.1,1.1
							c0,0,0.1,0,0.1,0h6.6L49.5,50z"/>
					</g>
					<g>
						<path class="st8" d="M56.8,47.6c-0.1,0-0.1,0.1-0.1,0.1v1c-0.2,0.1-0.3,0.2-0.3,0.4c0,0.2,0.2,0.4,0.4,0.4
							c0.2,0,0.4-0.2,0.4-0.4c0-0.2-0.1-0.3-0.3-0.4v-1C56.9,47.7,56.8,47.6,56.8,47.6z"/>
					</g>
					<g>
						<path class="st8" d="M60,52.8l-0.9-0.9c0.1-0.2,0.1-0.3-0.1-0.5c-0.2-0.2-0.4-0.2-0.6,0s-0.2,0.4,0,0.6
							c0.1,0.1,0.3,0.2,0.5,0.1l0.9,0.9c-0.1,0.2-0.1,0.3,0.1,0.5c0.2,0.2,0.4,0.2,0.6,0s0.2-0.4,0-0.6C60.3,52.8,60.1,52.7,60,52.8
							z"/>
					</g>
					<g>
						<path class="st8" d="M65,54.9l-2.8-1.6L59,50.2c-0.1,0-0.1,0-0.2,0s-0.1,0.1,0,0.2l3.2,3.2c0,0,0,0,0,0l2.7,1.5l-0.8,0.8
							l-1.8-1.1c0-0.2,0-0.3-0.2-0.4c-0.2-0.1-0.4,0-0.6,0.1c-0.1,0.2-0.1,0.5,0.1,0.6c0.1,0.1,0.3,0.1,0.5,0l1.9,1.2
							c0,0,0.1,0,0.1,0c0,0,0.1,0,0.1,0l1-1C65.1,55.1,65.1,55,65,54.9C65.1,55,65,54.9,65,54.9z"/>
					</g>
					<g>
						<path class="st8" d="M55.8,52.6h-1.9c-0.1-0.2-0.2-0.3-0.4-0.3c-0.2,0-0.4,0.2-0.4,0.4s0.2,0.4,0.4,0.4c0.2,0,0.3-0.1,0.4-0.3
							h1.9c0.1,0.2,0.2,0.3,0.4,0.3c0.2,0,0.4-0.2,0.4-0.4s-0.2-0.4-0.4-0.4C56,52.4,55.9,52.5,55.8,52.6z"/>
					</g>
					<g>
						<path class="st8" d="M57.5,53.6c-0.2,0-0.3,0.1-0.4,0.3h-9.7l-1.2-1.2c0,0-0.1,0-0.1,0H43c-0.1,0-0.1,0.1-0.1,0.1
							c0,0.1,0.1,0.1,0.1,0.1h3l1.2,1.2c0,0,0.1,0,0.1,0h9.8c0.1,0.2,0.2,0.3,0.4,0.3c0.2,0,0.4-0.2,0.4-0.4
							C57.9,53.8,57.7,53.6,57.5,53.6z"/>
					</g>
					<g>
						<path class="st8" d="M50.9,52.8h-2.7c-0.1-0.2-0.2-0.3-0.4-0.3c-0.2,0-0.4,0.2-0.4,0.4s0.2,0.4,0.4,0.4c0.2,0,0.3-0.1,0.4-0.3
							h2.7c0.1,0.2,0.2,0.3,0.4,0.3c0.2,0,0.4-0.2,0.4-0.4s-0.2-0.4-0.4-0.4C51.1,52.5,50.9,52.7,50.9,52.8z"/>
					</g>
					<g>
						<path class="st8" d="M45.8,53.4c-0.2,0-0.3,0.1-0.4,0.3h-1.9c-0.1,0-0.1,0.1-0.1,0.1s0.1,0.1,0.1,0.1h1.9
							c0.1,0.2,0.2,0.3,0.4,0.3c0.2,0,0.4-0.2,0.4-0.4C46.2,53.6,46,53.4,45.8,53.4z"/>
					</g>
				</g>
				<g>
					<g>
						<path class="st8" d="M68.6,54.4c0.1,0,0.1-0.1,0.1-0.1v-2.8c0-0.1-0.1-0.1-0.1-0.1s-0.1,0.1-0.1,0.1v2.8
							C68.5,54.3,68.5,54.4,68.6,54.4z"/>
					</g>
					<g>
						<path class="st8" d="M67.7,56.8c0,0.2,0.1,0.3,0.3,0.4v8.1c0,0.1,0.1,0.1,0.1,0.1h0.5v-0.3h-0.4v-8c0.2-0.1,0.3-0.2,0.3-0.4
							c0-0.2-0.2-0.4-0.4-0.4S67.7,56.6,67.7,56.8z"/>
					</g>
					<g>
						<path class="st8" d="M68.7,67.7V66c0,0,0-0.1-0.1-0.1c0,0-0.1,0-0.1,0h-1.2V55.3H68c0.1,0,0.1-0.1,0.1-0.1v-4
							c0-0.1-0.1-0.1-0.1-0.1s-0.1,0.1-0.1,0.1V55h-0.6c-0.1,0-0.1,0.1-0.1,0.1V66c0,0.1,0.1,0.1,0.1,0.1h1.2v1.5
							c-0.2,0.1-0.3,0.2-0.3,0.4c0,0.2,0.2,0.4,0.4,0.4c0,0,0.1,0,0.1,0c0.2,0,0.3-0.2,0.3-0.4C69,67.9,68.9,67.7,68.7,67.7z"/>
					</g>
					<g>
						<path class="st8" d="M67.9,66.5c-0.1,0-0.1,0.1-0.1,0.1V68c0,0.1,0.1,0.1,0.1,0.1S68,68.1,68,68v-1.4
							C68,66.5,68,66.5,67.9,66.5z"/>
					</g>
					<g>
						<path class="st8" d="M67.3,78.1c0,0.1,0.1,0.1,0.1,0.1c0,0,0,0,0.1,0l1.2-0.5v-0.3l-1.3,0.6C67.3,77.9,67.3,78,67.3,78.1z"/>
					</g>
					<g>
						<path class="st8" d="M67.4,75.7c0-0.1-0.1-0.1-0.1-0.1s-0.1,0.1-0.1,0.1l0,1.8c0,0.1,0,0.1,0.1,0.1c0,0,0.1,0,0.1,0
							c0,0,0,0,0.1,0l1.4-0.6v-0.3l-1.3,0.5V75.7z"/>
					</g>
					<g>
						<path class="st8" d="M67.9,75.7c-0.1,0-0.1,0.1-0.1,0.1v0.7c0,0.1,0.1,0.1,0.1,0.1s0.1-0.1,0.1-0.1v-0.7
							C68.1,75.8,68,75.7,67.9,75.7z"/>
					</g>
					<g>
						<path class="st8" d="M67.3,84.9l0,0.5l0,0c-0.2,0.1-0.3,0.2-0.3,0.4c0,0.2,0.2,0.4,0.4,0.4s0.4-0.2,0.4-0.4
							c0-0.2-0.1-0.3-0.3-0.4l0,0l0-0.4l1.1-0.5v-0.3l-1.3,0.6C67.3,84.8,67.3,84.8,67.3,84.9z"/>
					</g>
					<g>
						<path class="st8" d="M67.9,85.5c0,0.1,0.1,0.1,0.1,0.1c0,0,0,0,0.1,0l0.5-0.2V85L68,85.3C67.9,85.3,67.9,85.4,67.9,85.5z"/>
					</g>
					<g>
						<path class="st8" d="M67.7,94v-1.4c0-0.1-0.1-0.1-0.1-0.1s-0.1,0.1-0.1,0.1V94c0,0.1,0.1,0.1,0.1,0.1S67.7,94.1,67.7,94z"/>
					</g>
					<g>
						<path class="st8" d="M67.9,93.2c0,0.1,0.1,0.1,0.1,0.1c0,0,0,0,0.1,0l0.6-0.3v-0.3L67.9,93C67.9,93.1,67.8,93.2,67.9,93.2z"/>
					</g>
					<g>
						<path class="st8" d="M67.6,100.6v5c0,0.1,0.1,0.1,0.1,0.1h0.8v0.1c-0.2,0.1-0.3,0.2-0.3,0.4c0,0.2,0.2,0.4,0.4,0.4v-0.2v-0.6
							v-0.4h-0.8v-4.8l0.8-0.3v-0.3l-0.9,0.4C67.7,100.5,67.6,100.5,67.6,100.6z"/>
					</g>
					<g>
						<path class="st8" d="M68,105c0,0.1,0.1,0.1,0.1,0.1h0.5v-0.3h-0.5C68.1,104.9,68,104.9,68,105z"/>
					</g>
					<g>
						<path class="st8" d="M68.6,101.2v3.1c0,0.1,0,0.1,0.1,0.1v-3.3C68.6,101.1,68.6,101.2,68.6,101.2z"/>
					</g>
				</g>
				<g>
					<g>
						<path class="st8" d="M67.1,48.9c-0.3,0-0.6,0.3-0.6,0.6c0,0.3,0.3,0.6,0.6,0.6c0.3,0,0.5-0.2,0.6-0.5h1.2v-0.3h-1.2
							C67.6,49.1,67.3,48.9,67.1,48.9z M67.1,49.8c-0.2,0-0.3-0.2-0.3-0.3c0-0.2,0.1-0.3,0.3-0.3s0.3,0.2,0.3,0.3
							C67.4,49.7,67.2,49.8,67.1,49.8z"/>
					</g>
					<g>
						<path class="st8" d="M66.8,47.4c-0.3,0-0.6,0.3-0.6,0.6c0,0.3,0.3,0.6,0.6,0.6c0.3,0,0.5-0.2,0.6-0.5h1.5v-0.3h-1.5
							C67.3,47.6,67,47.4,66.8,47.4z M66.8,48.4c-0.2,0-0.3-0.2-0.3-0.3c0-0.2,0.1-0.3,0.3-0.3s0.3,0.2,0.3,0.3
							C67.1,48.2,66.9,48.4,66.8,48.4z"/>
					</g>
					<g>
						<path class="st8" d="M66.4,46c-0.3,0-0.6,0.3-0.6,0.6c0,0.3,0.3,0.6,0.6,0.6c0.3,0,0.5-0.2,0.6-0.5h1.8v-0.3H67
							C66.9,46.2,66.7,46,66.4,46z M66.4,46.9c-0.2,0-0.3-0.2-0.3-0.3c0-0.2,0.1-0.3,0.3-0.3c0.2,0,0.3,0.2,0.3,0.3
							C66.7,46.8,66.6,46.9,66.4,46.9z"/>
					</g>
					<g>
						<path class="st8" d="M64,33.1c0.3,0,0.6-0.3,0.6-0.6c0-0.1-0.1-0.3-0.1-0.3c1.1-1.1,2.6-1.7,4.1-1.8c0.1,0,0.2,0,0.2,0
							s0.1-0.1,0.1-0.1S68.9,30,68.8,30c-0.1,0-0.2,0-0.3,0c-1.6,0.1-3.1,0.7-4.3,1.9c-0.1,0-0.2-0.1-0.3-0.1
							c-0.3,0-0.6,0.3-0.6,0.6C63.4,32.8,63.7,33.1,64,33.1z M64,32.1c0.2,0,0.3,0.1,0.3,0.3c0,0.2-0.1,0.3-0.3,0.3
							c-0.2,0-0.3-0.2-0.3-0.3C63.7,32.3,63.8,32.1,64,32.1z"/>
					</g>
					<g>
						<path class="st8" d="M59.6,39.1l-2.2,0.4c-0.3,0-0.5,0.3-0.4,0.6c0,0.1,0.1,0.3,0.2,0.3c0.1,0.1,0.2,0.1,0.3,0.1
							c0,0,0.1,0,0.1,0l2.2-0.4c0.1,0,0.3-0.1,0.4-0.2s0.1-0.3,0.1-0.4C60.2,39.3,59.9,39.1,59.6,39.1z M59.9,39.8
							c0,0.1-0.1,0.1-0.2,0.1l-2.2,0.4c-0.1,0-0.1,0-0.2,0s-0.1-0.1-0.1-0.2c0-0.2,0.1-0.3,0.2-0.3l2.2-0.4l0,0c0,0,0,0,0.1,0
							c0.1,0,0.2,0.1,0.3,0.2C60,39.7,60,39.8,59.9,39.8z"/>
					</g>
					<g>
						<path class="st8" d="M64.5,28.9c0.1,0.1,0.2,0.2,0.3,0.3c0.1,0,0.1,0,0.2,0s0.1,0,0.2,0c0.3-0.1,0.4-0.4,0.3-0.7l-0.9-2.1
							c-0.1-0.1-0.2-0.2-0.3-0.3c-0.1-0.1-0.3-0.1-0.4,0c-0.1,0-0.2,0.2-0.3,0.3c-0.1,0.1-0.1,0.3,0,0.4L64.5,28.9z M63.9,26.5
							c0-0.1,0.1-0.1,0.1-0.1c0,0,0.1,0,0.1,0c0,0,0.1,0,0.1,0c0.1,0,0.1,0.1,0.1,0.1l0.9,2.1c0.1,0.1,0,0.3-0.1,0.4
							c-0.1,0-0.1,0-0.2,0s-0.1-0.1-0.1-0.1l0,0l-0.9-2.1C63.9,26.6,63.9,26.5,63.9,26.5z"/>
					</g>
					<g>
						<path class="st8" d="M60.2,33.2l-2.1-0.9c-0.3-0.1-0.6,0-0.7,0.3c-0.1,0.1-0.1,0.3,0,0.4c0.1,0.1,0.2,0.2,0.3,0.3l2.1,0.9l0,0
							c0.1,0,0.1,0,0.2,0c0.2,0,0.4-0.1,0.5-0.3C60.6,33.6,60.4,33.3,60.2,33.2z M60.2,33.8c-0.1,0.1-0.2,0.2-0.4,0.1l-2.1-0.9
							c-0.1,0-0.1-0.1-0.1-0.2s0-0.1,0-0.2c0.1-0.1,0.2-0.2,0.4-0.1l2.1,0.9C60.2,33.5,60.3,33.7,60.2,33.8z"/>
					</g>
					<g>
						<path class="st8" d="M68.8,31.3c0,0-0.1,0-0.1,0c0,0-0.1,0-0.1,0c-1.3,0.1-2.5,0.6-3.5,1.5c-0.1,0-0.1,0.1,0,0.2
							c0,0,0.1,0,0.1,0c0,0,0.1,0,0.1,0c0.9-0.9,2.1-1.4,3.3-1.5c0,0,0.1,0,0.1,0c0,0,0.1,0,0.1,0c0.1,0,0.1-0.1,0.1-0.1
							S68.9,31.3,68.8,31.3z"/>
					</g>
					<g>
						<path class="st8" d="M66.9,44.2c0,0,0.1,0,0.1,0h1.8c0.1,0,0.1-0.1,0.1-0.1c0-0.1-0.1-0.1-0.1-0.1h-1.8l-0.6-0.7v-0.1
							c0-0.5-0.1-1-0.3-1.5c-0.2-0.7-0.6-1.3-1.2-2l-0.1-0.2c-0.1-0.1-0.1-0.1-0.1-0.2l-0.1-0.1c-0.1-0.1-0.1-0.2-0.2-0.3l0-0.1
							c-0.1-0.1-0.1-0.2-0.1-0.3l0-0.1c-0.1-0.1-0.1-0.2-0.1-0.3L64.1,38c0-0.1,0-0.1-0.1-0.2c0-0.1-0.1-0.1-0.2-0.1
							c-0.1,0-0.1,0.1-0.1,0.2s0,0.2,0.1,0.2l0.1,0.2c0,0.1,0.1,0.2,0.1,0.3l0,0.1c0.1,0.1,0.1,0.2,0.1,0.3l0,0.1l0,0
							c0.1,0.1,0.1,0.2,0.2,0.3l0.1,0.1c0.1,0.1,0.1,0.1,0.1,0.2l0.1,0.2c0.5,0.7,0.9,1.3,1.1,1.9c0.2,0.5,0.2,0.9,0.3,1.4v0.1
							c0,0,0,0.1,0,0.1l0.2,0.3l-0.8,0.6l-0.4-0.5c-0.1-0.1-0.1-0.2-0.1-0.3c0-0.6-0.1-1-0.2-1.5c-0.2-0.5-0.5-1.1-0.9-1.6
							c-0.1-0.1-0.1-0.2-0.2-0.2l-0.1-0.1c0,0,0,0-0.1-0.1c-0.1-0.1-0.1-0.1-0.1-0.2l-0.1-0.1c0,0,0,0,0,0s0,0,0-0.1
							c0-0.1-0.1-0.1-0.1-0.2l-0.1-0.2c0,0-0.1-0.1-0.1-0.1l0,0c0,0,0-0.1-0.1-0.1L63,38.6c0,0,0-0.1,0-0.1l-0.1-0.2
							c0,0,0-0.1,0-0.1c0,0,0,0,0,0s0,0,0-0.1l0-0.1c0-0.1,0-0.2-0.1-0.3c0,0,0-0.1,0-0.1v0c0.3-0.1,0.4-0.3,0.4-0.6
							c0-0.3-0.3-0.6-0.6-0.6s-0.6,0.3-0.6,0.6c0,0.3,0.2,0.5,0.5,0.6v0c0,0.1,0,0.1,0,0.2c0,0.1,0,0.2,0.1,0.3l0,0.2
							c0,0,0,0.1,0,0.1c0,0,0,0.1,0,0.1l0.1,0.2c0,0.1,0,0.1,0,0.1l0.1,0.3c0,0,0,0.1,0.1,0.2l0,0c0,0.1,0.1,0.1,0.1,0.2l0.1,0.2
							c0,0.1,0.1,0.1,0.1,0.2c0,0,0,0,0,0s0,0,0,0.1l0.1,0.1c0.1,0.1,0.1,0.2,0.1,0.2c0,0,0.1,0.1,0.1,0.1l0.1,0.1
							c0.1,0.1,0.1,0.2,0.2,0.3c0.4,0.5,0.7,1,0.9,1.5c0.1,0.4,0.2,0.8,0.2,1.4c0,0.2,0.1,0.3,0.2,0.5l0.5,0.6l0,0l0,0l0.5,0.6
							c0.1,0.2,0.4,0.3,0.6,0.3h2.2c0.1,0,0.1-0.1,0.1-0.1c0-0.1-0.1-0.1-0.1-0.1h-2.2c-0.1,0-0.3-0.1-0.4-0.2l-0.4-0.5l0.8-0.6
							L66.9,44.2z M62.2,36.9c0-0.2,0.1-0.3,0.3-0.3c0.2,0,0.3,0.2,0.3,0.3c0,0.2-0.1,0.3-0.3,0.3C62.3,37.2,62.2,37.1,62.2,36.9z"
							/>
					</g>
				</g>
			</g>
		</g>
	</g>
</g>
</svg>
