<?xml version="1.0" encoding="utf-8"?>
<!-- Generator: Adobe Illustrator 27.0.0, SVG Export Plug-In . SVG Version: 6.00 Build 0)  -->
<svg version="1.1" xmlns="http://www.w3.org/2000/svg" xmlns:xlink="http://www.w3.org/1999/xlink" x="0px" y="0px"
	 viewBox="0 0 136.7 133.07" style="enable-background:new 0 0 136.7 133.07;" xml:space="preserve">
<style type="text/css">
	.st0{fill:#FFFFFF;}
	.st1{fill:#EEC919;}
	.st2{fill:none;stroke:#1D76BB;stroke-width:0.1928;stroke-linecap:round;stroke-linejoin:round;stroke-miterlimit:10;}
	.st3{fill:#28A8E0;}
	.st4{fill:#1D76BB;}
	.st5{fill-rule:evenodd;clip-rule:evenodd;fill:#1668B1;}
	.st6{fill:#797979;}
	.st7{fill:#00A651;}
	.st8{fill:#0B0C0E;}
	.st9{fill:#010101;}
	.st10{fill:#050505;}
	.st11{fill:#020202;}
	.st12{fill:#080A0C;}
	.st13{fill:#0A0B0D;}
	.st14{fill:#080808;}
	.st15{fill:#0F1112;}
	.st16{fill:#101212;}
	.st17{fill:#0E1011;}
	.st18{fill:#A3795F;}
	.st19{fill:#D2AA91;}
	.st20{fill:#060506;}
	.st21{fill:#D1A990;}
	.st22{fill:#060606;}
	.st23{fill:#0B0B0B;}
	.st24{fill:#110F0E;}
	.st25{fill:#D0A891;}
	.st26{fill:#181412;}
	.st27{fill:#BA967F;}
	.st28{fill:#101010;}
	.st29{fill:#1C1715;}
	.st30{fill:#8D7262;}
	.st31{fill:#303230;}
	.st32{fill:#474E47;}
	.st33{fill:#3A453A;}
	.st34{fill:#B7947D;}
	.st35{fill:#5E6C42;}
	.st36{fill:#BC9882;}
	.st37{fill:#BA9680;}
	.st38{fill:#AD8B77;}
	.st39{fill:#A28B70;}
	.st40{fill:#917564;}
	.st41{fill:#7B6555;}
	.st42{fill:#534339;}
	.st43{fill:#56453B;}
	.st44{fill:#D5AB92;}
	.st45{fill:#A3775E;}
	.st46{fill:#A2785E;}
	.st47{fill:#050706;}
	.st48{fill:#0A0808;}
	.st49{fill:#CCA48C;}
	.st50{fill:#090909;}
	.st51{fill:#171412;}
	.st52{fill:#13110F;}
	.st53{fill:#CAA28A;}
	.st54{fill:#C49E87;}
	.st55{fill:#413026;}
	.st56{fill:#1A1614;}
	.st57{fill:#9B7D6B;}
	.st58{fill:#0D0B0B;}
	.st59{fill:#9A6D57;}
	.st60{fill:#EDEBE8;}
	.st61{fill:#8D6751;}
	.st62{fill:#2A2320;}
	.st63{fill:#34261E;}
	.st64{fill:#1B1512;}
	.st65{fill:#362920;}
	.st66{fill:#181A12;}
	.st67{fill:#382920;}
	.st68{fill:#37291F;}
	.st69{fill:#342923;}
	.st70{fill:#575453;}
	.st71{fill:#A2948B;}
	.st72{fill:#1D1715;}
	.st73{fill:#211C18;}
	.st74{fill:#443F3D;}
	.st75{fill:#403F3F;}
	.st76{fill:#5F5E5E;}
	.st77{fill:#1E1E1E;}
	.st78{fill:#553F31;}
	.st79{fill:#B3B3B3;}
	.st80{fill:#46352B;}
	.st81{fill:#83604C;}
	.st82{fill:#0E0F12;}
	.st83{fill:#ECEDED;}
	.st84{fill:#17181A;}
	.st85{fill:#222226;}
	.st86{fill:#BCBCBC;}
	.st87{fill:#DCDCDC;}
	.st88{fill:#262525;}
	.st89{fill:#C29C82;}
	.st90{fill:#09090B;}
	.st91{fill:#030303;}
	.st92{fill:#D2A891;}
	.st93{fill:#040404;}
	.st94{fill:#090A0C;}
	.st95{fill:#070606;}
	.st96{fill:#0B0A0A;}
	.st97{fill:#9E6F58;}
	.st98{fill:#D1A991;}
	.st99{fill:#D1A790;}
	.st100{fill:#080707;}
	.st101{fill:#100E0D;}
	.st102{fill:#D0A68D;}
	.st103{fill:#1B1612;}
	.st104{fill:#CCA38C;}
	.st105{fill:#CAA18A;}
	.st106{fill:#28201B;}
	.st107{fill:#241D18;}
	.st108{fill:#E7E6E5;}
	.st109{fill:#454544;}
	.st110{fill:#1A1817;}
	.st111{fill:#1F1813;}
	.st112{fill:#33251D;}
	.st113{fill:#C29C84;}
	.st114{fill:#C89F87;}
	.st115{fill:#E9E8E8;}
	.st116{fill:#2E211A;}
	.st117{fill:#362E2A;}
	.st118{fill:#292624;}
	.st119{fill:#211913;}
	.st120{fill:#3D3732;}
	.st121{fill:#464646;}
	.st122{fill:#463A31;}
	.st123{fill:#946E56;}
	.st124{fill:#191411;}
	.st125{fill:#E4E4E4;}
	.st126{fill:#2F2823;}
	.st127{fill:#3B2B22;}
	.st128{fill:#252424;}
	.st129{fill:#262320;}
	.st130{fill:#745948;}
	.st131{fill:#333231;}
	.st132{fill:#1E1917;}
	.st133{fill:#46362B;}
	.st134{fill:#1D1613;}
	.st135{fill:#3C2C22;}
	.st136{fill:#3E3834;}
	.st137{fill:#4F4D4D;}
	.st138{fill:#F4F4F4;}
	.st139{fill:#E3E2E0;}
	.st140{fill:#37281F;}
	.st141{fill:#DDDAD9;}
	.st142{fill:#211915;}
	.st143{fill:#3A2D26;}
	.st144{fill:#3E2E23;}
	.st145{fill:#2A1E18;}
	.st146{fill:#E4E2E2;}
	.st147{fill:#D6D3D0;}
	.st148{fill:#4A362B;}
	.st149{fill:#33251E;}
	.st150{fill:#31241D;}
	.st151{fill:#3C2D23;}
	.st152{fill:#3F2E24;}
	.st153{fill:#3D3D3D;}
	.st154{fill:#7D5F4D;}
	.st155{fill:#34251E;}
	.st156{fill:#201F1F;}
	.st157{fill:#CDC5C0;}
	.st158{fill:#161211;}
	.st159{fill:#453932;}
	.st160{fill:#636363;}
	.st161{fill:#B58A71;}
	.st162{fill:#DED7D3;}
	.st163{fill:#656260;}
	.st164{fill:#C8BFBA;}
	.st165{fill:#CCCAC8;}
	.st166{fill:#513B2E;}
	.st167{fill:#D8CBC4;}
	.st168{fill:#382A23;}
	.st169{fill:#E7DFDA;}
	.st170{fill:#30271F;}
	.st171{fill:#A19D9C;}
	.st172{fill:#402F25;}
	.st173{fill:#0D0E10;}
	.st174{fill:#0D0E11;}
	.st175{fill:#0B0B0E;}
	.st176{fill:#0E0F11;}
	.st177{fill:#121316;}
	.st178{fill:#D3D3D3;}
	.st179{fill:#17181C;}
	.st180{fill:#2B2D2F;}
	.st181{fill:#DBDADA;}
	.st182{fill:#2B2B2F;}
	.st183{fill:#252629;}
	.st184{fill:#4C4E50;}
	.st185{fill:#636466;}
	.st186{fill:#2B2C2E;}
	.st187{fill:#1C1D21;}
	.st188{fill:#7B7B7D;}
	.st189{fill:#BABABA;}
	.st190{fill:#505153;}
	.st191{fill:#929394;}
	.st192{fill:#5C5E60;}
	.st193{fill:#393B3D;}
	.st194{fill:#100F0E;}
	.st195{fill:#191514;}
	.st196{fill:#1C1A19;}
	.st197{fill:#2B2725;}
	.st198{fill:#D5E9D6;}
	.st199{fill:#151312;}
	.st200{fill:#161311;}
	.st201{fill:#252624;}
	.st202{fill:#282828;}
	.st203{fill:#1B1B1B;}
	.st204{fill:#434140;}
	.st205{fill:#272626;}
	.st206{fill:#424242;}
	.st207{fill:#303030;}
	.st208{fill:#4D4D4D;}
	.st209{fill:#4B4B4B;}
	.st210{fill:#656565;}
	.st211{fill:#0F0F0E;}
	.st212{fill:#0C0B0B;}
	.st213{fill:#111111;}
	.st214{fill:#D3AA92;}
	.st215{fill:#F5F6F6;}
	.st216{fill:#343434;}
	.st217{fill:#565656;}
	.st218{fill:#3E3E3E;}
	.st219{fill:#CDC0B7;}
	.st220{fill:#272727;}
	.st221{fill:#0A0909;}
	.st222{fill:#141211;}
	.st223{fill:#3D322A;}
	.st224{fill:#D0A78E;}
	.st225{fill:#211E1C;}
	.st226{fill:#D0A68E;}
	.st227{fill:#221B18;}
	.st228{fill:#CAA188;}
	.st229{fill:#31231B;}
	.st230{fill:#271D17;}
	.st231{fill:#282320;}
	.st232{fill:#E9E7E6;}
	.st233{fill:#3A2B21;}
	.st234{fill:#3B3734;}
	.st235{fill:#31241C;}
	.st236{fill:#966F57;}
	.st237{fill:#443227;}
	.st238{fill:#4F3A2E;}
	.st239{fill:#2F2925;}
	.st240{fill:#2C211C;}
	.st241{fill:#1F1712;}
	.st242{fill:#48362A;}
	.st243{fill:#241D19;}
	.st244{fill:#312C29;}
	.st245{fill:#735442;}
	.st246{fill:#4D392D;}
	.st247{fill:#26211E;}
	.st248{fill:#523E32;}
	.st249{fill:#583E31;}
	.st250{fill:#D3CECB;}
	.st251{fill:#946A53;}
	.st252{fill:#3D2E26;}
	.st253{fill:#433227;}
	.st254{fill:#4A372B;}
	.st255{fill:#8B6751;}
	.st256{fill:#090808;}
	.st257{fill:#594234;}
	.st258{fill:#3C2F28;}
	.st259{fill:#8D6852;}
	.st260{fill:#4C382C;}
	.st261{fill:#563E31;}
	.st262{fill:#563F32;}
	.st263{fill:#533D30;}
	.st264{fill:#5D4536;}
	.st265{fill:#483529;}
	.st266{fill:#423126;}
	.st267{fill:#564032;}
	.st268{fill:#614738;}
	.st269{fill:#4A4949;}
	.st270{fill:#424241;}
	.st271{fill:#616262;}
	.st272{fill:#6A6A6A;}
	.st273{fill:#505050;}
	.st274{fill:#575757;}
	.st275{fill:#5D5D5D;}
	.st276{fill:#606060;}
	.st277{fill:#484645;}
	.st278{fill:#595959;}
	.st279{fill:#727171;}
	.st280{fill:#E2E2E2;}
	.st281{fill:#525252;}
	.st282{fill:#5E5E5E;}
	.st283{fill:#C0BFBF;}
	.st284{fill:#5E5F5F;}
	.st285{fill:#423733;}
	.st286{fill:#464645;}
	.st287{fill:#444444;}
	.st288{fill:#D9D9DA;}
	.st289{fill:#6D6E6E;}
	.st290{fill:#333333;}
	.st291{fill:#373737;}
	.st292{fill:#666666;}
	.st293{fill:#434343;}
	.st294{fill:#787878;}
	.st295{fill:#313132;}
	.st296{fill:#3F3F3F;}
	.st297{fill:#2B2B2C;}
	.st298{fill:#939393;}
	.st299{fill:#322822;}
	.st300{fill:#231D18;}
	.st301{fill:#483A31;}
	.st302{fill:#302821;}
	.st303{fill:#936E57;}
	.st304{fill:#EEEDEE;}
	.st305{fill:#B9B9B9;}
	.st306{fill:#2B2C2B;}
	.st307{fill:#574033;}
	.st308{fill:#D2CFCE;}
	.st309{fill:#92796B;}
	.st310{fill:#49362B;}
	.st311{fill:#896755;}
	.st312{fill:#D0D1D1;}
	.st313{fill:#494949;}
	.st314{fill:#D8D9D8;}
	.st315{fill:#555554;}
	.st316{fill:#CFCBCA;}
	.st317{fill:#414140;}
	.st318{fill:#C9C9C9;}
	.st319{fill:#B5B5B5;}
	.st320{fill:#F6F6F6;}
	.st321{fill:#FBFCFC;}
	.st322{fill:#B3B3B5;}
	.st323{fill:#F9F9FA;}
	.st324{fill:#0C0A0A;}
	.st325{fill:#2B231E;}
	.st326{fill:url(#SVGID_1_);}
	.st327{fill:#67318E;}
	.st328{fill:none;stroke:#000000;stroke-miterlimit:10;}
	.st329{fill:url(#SVGID_00000062174892744907887080000001677880511686375332_);}
	.st330{fill:#F15A29;}
	.st331{fill:#4853A4;}
	.st332{fill:none;}
	.st333{fill:#663795;}
</style>
<g id="Layer_2">
</g>
<g id="Layer_1">
	<g>
		<path class="st0" d="M66.18,80.38c-0.71,0.97-1.85,1.54-3.05,1.54c-0.81,0-1.59-0.26-2.25-0.74c-1.68-1.24-2.04-3.62-0.8-5.3
			l11.95-16.21c-2.89-1.48-6.15-2.33-9.62-2.33c-11.72,0-21.25,9.53-21.25,21.25c0,11.72,9.53,21.25,21.25,21.25
			s21.25-9.53,21.25-21.25c0-5.52-2.14-10.55-5.6-14.33L66.18,80.38z"/>
		<path class="st330" d="M85.08,54.74L68.41,77.36c0.08,0.4,0.13,0.81,0.13,1.24c0,3.38-2.74,6.12-6.12,6.12
			c-3.38,0-6.12-2.74-6.12-6.12s2.74-6.12,6.12-6.12c0.06,0,0.12,0.01,0.18,0.01l16.98-23.03l-0.78-3.32
			c-4.92-2.49-10.48-3.91-16.37-3.91c-20.06,0-36.38,16.32-36.38,36.38s16.32,36.38,36.38,36.38c20.06,0,36.38-16.32,36.38-36.38
			c0-9.27-3.49-17.74-9.22-24.17L85.08,54.74z"/>
		<path class="st0" d="M68.41,77.36c0.08,0.4,0.13,0.81,0.13,1.24c0,3.38-2.74,6.12-6.12,6.12c-3.38,0-6.12-2.74-6.12-6.12
			c0-3.38,2.74-6.12,6.12-6.12c0.06,0,0.12,0.01,0.18,0.01l12.48-16.92c-3.76-2.07-8.07-3.25-12.65-3.25
			c-14.5,0-26.29,11.8-26.29,26.29c0,14.5,11.8,26.29,26.29,26.29S88.7,93.09,88.7,78.6c0-7.19-2.9-13.71-7.6-18.46L68.41,77.36z"/>
		<path class="st330" d="M68.41,77.36c0.08,0.4,0.13,0.81,0.13,1.24c0,3.38-2.74,6.12-6.12,6.12c-3.38,0-6.12-2.74-6.12-6.12
			c0-3.38,2.74-6.12,6.12-6.12c0.06,0,0.12,0.01,0.18,0.01l6.4-8.68c-2.01-0.9-4.24-1.41-6.58-1.41c-8.94,0-16.21,7.27-16.21,16.21
			c0,8.94,7.27,16.21,16.21,16.21c8.94,0,16.21-7.27,16.21-16.21c0-3.86-1.36-7.4-3.62-10.18L68.41,77.36z"/>
		<g>
			<path class="st331" d="M63.37,80.73c-0.6,0-1.17-0.19-1.65-0.54c-1.24-0.91-1.5-2.66-0.59-3.9l19.76-26.8l-2.37-10.06
				c-0.03-0.14,0-0.29,0.08-0.41l19.71-26.78c0.1-0.13,0.25-0.2,0.4-0.2c0.03,0,0.07,0,0.1,0.01c0.19,0.04,0.34,0.19,0.39,0.38
				l3.19,13.57c0,0,13.93-0.97,13.94-0.97c0.18,0,0.35,0.1,0.44,0.26c0.09,0.17,0.08,0.38-0.04,0.54L96.98,52.56
				c-0.09,0.12-0.22,0.19-0.37,0.2l-11.83,0.82L65.62,79.59C65.09,80.31,64.25,80.73,63.37,80.73L63.37,80.73z M90.65,47.58
				l3.24-0.22l11.82-16.02l-3.25,0.23L90.65,47.58z M85.23,43.58l11.81-16.02l-0.75-3.17l-11.8,16.03L85.23,43.58z"/>
		</g>
	</g>
</g>
</svg>
