<?xml version="1.0" encoding="utf-8"?>
<!-- Generator: Adobe Illustrator 27.0.0, SVG Export Plug-In . SVG Version: 6.00 Build 0)  -->
<svg version="1.1" id="Layer_1" xmlns="http://www.w3.org/2000/svg" xmlns:xlink="http://www.w3.org/1999/xlink" x="0px" y="0px"
	 viewBox="0 0 136.7 133.1" style="enable-background:new 0 0 136.7 133.1;" xml:space="preserve">
<style type="text/css">
	.st0{display:none;}
	.st1{display:inline;fill:#BCBCBC;}
	.st2{display:inline;fill:#E91A25;}
	.st3{fill:#FFFFFF;}
	.st4{fill:#ECBF32;}
	.st5{fill:#6E6E6E;}
	.st6{fill:#ED4E2B;}
	.st7{fill:#3F4C97;}
	.st8{fill:#EFC900;}
	.st9{fill-rule:evenodd;clip-rule:evenodd;fill:#EFC900;}
	.st10{fill:#040404;fill-opacity:0;stroke:#040404;stroke-opacity:0;}
</style>
<g id="Layer_2_00000129908810263707168760000016690468477625576619_" class="st0">
	<rect x="-0.1" y="13.4" class="st1" width="136.7" height="133.1"/>
</g>
<g>
	<path class="st8" d="M88.7,57.5l-4.5,0.3L67.5,80.4l12.7-17.2c8.6,8.7,11.2,23.2,1.1,37c-0.3,0.4-0.7,0.8-1.1,1.1
		C52.5,121.8,21.4,90.7,41.8,63c0.3-0.4,0.7-0.8,1.1-1.1c11.1-8.2,22.6-8.1,31.3-3.4l4.5-6.1l-0.8-3.3c-11.5-5.8-26.5-5.8-41,4.5
		c-1.5,1-2.7,2.3-3.8,3.8c-20.9,30.6,2.7,63.4,32.4,60.3C82.6,116,96.2,102.1,97.7,85C98.7,74.4,95.1,64.7,88.7,57.5z"/>
	<path class="st8" d="M67.5,80.4c0.3,1.6,0.2,3.4-1.7,5.9c-5,3.6-10.4,0.1-10.4-4.7c0-3.4,2.7-6.1,6.1-6.1c0.1,0,0.1,0,0.2,0
		l6.4-8.7c-5.4-2.4-12.4-2-18.9,3.6c-12.3,17.1,7.1,36.2,24.2,23.1c6.1-8,5.2-16.5,0.7-22L67.5,80.4z"/>
	<g>
		<path class="st8" d="M62.4,83.8c-0.6,0-1.2-0.2-1.6-0.5c-1.2-0.9-1.5-2.7-0.6-3.9L80,52.5l-2.4-10.1c0-0.1,0-0.3,0.1-0.4
			l19.7-26.8c0.1-0.1,0.2-0.2,0.4-0.2c0,0,0.1,0,0.1,0c0.2,0,0.3,0.2,0.4,0.4l3.2,13.6c0,0,13.9-1,13.9-1c0.2,0,0.4,0.1,0.4,0.3
			c0.1,0.2,0.1,0.4,0,0.5L96.1,55.6c-0.1,0.1-0.2,0.2-0.4,0.2l-11.8,0.8l-19.2,26C64.2,83.3,63.3,83.8,62.4,83.8L62.4,83.8z
			 M89.7,50.6l3.2-0.2l11.8-16l-3.2,0.2L89.7,50.6z M84.3,46.6l11.8-16l-0.8-3.2l-11.8,16L84.3,46.6z"/>
	</g>
</g>
</svg>
